<svg width="150" height="127" viewBox="0 0 150 127" fill="none" xmlns="http://www.w3.org/2000/svg">
<path d="M133.696 126.498L16.3395 126.534C13.4727 126.544 10.6537 125.869 8.16786 124.576C5.68198 123.284 3.61743 121.42 2.18314 119.173C0.748853 116.926 -0.00425998 114.376 1.81253e-05 111.781C0.00429623 109.185 0.765815 106.637 2.2075 104.394L60.8482 7.75914C62.2788 5.51439 64.3369 3.65006 66.8157 2.35353C69.2945 1.057 72.1066 0.373955 74.9695 0.373048C77.8323 0.37214 80.645 1.0534 83.1247 2.34836C85.6045 3.64331 87.6641 5.50634 89.0964 7.75019L147.82 104.359C149.249 106.603 150.001 109.148 150 111.738C149.999 114.328 149.245 116.873 147.814 119.116C146.383 121.359 144.325 123.222 141.847 124.517C139.369 125.813 136.558 126.495 133.697 126.496L133.696 126.498ZM1.47465 111.773C1.47465 114.081 14.4243 109.108 15.7657 111.21C18.4494 115.414 10.9749 125.203 16.3387 125.201C16.3387 125.201 143.861 122.65 146.541 118.445C147.858 116.407 148.551 114.089 148.55 111.728C148.549 109.368 147.854 107.05 146.536 105.014L87.8135 8.40499C86.5216 6.35736 84.6512 4.65775 82.394 3.48059C80.1369 2.30344 77.5744 1.69113 74.9695 1.7065C69.6081 1.7065 1.47465 109.467 1.47425 111.776L1.47465 111.773Z" fill="#610C07"/>
<path d="M78.0173 114.026C100.582 114.026 118.874 97.4668 118.874 77.0406C118.874 56.6144 100.582 40.0557 78.0173 40.0557C55.4525 40.0557 37.1602 56.6144 37.1602 77.0406C37.1602 97.4668 55.4525 114.026 78.0173 114.026Z" fill="url(#paint0_linear_76_282)"/>
<path d="M74.7843 86.5354L74.3557 53.8418H81.6439L81.1794 86.5354H74.7843ZM78.0354 100.239C77.4005 100.248 76.7702 100.139 76.1834 99.9198C75.5966 99.7001 75.0658 99.3739 74.6236 98.9613C74.1765 98.5585 73.8217 98.0798 73.5796 97.5525C73.3375 97.0253 73.2129 96.4599 73.2129 95.8889C73.2129 95.318 73.3375 94.7526 73.5796 94.2253C73.8217 93.6981 74.1765 93.2193 74.6236 92.8166C75.0658 92.404 75.5966 92.0778 76.1834 91.8581C76.7702 91.6384 77.4005 91.5299 78.0354 91.5392C78.6679 91.529 79.2958 91.6371 79.8799 91.857C80.4639 92.0768 80.9915 92.4035 81.4294 92.8166C81.8806 93.2192 82.2367 93.7005 82.4762 94.2314C82.7157 94.7623 82.8336 95.3317 82.8227 95.9051C82.8313 96.4734 82.7122 97.0374 82.4727 97.5628C82.2332 98.0882 81.8782 98.5641 81.4294 98.9617C80.9915 99.3748 80.4639 99.7015 79.8799 99.9213C79.2958 100.141 78.6679 100.249 78.0354 100.239V100.239Z" fill="white"/>
<defs>
<linearGradient id="paint0_linear_76_282" x1="72.5172" y1="72.542" x2="104.363" y2="107.7" gradientUnits="userSpaceOnUse">
<stop stop-color="#610C07"/>
<stop offset="1" stop-color="#E61C11"/>
</linearGradient>
</defs>
</svg>
