<svg width="22" height="19" viewBox="0 0 22 19" fill="none" xmlns="http://www.w3.org/2000/svg">
<path d="M2.00021 9.46582L1.22021 8.84082L0.720215 9.46582L1.22021 10.0908L2.00021 9.46582ZM11.0002 10.4658C11.2654 10.4658 11.5198 10.3605 11.7073 10.1729C11.8949 9.98539 12.0002 9.73104 12.0002 9.46582C12.0002 9.2006 11.8949 8.94625 11.7073 8.75871C11.5198 8.57118 11.2654 8.46582 11.0002 8.46582V10.4658ZM5.22021 3.84082L1.22021 8.84082L2.78021 10.0908L6.78022 5.09082L5.22021 3.84082ZM1.22021 10.0908L5.22021 15.0908L6.78022 13.8408L2.78021 8.84082L1.22021 10.0908ZM2.00021 10.4658H11.0002V8.46582H2.00021V10.4658Z" fill="white"/>
<path d="M10 5.59819V4.85519C10 3.23619 10 2.42719 10.474 1.86819C10.948 1.30919 11.746 1.17519 13.342 0.908194L15.014 0.630194C18.257 0.0901943 19.878 -0.179806 20.939 0.718194C22 1.61719 22 3.26119 22 6.54819V12.3832C22 15.6712 22 17.3152 20.94 18.2132C19.878 19.1132 18.257 18.8432 15.014 18.3022L13.342 18.0232C11.746 17.7572 10.948 17.6242 10.474 17.0652C10 16.5052 10 15.6952 10 14.0762V13.5312" stroke="white" stroke-width="2"/>
</svg>
