<svg width="25" height="24" viewBox="0 0 25 24" fill="none" xmlns="http://www.w3.org/2000/svg">
<path d="M20.5403 14.707C20.6801 14.5671 20.7753 14.389 20.8139 14.195C20.8525 14.0011 20.8327 13.8 20.757 13.6173C20.6813 13.4346 20.5532 13.2785 20.3888 13.1686C20.2244 13.0587 20.0311 13 19.8333 13H12.8333V15H17.4193L13.1263 19.293C12.9865 19.4329 12.8913 19.611 12.8527 19.805C12.8142 19.9989 12.834 20.2 12.9096 20.3827C12.9853 20.5654 13.1134 20.7215 13.2779 20.8314C13.4423 20.9413 13.6356 21 13.8333 21H20.8333V19H16.2473L20.5403 14.707ZM7.83331 3.99H5.83331V15.99H2.83331L6.83331 19.99L10.8333 15.99H7.83331V3.99ZM17.8333 3H15.8333C15.4163 3 15.0433 3.259 14.8963 3.649L12.1463 10.982H14.2833L15.0263 9H18.6393L19.3823 10.981H21.5193L18.7693 3.648C18.6977 3.45761 18.5698 3.29359 18.4025 3.17781C18.2353 3.06203 18.0367 3 17.8333 3ZM15.7763 7L16.5263 5H17.1393L17.8893 7H15.7763Z" fill="#495057"/>
</svg>
