<svg width="25" height="24" viewBox="0 0 25 24" fill="none" xmlns="http://www.w3.org/2000/svg">
<path d="M19.907 14.707C20.0468 14.5671 20.142 14.389 20.1805 14.195C20.2191 14.0011 20.1993 13.8 20.1236 13.6173C20.048 13.4346 19.9198 13.2785 19.7554 13.1686C19.591 13.0587 19.3977 13 19.2 13H12.2V15H16.786L12.493 19.293C12.3531 19.4329 12.2579 19.611 12.2194 19.805C12.1808 19.9989 12.2006 20.2 12.2763 20.3827C12.3519 20.5654 12.4801 20.7215 12.6445 20.8314C12.8089 20.9413 13.0022 21 13.2 21H20.2V19H15.614L19.907 14.707ZM7.19995 3.99H5.19995V15.99H2.19995L6.19995 19.99L10.2 15.99H7.19995V3.99ZM17.2 3H15.2C14.783 3 14.41 3.259 14.263 3.649L11.513 10.982H13.65L14.393 9H18.006L18.749 10.981H20.886L18.136 3.648C18.0644 3.45761 17.9364 3.29359 17.7692 3.17781C17.6019 3.06203 17.4034 3 17.2 3ZM15.143 7L15.893 5H16.506L17.256 7H15.143Z" fill="#495057"/>
</svg>
