<svg width="25" height="24" viewBox="0 0 25 24" fill="none" xmlns="http://www.w3.org/2000/svg">
<path d="M14.75 15.75H10.25C9.65326 15.75 9.08097 15.9871 8.65901 16.409C8.23705 16.831 8 17.4033 8 18V19.5H9.5V18C9.5 17.8011 9.57902 17.6103 9.71967 17.4697C9.86032 17.329 10.0511 17.25 10.25 17.25H14.75C14.9489 17.25 15.1397 17.329 15.2803 17.4697C15.421 17.6103 15.5 17.8011 15.5 18V19.5H17V18C17 17.4033 16.7629 16.831 16.341 16.409C15.919 15.9871 15.3467 15.75 14.75 15.75ZM12.5 15C13.0933 15 13.6734 14.8241 14.1667 14.4944C14.6601 14.1648 15.0446 13.6962 15.2716 13.1481C15.4987 12.5999 15.5581 11.9967 15.4424 11.4147C15.3266 10.8328 15.0409 10.2982 14.6213 9.87868C14.2018 9.45912 13.6672 9.1734 13.0853 9.05765C12.5033 8.94189 11.9001 9.0013 11.3519 9.22836C10.8038 9.45543 10.3352 9.83994 10.0056 10.3333C9.67595 10.8266 9.5 11.4067 9.5 12C9.5 12.7957 9.81607 13.5587 10.3787 14.1213C10.9413 14.6839 11.7044 15 12.5 15ZM12.5 10.5C12.7967 10.5 13.0867 10.588 13.3334 10.7528C13.58 10.9176 13.7723 11.1519 13.8858 11.426C13.9994 11.7001 14.0291 12.0017 13.9712 12.2926C13.9133 12.5836 13.7704 12.8509 13.5607 13.0607C13.3509 13.2704 13.0836 13.4133 12.7926 13.4712C12.5017 13.5291 12.2001 13.4994 11.926 13.3858C11.6519 13.2723 11.4176 13.08 11.2528 12.8334C11.088 12.5867 11 12.2967 11 12C11 11.6022 11.158 11.2206 11.4393 10.9393C11.7206 10.658 12.1022 10.5 12.5 10.5Z" fill="#495057"/>
<path d="M19.25 3.75H17V3C17 2.60218 16.842 2.22064 16.5607 1.93934C16.2794 1.65804 15.8978 1.5 15.5 1.5H9.5C9.10218 1.5 8.72064 1.65804 8.43934 1.93934C8.15804 2.22064 8 2.60218 8 3V3.75H5.75C5.35218 3.75 4.97064 3.90804 4.68934 4.18934C4.40804 4.47064 4.25 4.85218 4.25 5.25V21C4.25 21.3978 4.40804 21.7794 4.68934 22.0607C4.97064 22.342 5.35218 22.5 5.75 22.5H19.25C19.6478 22.5 20.0294 22.342 20.3107 22.0607C20.592 21.7794 20.75 21.3978 20.75 21V5.25C20.75 4.85218 20.592 4.47064 20.3107 4.18934C20.0294 3.90804 19.6478 3.75 19.25 3.75ZM9.5 3H15.5V6H9.5V3ZM19.25 21H5.75V5.25H8V7.5H17V5.25H19.25V21Z" fill="#495057"/>
</svg>
