<svg width="194" height="180" viewBox="0 0 194 180" fill="none" xmlns="http://www.w3.org/2000/svg">
<path d="M102.655 0V20.1496H108.902V25.0348L114.174 20.1496H142.252V0H102.655Z" fill="#EBEBEB"/>
<path d="M109.367 12.0905V8.05894C109.367 7.95894 109.41 7.86303 109.486 7.79232C109.562 7.72161 109.666 7.68188 109.774 7.68188H110.82C111.079 7.6834 111.333 7.75119 111.552 7.87778C111.772 8.00437 111.95 8.18482 112.066 8.3992C112.182 8.61358 112.232 8.85353 112.211 9.09256C112.189 9.33158 112.096 9.56036 111.943 9.75361C112.169 9.88644 112.356 10.0699 112.485 10.2872C112.615 10.5044 112.684 10.7484 112.685 10.9966C112.686 11.1891 112.645 11.3797 112.566 11.5576C112.487 11.7356 112.371 11.8973 112.224 12.0336C112.078 12.1698 111.903 12.2779 111.712 12.3517C111.52 12.4255 111.314 12.4634 111.106 12.4634H109.765C109.659 12.4613 109.559 12.4212 109.485 12.3516C109.41 12.282 109.368 12.1884 109.367 12.0905ZM110.185 9.53401H110.82C110.898 9.53293 110.974 9.51771 111.045 9.48922C111.117 9.46073 111.181 9.41953 111.235 9.36797C111.289 9.31642 111.332 9.25551 111.36 9.18873C111.389 9.12195 111.403 9.05061 111.402 8.97879C111.402 8.90789 111.388 8.8376 111.359 8.772C111.33 8.7064 111.287 8.6468 111.233 8.59667C111.179 8.54654 111.114 8.50689 111.043 8.48001C110.973 8.45314 110.897 8.43958 110.82 8.44014H110.185V9.53401ZM110.185 11.7052H111.106C111.299 11.6915 111.478 11.6112 111.609 11.4802C111.74 11.3492 111.813 11.1773 111.813 10.9987C111.813 10.8202 111.74 10.6482 111.609 10.5172C111.478 10.3863 111.299 10.3059 111.106 10.2923H110.185V11.7052Z" fill="white"/>
<path d="M117.975 11.8958C118.009 11.9914 118.001 12.0956 117.952 12.1857C117.904 12.2757 117.819 12.3443 117.716 12.3764C117.663 12.3908 117.609 12.3978 117.555 12.3972C117.453 12.3982 117.354 12.3723 117.268 12.3226C117.171 12.2602 117.09 12.178 117.031 12.0823C116.913 11.8205 116.861 11.537 116.879 11.2536C116.876 11.1501 116.846 11.049 116.79 10.9594C116.731 10.8792 116.655 10.8114 116.566 10.7605C116.44 10.6853 116.301 10.6306 116.155 10.5989H115.287V12.0823C115.285 12.1826 115.24 12.2781 115.162 12.3479C115.084 12.4177 114.98 12.4563 114.872 12.4552C114.818 12.4557 114.766 12.4465 114.716 12.428C114.667 12.4095 114.622 12.3821 114.584 12.3474C114.546 12.3127 114.516 12.2714 114.496 12.2259C114.475 12.1804 114.465 12.1316 114.465 12.0823V8.05896C114.464 8.00929 114.474 7.96001 114.494 7.91401C114.515 7.86802 114.545 7.82623 114.582 7.79111C114.62 7.75598 114.665 7.72823 114.715 7.70948C114.765 7.69073 114.818 7.68135 114.872 7.68191H116.191C116.608 7.68628 117.006 7.84345 117.298 8.11906C117.591 8.39468 117.754 8.76634 117.751 9.15283C117.751 9.36737 117.7 9.5792 117.6 9.77278C117.5 9.96636 117.355 10.1368 117.174 10.2716C117.276 10.3411 117.364 10.4266 117.434 10.5243C117.595 10.7413 117.68 10.9986 117.68 11.2619C117.671 11.4005 117.68 11.5396 117.707 11.6762C117.767 11.6911 117.822 11.7187 117.869 11.7568C117.915 11.7949 117.952 11.8425 117.975 11.8958ZM116.942 9.15283C116.943 9.05964 116.924 8.96715 116.887 8.88073C116.849 8.79431 116.793 8.71568 116.722 8.64939C116.652 8.5831 116.568 8.53048 116.475 8.49456C116.382 8.45864 116.282 8.44015 116.182 8.44016H115.287V9.84894H116.182C116.281 9.84948 116.379 9.83191 116.471 9.79722C116.563 9.76253 116.647 9.71141 116.717 9.64677C116.788 9.58213 116.844 9.50524 116.883 9.42049C116.921 9.33574 116.941 9.24479 116.942 9.15283Z" fill="white"/>
<path d="M122.617 11.3364H120.828L120.466 12.2231C120.436 12.294 120.384 12.355 120.316 12.3978C120.248 12.4407 120.168 12.4636 120.086 12.4634C120.038 12.472 119.99 12.472 119.943 12.4634C119.841 12.4281 119.758 12.3568 119.713 12.2651C119.668 12.1735 119.663 12.069 119.701 11.9745L121.329 7.92636C121.361 7.85455 121.415 7.79345 121.486 7.75125C121.556 7.70904 121.639 7.68774 121.722 7.69018C121.806 7.6874 121.888 7.70862 121.957 7.75093C122.027 7.79323 122.081 7.85453 122.111 7.92636L123.739 11.9538C123.777 12.0483 123.772 12.1528 123.727 12.2444C123.682 12.3361 123.599 12.4073 123.498 12.4427C123.452 12.4517 123.405 12.4517 123.359 12.4427C123.277 12.4444 123.197 12.4221 123.129 12.379C123.062 12.3358 123.011 12.274 122.983 12.2024L122.617 11.3364ZM122.313 10.5865L121.718 9.11553L121.119 10.5865H122.313Z" fill="white"/>
<path d="M126.373 12.0907C126.372 12.1885 126.329 12.2822 126.255 12.3518C126.181 12.4213 126.08 12.4614 125.975 12.4636C125.922 12.4641 125.869 12.4549 125.819 12.4364C125.77 12.4179 125.725 12.3905 125.687 12.3558C125.649 12.3212 125.619 12.2799 125.599 12.2344C125.578 12.1888 125.568 12.14 125.568 12.0907V8.11297C125.565 8.0523 125.578 7.9919 125.606 7.93702C125.634 7.88214 125.676 7.83444 125.729 7.79806C125.816 7.74067 125.923 7.71719 126.029 7.73269C126.134 7.74819 126.229 7.80143 126.292 7.88093L128.671 10.9347V8.12125C128.672 8.02378 128.715 7.93061 128.789 7.86169C128.863 7.79276 128.964 7.75356 129.069 7.75248C129.176 7.75246 129.278 7.79105 129.354 7.85998C129.43 7.92891 129.474 8.02269 129.476 8.12125V12.0907C129.475 12.19 129.432 12.2848 129.355 12.3546C129.279 12.4244 129.176 12.4636 129.069 12.4636C129.011 12.4628 128.955 12.4502 128.903 12.4265C128.851 12.4029 128.805 12.3688 128.77 12.3269C128.753 12.3163 128.739 12.3021 128.729 12.2854L126.373 9.25242V12.0907Z" fill="white"/>
<path d="M131.69 12.0905V8.05896C131.689 8.00929 131.699 7.96001 131.719 7.91401C131.74 7.86802 131.77 7.82623 131.808 7.79111C131.845 7.75598 131.891 7.72823 131.94 7.70948C131.99 7.69073 132.043 7.68135 132.097 7.68191H132.955C133.64 7.68191 134.296 7.93379 134.78 8.38215C135.264 8.83051 135.535 9.43861 135.535 10.0727C135.535 10.7068 135.264 11.3149 134.78 11.7632C134.296 12.2116 133.64 12.4635 132.955 12.4635H132.083C131.978 12.4613 131.878 12.421 131.804 12.3513C131.731 12.2816 131.69 12.188 131.69 12.0905ZM132.508 11.7052H132.955C133.422 11.7052 133.871 11.5332 134.201 11.227C134.531 10.9209 134.717 10.5057 134.717 10.0727C134.717 9.63971 134.531 9.22447 134.201 8.91831C133.871 8.61216 133.422 8.44016 132.955 8.44016H132.508V11.7052Z" fill="white"/>
<path d="M99.8869 179.652V136.531H113.257V126.081L124.535 136.531H184.612V179.652H99.8869Z" fill="white"/>
<path d="M99.8869 179.652C99.8422 179.238 99.6589 136.688 99.6276 136.291H99.8869L113.257 136.249L112.949 136.531L112.909 126.065V125.286L113.508 125.837L124.817 136.262C123.359 135.947 184.939 136.224 184.617 136.108H185.064V136.523L185.01 179.644V180H184.626C163.506 179.93 121.016 179.776 99.9003 179.648L99.8869 179.652ZM99.8869 179.652C121.002 179.519 163.506 179.366 184.612 179.296L184.232 179.652L184.179 136.531L184.626 136.945L124.392 136.9L124.276 136.792L113.011 126.309L113.602 126.081L113.561 136.531V136.838H113.28L99.9093 136.792L100.173 136.552L99.9093 179.673L99.8869 179.652Z" fill="#EBEBEB"/>
<path d="M162.926 161.168C164.755 160.236 165.421 158.107 164.415 156.413C163.409 154.719 161.112 154.101 159.283 155.033C157.455 155.965 156.788 158.094 157.794 159.788C158.8 161.483 161.098 162.1 162.926 161.168Z" fill="#EBEBEB"/>
<path d="M143.677 161.347C145.608 160.613 146.531 158.568 145.739 156.779C144.947 154.99 142.74 154.134 140.81 154.868C138.879 155.602 137.955 157.647 138.747 159.436C139.539 161.225 141.746 162.08 143.677 161.347Z" fill="#EBEBEB"/>
<path d="M123.835 161.58C125.906 161.344 127.38 159.598 127.126 157.678C126.872 155.759 124.987 154.394 122.915 154.629C120.844 154.865 119.371 156.611 119.625 158.531C119.879 160.45 121.764 161.815 123.835 161.58Z" fill="#EBEBEB"/>
<path d="M32.6483 59.669C43.2148 56.2633 48.755 45.4427 45.0227 35.5005C41.2904 25.5583 29.6989 20.2595 19.1324 23.6652C8.56586 27.0709 3.02564 37.8915 6.75795 47.8337C10.4903 57.7759 22.0818 63.0747 32.6483 59.669Z" fill="#EBEBEB"/>
<path d="M10.0638 41.4263C10.0056 49.6221 17.0441 56.3759 25.7863 56.5085C27.8723 56.5343 29.9429 56.1756 31.8779 55.4531C33.8129 54.7306 35.5735 53.6588 37.0573 52.3001C38.5412 50.9413 39.7187 49.3228 40.5212 47.5385C41.3238 45.7543 41.7355 43.84 41.7324 41.907C41.7905 33.7071 34.7476 26.9574 26.0099 26.8248C23.9239 26.799 21.8532 27.1577 19.9182 27.8802C17.9833 28.6027 16.2227 29.6745 14.7388 31.0332C13.255 32.392 12.0775 34.0105 11.2749 35.7948C10.4723 37.579 10.0606 39.4933 10.0638 41.4263Z" fill="white"/>
<path d="M14.4819 41.4927C14.4527 44.321 15.6252 47.0464 17.746 49.0806C19.8669 51.1148 22.7661 52.2945 25.8176 52.3651C27.3207 52.3827 28.8126 52.1232 30.2065 51.6017C31.6004 51.0802 32.8685 50.3071 33.937 49.3274C35.0056 48.3478 35.8532 47.181 36.4307 45.895C37.0082 44.609 37.304 43.2295 37.301 41.8366C37.3301 39.0083 36.1576 36.2829 34.0368 34.2487C31.9159 32.2145 29.0167 31.0347 25.9652 30.9642C24.4622 30.9471 22.9706 31.207 21.577 31.7287C20.1834 32.2504 18.9156 33.0235 17.8471 34.0031C16.7787 34.9827 15.931 36.1492 15.3533 37.4349C14.7756 38.7207 14.4794 40.1 14.4819 41.4927Z" fill="#EBEBEB"/>
<path d="M18.9267 41.5591C18.9038 43.2831 19.6154 44.946 20.9071 46.1871C22.1987 47.4281 23.9664 48.1473 25.8266 48.1886C26.7417 48.1991 27.65 48.0409 28.4986 47.7233C29.3473 47.4058 30.1193 46.9351 30.77 46.3388C31.4207 45.7424 31.937 45.0322 32.289 44.2494C32.641 43.4665 32.8216 42.6267 32.8203 41.7787C32.8421 40.055 32.1301 38.3927 30.8387 37.1519C29.5473 35.9111 27.7803 35.1915 25.9205 35.1492C25.0053 35.1387 24.0971 35.2969 23.2484 35.6145C22.3998 35.932 21.6277 36.4026 20.977 36.999C20.3264 37.5954 19.81 38.3056 19.4581 39.0884C19.1061 39.8712 18.9255 40.7111 18.9267 41.5591Z" fill="white"/>
<path d="M22.7992 41.6168C22.7849 42.3854 23.1004 43.1278 23.6764 43.681C24.2524 44.2341 25.0419 44.5528 25.8713 44.567C26.2802 44.5736 26.6864 44.5046 27.0662 44.364C27.4459 44.2235 27.7917 44.0142 28.0831 43.7484C28.3746 43.4825 28.6059 43.1656 28.7636 42.8159C28.9213 42.4663 29.0021 42.0911 29.0015 41.7121C29.0147 40.9443 28.6986 40.2029 28.1227 39.6507C27.5468 39.0984 26.7581 38.7803 25.9294 38.7661C25.5208 38.759 25.1147 38.8274 24.7349 38.9675C24.3552 39.1076 24.0094 39.3166 23.7179 39.582C23.4264 39.8475 23.195 40.1642 23.0372 40.5136C22.8795 40.863 22.7986 41.2381 22.7992 41.6168Z" fill="#EBEBEB"/>
<path d="M26.0546 41.7288L47.2952 31.3784L47.1342 31.0925L25.8892 41.4429L26.0546 41.7288Z" fill="#EBEBEB"/>
<path d="M48.5517 31.8797L48.4712 31.8548L47.1118 31.4654L49.7948 30.1643L51.2481 30.5745L48.5517 31.8797Z" fill="#EBEBEB"/>
<path d="M50.1168 28.5691L49.6339 29.8784L46.9509 31.1795C47.1613 30.7623 47.3203 30.3245 47.4249 29.8743L50.1168 28.5691Z" fill="#EBEBEB"/>
<path d="M25.2408 41.3434L25.7997 42.2757L27.2933 42.1596L26.314 41.418L26.2156 40.2495L25.2408 41.3434Z" fill="#EBEBEB"/>
<path d="M41.9812 138.852L10.7619 149.518L18.0622 167.864L49.2815 157.197L41.9812 138.852Z" fill="#EBEBEB"/>
<path d="M41.9918 138.843C41.1734 140.393 40.3149 141.901 39.4831 143.434C38.6514 144.967 37.7749 146.463 36.9074 147.967C36.0131 149.536 35.1038 151.099 34.1797 152.657L34.0992 152.802L31.6532 156.946L31.528 157.141L31.3044 157.066L26.5599 155.409L26.39 155.351C24.6013 154.721 22.8126 154.083 21.0239 153.424C19.3277 152.78 17.618 152.138 15.8949 151.497C14.1867 150.83 12.4785 150.2 10.7703 149.512C12.4919 150.014 14.2091 150.565 15.9262 151.095C17.6433 151.626 19.3694 152.189 21.0865 152.753C22.996 153.378 24.9143 154.016 26.8282 154.671L31.1345 156.134C31.8768 154.891 32.6235 153.648 33.3703 152.434C34.372 150.776 35.3736 149.152 36.3932 147.519C37.2875 146.061 38.2176 144.619 39.1478 143.161C40.0779 141.702 41.0303 140.26 41.9918 138.843Z" fill="white"/>
<path d="M27.0429 155.069C27.0367 155.085 27.0276 155.101 27.0161 155.114L26.6807 155.67C26.1381 156.548 25.5717 157.41 24.9814 158.255C24.266 159.299 23.5192 160.327 22.7456 161.338C21.972 162.349 21.2073 163.352 20.4024 164.338C19.5975 165.324 18.7747 166.298 17.8983 167.238C18.5377 166.144 19.2398 165.092 19.9508 164.052C20.6618 163.012 21.422 161.98 22.1866 160.969C22.9513 159.958 23.7249 158.951 24.5298 157.965C25.1737 157.178 25.8311 156.395 26.5197 155.636C26.6777 155.462 26.8387 155.288 27.0026 155.114C27.0026 155.114 27.0339 155.094 27.0429 155.069Z" fill="white"/>
<path d="M48.9855 156.627C47.644 156.444 46.3472 156.212 45.0459 155.931C43.7447 155.649 42.4523 155.363 41.16 155.061C39.8677 154.758 38.5888 154.414 37.3144 154.05C36.2769 153.759 35.2395 153.453 34.2199 153.105L33.5671 152.885L33.5179 152.865H33.5715L34.3094 152.976C35.3647 153.138 36.4111 153.341 37.4396 153.552C38.7408 153.817 40.0332 154.116 41.321 154.427C42.6089 154.737 43.8967 155.069 45.1711 155.433C46.4456 155.798 47.7334 156.179 48.9855 156.627Z" fill="white"/>
<path d="M158.814 61.7487L155.393 81.043L188.227 86.0414L191.648 66.7471L158.814 61.7487Z" fill="#EBEBEB"/>
<path d="M191.642 66.7387C190.108 67.7124 188.556 68.6323 187.014 69.5853C185.471 70.5383 183.915 71.4374 182.363 72.3531C180.741 73.3061 179.117 74.248 177.489 75.1789C177.441 75.2117 177.392 75.2421 177.341 75.2701C175.906 76.0988 174.461 76.9275 173.022 77.7562L172.807 77.8722L172.65 77.7023C171.568 76.4979 170.489 75.2908 169.413 74.0809C169.372 74.0408 169.335 73.9979 169.301 73.9525C168.076 72.5851 166.864 71.2137 165.657 69.809C164.503 68.4914 163.354 67.1531 162.205 65.8189C161.055 64.4847 159.924 63.1256 158.806 61.75C160.036 62.993 161.234 64.2361 162.446 65.4791C163.658 66.7221 164.856 68.0066 166.046 69.2869C167.378 70.6985 168.703 72.1294 170.021 73.5796L172.986 76.8239C174.292 76.0905 175.602 75.3488 176.907 74.6279C178.656 73.6541 180.4 72.6846 182.157 71.7274C183.727 70.878 185.287 70.0286 186.875 69.1958C188.462 68.363 190.05 67.5301 191.642 66.7387Z" fill="white"/>
<path d="M169.994 74.0229L169.945 74.052L169.359 74.3793C168.42 74.8972 167.468 75.3862 166.502 75.8544C165.326 76.4344 164.132 76.9814 162.925 77.5117C161.717 78.0421 160.519 78.5559 159.294 79.0448C158.068 79.5337 156.834 80.0102 155.569 80.4204C156.709 79.7658 157.876 79.1774 159.052 78.5932C160.228 78.009 161.431 77.4662 162.629 76.9358C163.828 76.4054 165.044 75.8834 166.269 75.3944C167.244 75.005 168.237 74.6238 169.239 74.2798L169.936 74.0437L169.994 74.0229Z" fill="white"/>
<path d="M188.252 85.4048C187.197 84.6383 186.186 83.822 185.198 82.9975C184.21 82.1729 183.244 81.3194 182.283 80.4658C181.321 79.6123 180.387 78.7256 179.47 77.8264C178.723 77.0972 177.99 76.3555 177.288 75.589L176.84 75.1L176.805 75.0586L176.854 75.0917C177.051 75.2368 177.243 75.3776 177.431 75.5268C178.262 76.1483 179.063 76.803 179.859 77.4618C180.852 78.2905 181.817 79.1399 182.774 79.9976C183.731 80.8553 184.666 81.7378 185.583 82.637C186.499 83.5361 187.398 84.4435 188.252 85.4048Z" fill="white"/>
<path d="M59.5834 178.451L74.0136 176.798L68.8443 138.081L50.5864 140.173L59.5834 178.451Z" fill="#2D2264"/>
<path d="M50.5908 140.173L54.0161 154.775L59.5879 178.455L74.0181 176.802L68.8488 138.081L50.5908 140.173Z" fill="#2D2264"/>
<path opacity="0.2" d="M50.5908 140.173L54.0161 154.775L59.5879 178.455L74.0181 176.802L68.8488 138.081L50.5908 140.173Z" fill="white"/>
<path opacity="0.1" d="M50.5908 140.173L52.849 149.803L70.4228 149.873L68.8488 138.081L50.5908 140.173Z" fill="black"/>
<path d="M49.5693 146.293L72.2869 143.689L70.1524 127.697L47.4349 130.301L49.5693 146.293Z" fill="#2D2264"/>
<path opacity="0.2" d="M49.5693 146.293L72.2869 143.689L70.1524 127.697L47.4349 130.301L49.5693 146.293Z" fill="black"/>
<path d="M31.443 126.206L49.3075 125.816L45.8553 99.9404L28.4246 103.595L31.443 126.206Z" fill="#2D2264"/>
<g opacity="0.2">
<path d="M31.443 126.206L49.3075 125.816L45.8553 99.9404L28.4246 103.595L31.443 126.206Z" fill="white"/>
</g>
<path d="M54.2487 93.7749L59.342 131.961L89.3918 131.857L161.373 147.433L149.129 55.7297L83.4176 87.0957L54.2487 93.7749Z" fill="#2D2264"/>
<path opacity="0.2" d="M54.2487 93.7749L59.342 131.961L89.3918 131.857L161.373 147.433L149.129 55.7297L83.4176 87.0957L54.2487 93.7749Z" fill="white"/>
<path opacity="0.1" d="M161.373 147.441L89.3962 131.866L59.3464 131.973L58.0362 122.166C66.9215 122.957 90.2325 125.021 90.7109 125.17L161.373 147.441Z" fill="black"/>
<path d="M163.007 147.48C171.835 146.468 176.238 125.017 172.842 99.5678C169.445 74.1182 159.534 54.3074 150.706 55.3191C141.878 56.3308 137.474 77.7818 140.871 103.231C144.268 128.681 154.178 148.492 163.007 147.48Z" fill="#2D2264"/>
<path opacity="0.2" d="M144.488 102.033C147.506 124.627 155.81 142.27 163.036 141.441C170.263 140.613 173.679 121.627 170.665 99.033C167.651 76.4388 159.338 58.7794 152.116 59.6039C144.895 60.4285 141.474 79.4221 144.488 102.033Z" fill="black"/>
<path d="M146.621 101.772C147.023 104.78 147.515 107.697 148.101 110.494C149.695 111.419 151.539 111.907 153.421 111.901C155.302 111.894 157.143 111.393 158.729 110.456C160.315 109.519 161.582 108.184 162.382 106.607C163.183 105.029 163.484 103.274 163.251 101.544L162.674 97.2181C162.449 95.4924 161.702 93.861 160.519 92.5122C159.335 91.1634 157.764 90.1524 155.987 89.596C154.21 89.0396 152.299 88.9605 150.476 89.3678C148.652 89.7751 146.99 90.6523 145.682 91.8979C145.856 95.0759 146.169 98.3865 146.621 101.772Z" fill="#2D2264"/>
<path opacity="0.2" d="M146.621 101.772C147.023 104.78 147.515 107.697 148.101 110.494C149.695 111.419 151.539 111.907 153.421 111.901C155.302 111.894 157.143 111.393 158.729 110.456C160.315 109.519 161.582 108.184 162.382 106.607C163.183 105.029 163.484 103.274 163.251 101.544L162.674 97.2181C162.449 95.4924 161.702 93.861 160.519 92.5122C159.335 91.1634 157.764 90.1524 155.987 89.596C154.21 89.0396 152.299 88.9605 150.476 89.3678C148.652 89.7751 146.99 90.6523 145.682 91.8979C145.856 95.0759 146.169 98.3865 146.621 101.772Z" fill="white"/>
<path d="M43.6552 135.91L78.2036 135.156L71.5229 85.1152L37.8196 92.1881L43.6552 135.91Z" fill="#2D2264"/>
<g opacity="0.1">
<path d="M43.6552 135.91L78.2036 135.156L71.5229 85.1152L37.8196 92.1881L43.6552 135.91Z" fill="black"/>
</g>
<path opacity="0.2" d="M145.758 58.9409C143.423 62.0692 142.238 65.7942 141.259 69.4612C140.364 73.1684 139.789 76.9356 139.537 80.7272C139.354 82.6208 139.354 84.5185 139.283 86.4162C139.327 88.3139 139.309 90.2116 139.399 92.1051C139.488 93.9987 139.578 95.8964 139.766 97.7858C139.953 99.6752 140.11 101.565 140.342 103.45C141.331 110.97 142.775 118.474 145.225 125.729C146.431 129.363 147.982 132.89 149.858 136.27C151.835 139.585 154.115 142.862 157.415 145.141C154.285 142.68 152.157 139.382 150.372 136.026C148.616 132.633 147.183 129.104 146.089 125.481C143.881 118.228 142.349 110.813 141.51 103.317C140.553 95.8591 140.034 88.289 140.432 80.7728C140.578 77.0159 141.042 73.2754 141.818 69.5855C142.601 65.9102 143.651 62.206 145.758 58.9409Z" fill="black"/>
<path d="M104.399 57.8885C103.437 62.757 96.56 63.8053 95.5091 62.7612C91.2431 58.539 86.7133 50.3308 81.8078 41.1655C77.9711 34.0056 80.4395 33.7777 83.7754 35.6878C91.5338 40.1338 104.918 55.274 104.399 57.8885Z" fill="#2D2264"/>
<path opacity="0.1" d="M104.399 57.8924C103.437 62.7568 96.5644 63.8051 95.5091 62.761C91.2431 58.5388 86.7178 50.3306 81.8078 41.1653C79.9521 37.6972 79.496 35.526 80.2248 34.8838L104.301 56.9228C104.409 57.2355 104.443 57.5664 104.399 57.8924Z" fill="black"/>
<path d="M92.7098 58.1328C91.7618 55.0418 94.5477 50.3887 101.009 39.1516C101.904 37.5937 115.435 41.7537 114.572 43.4608C113.485 45.6071 107.82 53.6662 106.711 54.7642C101.295 60.1341 93.3582 60.2253 92.7098 58.1328Z" fill="#EB9481"/>
<path d="M109.541 47.6749C109.541 47.6749 114.344 45.9678 117.425 44.7165C119.142 44.0163 121.977 42.5744 122.988 41.5261C124.499 39.9557 129.735 32.5016 127.808 31.2876C126.069 30.1854 122.442 37.1216 122.442 37.1216C122.442 37.1216 126.766 30.4216 124.405 29.4562C122.044 28.4907 119.093 36.8274 119.093 36.8274C119.093 36.8274 123.368 29.8539 120.761 29.2117C118.789 28.7269 115.641 36.152 115.641 36.152C115.641 36.152 119.267 30.1357 117.268 29.5556C115.059 28.9134 111.692 35.5885 111.692 35.5885C106.326 34.909 102.203 37.2459 100.714 39.6781C100.428 40.1421 109.541 47.6749 109.541 47.6749Z" fill="#EB9481"/>
<path d="M121.329 39.2056C124.906 34.4945 125.121 31.1673 125.098 31.2544C124.513 33.3261 122.907 36.2265 122.442 37.0552C121.977 37.8839 121.758 38.3728 121.297 39.1849C121.262 39.2098 121.293 39.2222 121.329 39.2056Z" fill="#263238"/>
<path d="M117.921 38.033C119.465 36.1877 120.643 34.1029 121.4 31.8759C121.4 31.7889 121.378 31.8013 121.333 31.8759C120.774 32.92 118.503 36.993 117.894 38.0123C117.886 38.0372 117.908 38.0455 117.921 38.033Z" fill="#263238"/>
<path d="M114.93 37.2043C116.096 35.752 116.959 34.1106 117.474 32.3647C117.501 32.2818 117.429 32.3026 117.389 32.3647C116.58 33.9848 115.954 35.2651 114.876 37.1504C114.858 37.2001 114.907 37.2374 114.93 37.2043Z" fill="#263238"/>
<path d="M111.634 49.4937L97.2575 43.1045C97.2575 43.1045 90.4739 55.8829 92.048 58.7046C92.7545 59.9476 95.2229 63.2417 97.9953 63.3287C104.368 63.5317 111.634 49.4937 111.634 49.4937Z" fill="#2D2264"/>
<path d="M96.4258 46.4276C98.0178 47.2024 99.6455 47.8985 101.278 48.5905C102.91 49.2824 104.546 49.9785 106.197 50.6332C107.131 51.0019 108.061 51.379 109.009 51.7188C109.036 51.7188 109.054 51.6898 109.032 51.6773C107.444 50.9025 105.812 50.1981 104.189 49.4979C102.565 48.7976 100.92 48.1098 99.2698 47.4261C98.3397 47.0491 97.4051 46.6845 96.4571 46.3447C96.4214 46.3364 96.3811 46.4027 96.4258 46.4276Z" fill="#263238"/>
<path d="M97.4364 43.0838C97.2977 42.9926 97.0965 42.8808 97.0786 42.9139C96.6315 43.7426 96.2424 44.6666 95.8713 45.5284C95.5001 46.3903 95.1603 47.2355 94.8294 48.0974C94.6505 48.5614 94.4806 49.0297 94.3285 49.4979C93.903 50.0287 93.589 50.6288 93.4029 51.2671C93.4029 51.3003 93.4521 51.3168 93.461 51.2671C93.6517 50.7039 93.924 50.1673 94.2704 49.6719C93.8819 50.8184 93.6829 52.0128 93.6801 53.2145C93.6801 51.4204 94.5253 49.6843 95.1692 48.0269C95.4912 47.1983 95.8355 46.3696 96.1798 45.5409C96.5241 44.7122 96.9087 43.9083 97.2441 43.0838L97.4319 43.1667C97.4766 43.1957 97.4632 43.1045 97.4364 43.0838Z" fill="#263238"/>
<path d="M81.5842 35.2983C84.2672 36.8107 89.043 43.4527 91.337 51.3377C91.9156 53.5454 92.3738 55.7788 92.7098 58.0293C94.0513 66.2665 95.84 75.5023 96.0233 78.5767C96.2514 82.6746 88.5422 89.7889 84.7502 88.9022C80.9582 88.0155 74.7157 89.5362 81.3606 66.1795C83.1046 60.0431 85.0498 46.5893 82.8452 39.2056C82.4966 37.8842 82.0757 36.5801 81.5842 35.2983Z" fill="#2D2264"/>
<path d="M121.069 136.705C119.831 136.461 90.1878 120.289 89.4768 119.009C89.204 118.524 91.498 114.389 94.3956 109.479C95.0261 108.414 95.6835 107.32 96.3587 106.209C100.732 99.0081 105.557 91.4587 105.557 91.4587L125.42 102.232L115.676 116.688L113.561 119.85C113.561 119.85 121.923 130.747 122.536 132.226C123.149 133.705 122.312 136.95 121.069 136.705Z" fill="#EB9481"/>
<path d="M121.069 136.705C119.831 136.461 90.1878 120.289 89.4768 119.009C89.2398 118.594 90.9927 115.317 93.4119 111.169C94.5656 112.802 111.777 126.599 117.483 127.917C119.813 128.456 116.2 123.326 116.048 123.106C118.561 126.442 122.134 131.253 122.527 132.201C123.149 133.689 122.313 136.95 121.069 136.705Z" fill="#263238"/>
<path d="M116.383 123.533C116.383 123.533 113.794 121.412 108.821 123.272L116.383 123.533Z" fill="#263238"/>
<path d="M138.558 79.4219C136.694 87.9988 117.358 116.634 117.358 116.634L96.1575 104.755L110.404 84.1868C110.404 84.1868 81.3383 87.4187 70.2843 83.1054C58.4611 78.502 60.1827 65.3797 60.1827 65.3797L88.9581 62.21C88.9581 62.21 89.7227 64.7168 92.9558 64.4889C104.099 63.685 119.299 64.0745 125.152 64.6629C132.7 65.4253 140.271 71.5535 138.558 79.4219Z" fill="#37474F"/>
<path d="M116.982 77.0022C116.312 77.6146 115.683 78.265 115.1 78.9497C114.456 79.6333 113.803 80.3087 113.154 80.9924V81.0131L113.517 80.3999C113.964 79.7038 114.299 78.9828 114.791 78.3281C114.818 78.2867 114.755 78.2411 114.724 78.2826C114.219 78.9331 113.646 79.5256 113.204 80.2383C112.998 80.5656 112.797 80.8971 112.613 81.2327C112.51 81.415 112.403 81.6015 112.309 81.7879C112.269 81.8749 112.215 81.9661 112.184 82.0573C111.893 82.3763 111.607 82.6953 111.325 83.0227C110.708 83.7436 110.149 84.5143 109.537 85.2311C109.501 85.2684 109.568 85.3099 109.604 85.2726C110.234 84.6013 110.945 83.984 111.571 83.321C112.197 82.6581 112.841 81.9454 113.458 81.2493C114.076 80.5532 114.643 79.8654 115.247 79.1776C115.899 78.5047 116.506 77.7948 117.063 77.052C117.04 77.0147 117.009 76.9815 116.982 77.0022Z" fill="#263238"/>
<path d="M118.722 112.023C118.167 111.633 117.577 111.277 117 110.916C116.423 110.556 115.86 110.2 115.283 109.847C114.111 109.126 112.922 108.422 111.732 107.718C109.349 106.301 106.948 104.913 104.542 103.524C103.2 102.745 101.832 101.991 100.477 101.221C100.455 101.221 100.419 101.246 100.446 101.258C102.747 102.725 105.064 104.174 107.395 105.604C109.726 107.035 112.111 108.447 114.55 109.839C115.22 110.22 115.896 110.596 116.575 110.966C117.264 111.339 117.953 111.737 118.664 112.072C118.708 112.089 118.749 112.043 118.722 112.023Z" fill="#263238"/>
<path d="M64.1401 66.2043C63.8525 69.6955 65.0155 73.1565 67.3911 75.8793C68.5882 77.2027 70.0505 78.2988 71.6973 79.1071C73.358 79.8907 75.1418 80.4263 76.9829 80.694C80.6683 81.2727 84.3975 81.5789 88.1353 81.6097C91.8766 81.6705 95.615 81.5669 99.3503 81.299C103.081 81.0687 106.793 80.6189 110.463 79.9523C111.357 79.7742 112.287 79.5794 113.181 79.3474C113.628 79.2272 114.076 79.1029 114.523 78.9662C114.966 78.797 115.428 78.672 115.9 78.5933C116.156 78.555 116.418 78.5663 116.669 78.6264C116.811 78.6632 116.939 78.7333 117.043 78.8299C117.146 78.9264 117.221 79.0462 117.26 79.1775C117.294 79.2977 117.309 79.422 117.304 79.5463C117.297 79.6721 117.265 79.7956 117.21 79.9109C117.121 80.1264 117.018 80.3252 116.911 80.52C116.464 81.2948 115.994 82.0448 115.516 82.7906C111.616 88.7282 107.44 94.4959 103.254 100.255C105.296 97.3438 107.32 94.4227 109.327 91.4919C111.335 88.5624 113.351 85.6289 115.247 82.6456C115.717 81.8956 116.186 81.1456 116.589 80.3791C116.692 80.1844 116.794 79.9938 116.875 79.799C116.914 79.7164 116.936 79.628 116.942 79.538C116.948 79.4459 116.938 79.3534 116.911 79.2645C116.826 78.9165 116.356 78.8502 115.927 78.9123C115.478 78.9915 115.039 79.1137 114.617 79.2769C114.17 79.4178 113.722 79.5463 113.275 79.6664C112.381 79.9026 111.451 80.0808 110.534 80.2838C106.843 80.9662 103.109 81.4298 99.3548 81.6719C95.6135 81.9232 91.8632 82.0144 88.104 81.9453C84.3458 81.9113 80.5974 81.5856 76.8979 80.9716C75.0645 80.6153 73.1998 80.1926 71.5319 79.3142C69.8666 78.482 68.393 77.3559 67.1943 75.9995C66.0312 74.6279 65.1766 73.0541 64.6812 71.3712C64.1579 69.6947 63.9745 67.9428 64.1401 66.2043Z" fill="#263238"/>
<path d="M93.6042 138.628C92.446 138.151 67.087 116.614 66.6801 115.225C66.5236 114.699 69.6895 111.082 73.6559 106.839C74.51 105.919 75.3999 104.975 76.3121 104.022C82.2058 97.8064 88.6227 91.3674 88.6227 91.3674L105.615 105.729L92.844 117.989L90.0268 120.678C90.0268 120.678 95.7551 132.947 96.0234 134.513C96.2917 136.079 94.7534 139.104 93.6042 138.628Z" fill="#EB9481"/>
<path d="M93.6042 138.628C92.4505 138.151 67.0914 116.614 66.6845 115.226C66.5459 114.762 68.9919 111.911 72.292 108.314C73.0522 110.133 86.7848 126.96 92.0659 129.338C94.2302 130.316 91.8468 124.602 91.7439 124.366C93.4521 128.095 95.8668 133.511 96.0368 134.514C96.2872 136.08 94.7534 139.109 93.6042 138.628Z" fill="#263238"/>
<path d="M91.9675 124.822C91.9675 124.822 89.915 122.249 84.6295 123.111L91.9675 124.822Z" fill="#263238"/>
<path d="M125.639 81.4231C123.775 90.0001 98.93 113.535 96.0591 116.228L95.3928 116.85L77.345 102.095L77.5865 101.846L91.2744 87.8828C91.2744 87.8828 70.1948 94.5123 61.1664 82.4217C57.5891 77.6194 60.1692 65.3797 60.1692 65.3797L83.2879 62.9226C83.2879 62.9226 83.6814 66.5896 86.9145 66.3575C98.0624 65.5537 106.823 64.7913 112.676 65.3797C120.238 66.1421 127.352 73.5547 125.639 81.4231Z" fill="#37474F"/>
<path d="M87.5584 66.3121C94.7131 65.6781 101.913 65.1271 109.13 65.1353C110.024 65.1353 110.919 65.1643 111.84 65.2182C112.749 65.2575 113.654 65.3628 114.545 65.5331C114.99 65.6393 115.425 65.7779 115.846 65.9475C116.267 66.1091 116.683 66.2789 117.09 66.4695C117.904 66.8441 118.688 67.2748 119.433 67.7582C120.938 68.7149 122.263 69.895 123.354 71.2511C124.447 72.6131 125.237 74.1622 125.68 75.8089C125.896 76.6324 126.026 77.4732 126.069 78.3198C126.069 78.5311 126.069 78.7342 126.069 78.9538C126.069 79.1734 126.069 79.3681 126.069 79.5919C126.029 80.0102 125.959 80.4255 125.859 80.8349C125.403 82.4664 124.724 84.0372 123.837 85.5087C122.087 88.4377 120.085 91.2311 117.85 93.8619C115.65 96.5096 113.329 99.0661 110.945 101.569C108.562 104.071 106.085 106.499 103.585 108.903C106.035 106.458 108.455 103.984 110.798 101.444C113.141 98.9045 115.439 96.348 117.604 93.6838C119.801 91.0484 121.777 88.2614 123.515 85.3471C124.381 83.8999 125.042 82.3556 125.483 80.752C125.579 80.3536 125.645 79.9492 125.68 79.5421C125.705 79.1281 125.705 78.7131 125.68 78.2991C125.637 77.4774 125.508 76.6614 125.295 75.8628C124.874 74.2612 124.114 72.7529 123.059 71.4251C122 70.0951 120.709 68.9371 119.24 67.9985C118.511 67.5223 117.744 67.0971 116.946 66.7264C116.548 66.54 116.146 66.3701 115.73 66.2126C115.327 66.0437 114.91 65.9051 114.483 65.7983C113.61 65.6298 112.725 65.5218 111.835 65.4751C110.941 65.4171 110.047 65.3881 109.152 65.3715C105.575 65.3177 101.957 65.4503 98.362 65.616C94.7668 65.7817 91.1447 66.0428 87.5584 66.3121Z" fill="#263238"/>
<path d="M98.7288 79.6209C98.0587 80.231 97.4313 80.88 96.8506 81.5642C96.2022 82.2479 95.5494 82.9233 94.9055 83.6069V83.6277C95.0262 83.4246 95.1425 83.2133 95.2677 83.0144C95.6925 82.3225 96.0457 81.6015 96.5376 80.9427C96.5441 80.9345 96.5469 80.9242 96.5452 80.9141C96.5435 80.9039 96.5376 80.8949 96.5287 80.8888C96.5198 80.8828 96.5087 80.8803 96.4978 80.8818C96.4869 80.8834 96.4771 80.8889 96.4706 80.8971C95.9697 81.5518 95.3929 82.165 94.9502 82.857C94.7445 83.1802 94.5477 83.5116 94.3599 83.8473C94.2571 84.0337 94.1542 84.216 94.0603 84.4025C94.0117 84.4914 93.9684 84.5827 93.9306 84.676C93.64 84.9909 93.3538 85.314 93.0765 85.6372C92.455 86.3582 91.896 87.1289 91.2878 87.8457C91.2565 87.883 91.3236 87.9244 91.3549 87.8871C91.9854 87.22 92.6964 86.6027 93.3225 85.9356C93.9485 85.2685 94.5969 84.5599 95.2095 83.8638C95.8222 83.1677 96.399 82.4841 96.9982 81.7921C97.648 81.1169 98.2528 80.4057 98.8092 79.6624C98.7914 79.6334 98.7556 79.5961 98.7288 79.6209Z" fill="#263238"/>
<path d="M97.7137 112.963C97.2397 112.491 96.7165 112.048 96.2156 111.6C95.7148 111.153 95.2229 110.718 94.7176 110.282C93.6936 109.387 92.6472 108.509 91.5874 107.626C89.4991 105.861 87.3795 104.117 85.26 102.373C84.075 101.395 82.8676 100.438 81.6826 99.4722C81.6602 99.4722 81.62 99.4722 81.6424 99.5053C83.6457 101.309 85.6669 103.098 87.706 104.871C89.7451 106.644 91.8438 108.41 94.0021 110.166C94.5924 110.647 95.1916 111.119 95.7908 111.592C96.39 112.064 97.0071 112.565 97.6466 113.009C97.6913 113.025 97.736 112.988 97.7137 112.963Z" fill="#263238"/>
<path d="M63.3173 66.5608C62.9009 68.4337 62.7505 70.349 62.8702 72.258C62.9719 74.163 63.4572 76.0334 64.3011 77.773C65.1662 79.4981 66.5396 80.9617 68.263 81.9952C70.0098 82.9836 71.9794 83.5848 74.0181 83.752C76.0683 83.9566 78.1353 83.9733 80.1891 83.8017C82.2401 83.6447 84.2807 83.386 86.3019 83.0269C90.3505 82.3249 94.3414 81.3627 98.2458 80.1472L98.3934 80.1016L98.4605 80.2218C98.7061 80.6809 98.8577 81.1782 98.9076 81.6885C98.9601 82.1902 98.9269 82.6964 98.8093 83.1885C98.6908 83.6789 98.5028 84.1526 98.2503 84.5973C97.9825 85.0217 97.6837 85.4288 97.356 85.8154C96.0413 87.3444 94.6282 88.7904 93.2152 90.2324C91.8021 91.6743 90.3533 93.0913 88.9 94.4918C87.4467 95.8923 85.9799 97.297 84.5043 98.685C85.9471 97.2679 87.3796 95.8426 88.8016 94.409C90.2191 92.9712 91.6366 91.5334 93.0363 90.0832C94.4359 88.633 95.8222 87.1828 97.1055 85.6373C97.4255 85.2614 97.7168 84.8655 97.9775 84.4522C98.2096 84.0307 98.3838 83.5838 98.4962 83.1222C98.7207 82.2036 98.6107 81.242 98.1832 80.3875L98.3979 80.4579C94.4618 81.6963 90.4362 82.6753 86.3511 83.3874C84.3133 83.7433 82.2563 83.9978 80.1891 84.1498C78.1181 84.3135 76.0347 84.2885 73.9689 84.0752C71.8879 83.8952 69.8822 83.2619 68.1155 82.2272C66.3553 81.1534 64.9598 79.6391 64.0909 77.86C63.2578 76.0933 62.8023 74.1937 62.7494 72.2663C62.667 70.3496 62.8579 68.4312 63.3173 66.5608Z" fill="#263238"/>
<path d="M73.2266 66.2913C73.0164 67.2982 72.7392 68.2967 72.4351 69.2829C72.2167 70.1804 71.8128 71.0303 71.2456 71.7855C70.6365 72.4481 69.8717 72.9725 69.0098 73.3186C68.5158 73.5348 68.0081 73.723 67.4894 73.8821C66.9556 74.0208 66.4339 74.1968 65.9288 74.4083C65.9086 74.4184 65.8924 74.4343 65.8826 74.4536C65.8729 74.4728 65.87 74.4945 65.8745 74.5153C65.879 74.5362 65.8906 74.5552 65.9076 74.5695C65.9247 74.5838 65.9462 74.5927 65.969 74.5948C66.5551 74.5867 67.1379 74.5115 67.7041 74.371C68.2561 74.2566 68.7974 74.1014 69.3228 73.907C70.2788 73.5474 71.1194 72.9668 71.7644 72.2206C72.3749 71.4052 72.7813 70.4737 72.9538 69.4942C73.2069 68.4432 73.3491 67.3719 73.3786 66.2954C73.3792 66.2768 73.3718 66.2586 73.358 66.245C73.3441 66.2314 73.325 66.2235 73.3049 66.2229C73.2847 66.2224 73.2651 66.2293 73.2505 66.2421C73.2358 66.2549 73.2272 66.2726 73.2266 66.2913Z" fill="#263238"/>
<path d="M59.7488 66.1505L90.2056 65.1561L87.9698 54.5902C87.9698 54.5902 90.4918 51.5365 89.8702 48.3336C89.1861 44.8283 81.9956 36.1187 81.374 35.6339C78.9816 33.6907 76.8263 32.9697 74.823 34.337C67.8605 39.1103 59.7488 66.1505 59.7488 66.1505Z" fill="#00D21E"/>
<path d="M83.8872 53.5254C82.5277 53.6838 81.1825 53.9345 79.8626 54.2754C79.2142 54.4535 78.5748 54.6607 77.9353 54.8803C77.6178 54.988 77.2959 55.0875 76.9739 55.1828C76.6404 55.2936 76.2935 55.3659 75.941 55.3982C75.9097 55.3982 75.9097 55.4438 75.941 55.4438C76.2757 55.4501 76.6105 55.4335 76.9426 55.3941C77.2647 55.3485 77.583 55.282 77.8951 55.1952C78.5569 55.0212 79.2142 54.8182 79.8761 54.6358C81.2176 54.2712 82.5591 53.9066 83.9006 53.629C83.9721 53.6165 83.9498 53.5171 83.8872 53.5254Z" fill="#263238"/>
<path d="M87.2946 54.5365C86.168 54.4625 85.0378 54.4487 83.9095 54.495C83.3461 54.5199 82.7871 54.5739 82.2281 54.6444C81.9598 54.6776 81.6915 54.7149 81.4277 54.7564C81.1639 54.7979 80.8464 54.8809 80.5334 54.9224C80.5021 54.9224 80.5021 54.9722 80.5334 54.968C80.8106 54.9348 81.0968 54.968 81.3785 54.9348L82.2192 54.885L83.905 54.7938C85.0319 54.7191 86.1409 54.6568 87.2812 54.6236C87.3438 54.6195 87.3438 54.5407 87.2946 54.5365Z" fill="#263238"/>
<path d="M70.8968 38.1283C63.362 46.8544 54.7629 64.431 57.2134 67.5469C59.9456 71.0149 70.4273 58.7917 70.2976 58.1578C70.1993 57.6772 73.0701 47.2564 75.2925 39.6614C77.515 32.0665 72.7615 35.9737 70.8968 38.1283Z" fill="#EB9481"/>
<path d="M70.3782 58.1578C70.6017 57.0515 74.5681 43.2869 75.6503 38.9529C76.6207 35.0663 75.6503 33.6161 72.5201 36.3011C66.7069 41.2401 55.8719 55.6469 54.4321 62.6493C53.0503 69.399 59.1229 69.2788 63.6438 65.7611C67.324 62.8731 70.3782 58.1578 70.3782 58.1578Z" fill="#2D2264"/>
<path d="M69.8728 59.9353C71.0891 54.7311 72.5215 49.5739 74.1701 44.4636C72.9598 49.6706 71.5273 54.8278 69.8728 59.9353Z" fill="#263238"/>
<path d="M73.3965 47.4717C73.5486 46.7706 73.9024 46.1206 74.4206 45.5906C74.3186 46.3069 73.9576 46.97 73.3965 47.4717Z" fill="#263238"/>
<path d="M117.447 64.3772H86.3332V65.7611H117.447V64.3772Z" fill="#455A64"/>
<path d="M100.902 64.3772H86.3332V65.7611H100.902V64.3772Z" fill="#A6A6A6"/>
<path d="M100.28 65.761H132.745L137.333 45.3296H104.868L100.28 65.761Z" fill="#A6A6A6"/>
<path d="M101.752 65.761H134.216L138.804 45.3296H106.34L101.752 65.761Z" fill="#C7C7C7"/>
<path d="M118.114 55.9992C118.077 56.2527 118.099 56.5105 118.18 56.7551C118.261 56.9996 118.399 57.2249 118.583 57.4155C118.767 57.6061 118.993 57.7575 119.247 57.8592C119.5 57.9609 119.774 58.0105 120.05 58.0046C120.642 57.9936 121.211 57.7846 121.65 57.4162C122.09 57.0477 122.371 56.5445 122.442 55.9992C122.478 55.7459 122.455 55.4883 122.374 55.2441C122.292 54.9999 122.155 54.7749 121.971 54.5844C121.787 54.3939 121.561 54.2426 121.308 54.1406C121.055 54.0387 120.782 53.9886 120.506 53.9938C119.914 54.0057 119.346 54.2149 118.906 54.5833C118.467 54.9516 118.185 55.4543 118.114 55.9992Z" fill="#EBEBEB"/>
<path d="M57.2269 66.913C60.0262 68.6574 65.1239 67.3564 78.2886 65.1935C80.1086 64.8952 81.2891 52.4151 79.326 52.643C76.8532 52.9289 67.324 54.5324 66.6443 54.7147C60.9026 56.4094 55.3264 65.7322 57.2269 66.913Z" fill="#EB9481"/>
<path d="M77.4076 53.4798C77.4076 53.4798 81.9911 51.118 84.8128 50.5794C87.7617 50.0738 90.7991 50.2417 93.6623 51.0683C96.7567 51.9467 103.585 56.0404 102.655 58.0832C101.805 59.9187 95.053 55.3941 95.053 55.3941C95.053 55.3941 102.758 58.9574 101.313 60.9919C99.869 63.0263 92.3431 57.3664 92.3431 57.3664C92.3431 57.3664 100.173 61.1908 98.3084 63.0719C96.9043 64.4931 89.7853 59.7157 89.7853 59.7157C89.7853 59.7157 96.4929 63.0305 95.1111 64.5635C93.5907 66.2458 86.7222 62.2142 86.7222 62.2142C82.5143 65.529 79.0488 65.529 76.5849 65.2348C75.9812 65.1561 77.4076 53.4798 77.4076 53.4798Z" fill="#EB9481"/>
<path d="M92.4773 53.9895C93.3985 54.3748 94.3331 54.7643 95.214 55.2325C96.0949 55.7007 96.9624 56.1855 97.7897 56.7242C98.8903 57.4062 99.9031 58.2028 100.808 59.0984C99.0775 57.615 95.9518 55.9162 95.0709 55.4521C94.19 54.9881 93.3359 54.4867 92.4594 54.0268L92.4773 53.9895Z" fill="#263238"/>
<path d="M90.617 56.9065C91.7707 57.4493 92.9378 57.9465 94.0647 58.5348C95.1916 59.1232 96.1977 59.7779 97.2709 60.4284C97.3559 60.4781 97.2978 60.503 97.2128 60.4574C96.1083 59.84 95.0395 59.347 93.9261 58.742C92.8126 58.1371 91.7305 57.499 90.5991 56.9272C90.5813 56.9189 90.5991 56.8982 90.617 56.9065Z" fill="#263238"/>
<path d="M88.5332 59.1441C90.3252 59.936 92.0245 60.8969 93.6041 62.0113C93.6846 62.0652 93.6041 62.0901 93.5236 62.0403C91.8557 61.0542 90.5589 60.2752 88.5109 59.2021C88.4751 59.1855 88.4974 59.1275 88.5332 59.1441Z" fill="#263238"/>
<path d="M76.6519 51.7188L71.2456 69.1751C71.2456 69.1751 57.7724 69.3947 55.5947 67.2691C54.0385 65.7485 60.1111 56.7655 66.4072 54.7186L76.6519 51.7188Z" fill="#2D2264"/>
<path d="M59.9009 59.5749C60.4912 58.4851 62.7762 55.941 66.3983 54.7063C66.4296 54.7063 66.4564 54.7394 66.4251 54.756C63.8226 55.9162 60.6119 58.597 59.9456 59.5997C59.9278 59.6287 59.883 59.5997 59.9009 59.5749Z" fill="#263238"/>
<path d="M68.5626 66.7182C68.9427 64.9987 69.4212 63.2998 69.9041 61.601C70.387 59.9022 70.8655 58.1992 71.3932 56.5129C71.6928 55.5599 71.9834 54.6027 72.3188 53.658C72.3188 53.6332 72.3725 53.658 72.368 53.658C71.9924 55.3776 71.5184 57.0805 71.0265 58.7793C70.5346 60.4781 70.0695 62.1811 69.5598 63.8758C69.2736 64.8329 68.9695 65.7859 68.6341 66.7265C68.6162 66.7845 68.5313 66.7679 68.5626 66.7182Z" fill="#263238"/>
<path d="M76.6116 51.5738C75.8873 51.6996 75.1732 51.8713 74.4742 52.0876C73.7676 52.2837 73.0641 52.4895 72.3635 52.7049C70.9683 53.1193 67.9634 53.8817 65.5889 55.0253C65.5621 55.0253 65.7633 55.0916 65.7856 55.0791C66.8857 54.4825 75.8335 52.0917 76.5177 51.8182C76.5132 51.8706 76.5132 51.9233 76.5177 51.9757C76.5177 52.013 76.5759 52.0379 76.5982 52.0006C76.6206 51.9633 76.6787 51.8141 76.7234 51.7188C76.7328 51.7025 76.7371 51.684 76.7359 51.6655C76.7346 51.647 76.7277 51.6292 76.7161 51.6142C76.7045 51.5991 76.6885 51.5873 76.6701 51.5802C76.6516 51.573 76.6314 51.5708 76.6116 51.5738Z" fill="#263238"/>
<path d="M72.2116 66.2168C71.9343 67.2444 71.6347 68.2637 71.3172 69.2788C70.2351 69.2788 69.1529 69.2788 68.0752 69.2457C64.9451 69.1504 61.7478 69.0219 58.6578 68.417C62.2084 68.8065 67.6012 68.9183 71.2323 69.0758L71.1205 69.1504C71.4693 68.167 71.8315 67.1905 72.2071 66.2209L72.2116 66.2168Z" fill="#263238"/>
<path d="M75.4848 35.9281C75.6502 36.4501 78.5613 39.769 81.1683 39.5329C82.0135 39.4583 81.7675 35.1408 81.7675 35.1408L81.8257 34.8176L82.6619 30.3012L76.8263 27.1978L75.9856 26.7834C75.9856 26.7834 75.847 28.0265 75.686 29.5927C75.686 29.6631 75.686 29.7336 75.6636 29.8123C75.6413 29.891 75.6636 29.9822 75.6323 30.0651C75.6055 30.2971 75.5787 30.5374 75.5608 30.7736C75.5429 31.0098 75.525 31.1299 75.5161 31.3164C75.5071 31.5028 75.4892 31.6934 75.4714 31.884C75.3788 33.2308 75.3833 34.5818 75.4848 35.9281Z" fill="#EB9481"/>
<path d="M75.686 29.5969C76.2392 30.8278 77.0749 31.9324 78.1351 32.834C79.1954 33.7355 80.4547 34.4124 81.8257 34.8176L82.6619 30.3012L76.8263 27.1978L75.9856 26.7834C75.9856 26.7834 75.847 28.0389 75.686 29.5969Z" fill="#263238"/>
<path d="M74.5994 26.7008C72.6229 26.6345 67.9947 28.7145 66.8231 31.3373C65.6515 33.9601 66.5414 37.7348 67.4536 37.9668C68.3658 38.1988 71.9253 37.2956 74.1612 35.605C76.397 33.9145 75.5697 26.7339 74.5994 26.7008Z" fill="#263238"/>
<path d="M74.6039 26.7091C74.6665 26.6842 74.6531 26.5889 74.6039 26.5972C72.9359 26.8417 71.2591 27.6621 69.761 28.354C68.5492 28.9092 67.3195 29.5349 66.4475 30.5169C66.0259 30.9812 65.7176 31.5244 65.5439 32.1095C65.3703 32.6945 65.3353 33.3075 65.4414 33.9062C65.656 35.2736 66.1926 36.8771 67.1451 37.9585C67.1764 37.9875 67.2479 37.9585 67.2211 37.9213C65.9511 35.489 64.6633 32.4726 67.0691 30.26C69.0858 28.3789 72.0371 27.6993 74.6039 26.7091Z" fill="#263238"/>
<path d="M67.5968 37.2459C65.978 37.7265 62.2307 41.3893 62.101 44.4306C61.9714 47.4719 65.3654 51.3626 66.2418 51.5366C67.1183 51.7107 70.2306 48.2882 71.0176 46.0259C71.5453 44.5176 70.5973 43.0218 69.922 41.4681C68.9204 39.2223 67.8516 37.1713 67.5968 37.2459Z" fill="#263238"/>
<path d="M71.9387 45.4912C71.8448 42.4292 69.4435 39.7898 67.8158 37.283C67.8158 37.2581 67.7487 37.283 67.7622 37.3079C68.8801 39.7939 71.0131 41.8201 71.5944 44.5133C71.9343 46.1086 71.6436 47.7825 70.4139 49.009C69.3496 50.0697 67.874 50.7202 66.5369 51.4329C66.4475 51.4826 66.5369 51.5986 66.6219 51.5572C69.3049 50.2064 72.0371 48.6526 71.9387 45.4912Z" fill="#263238"/>
<path d="M67.2926 37.5814C67.3686 37.5316 67.2926 37.4198 67.2121 37.4695C65.0568 38.9031 62.5168 40.8961 61.6896 43.3242C60.7952 45.9553 62.6644 48.2342 64.31 50.194C64.31 50.2189 64.3726 50.194 64.3502 50.165C62.7181 48.172 60.9115 45.6611 62.0071 43.059C62.9461 40.8215 65.2714 38.9736 67.2926 37.5814Z" fill="#263238"/>
<path d="M66.4162 51.4248C67.5923 51.864 69.4122 53.4965 69.9936 55.5475C71.0042 59.0612 72.3815 58.2325 76.7011 58.8084C80.3411 59.2932 81.4769 62.9146 79.7687 64.9035C79.7687 64.9035 80.6318 62.5334 78.1231 61.6301C75.1226 60.5528 68.8622 63.9215 65.2088 60.4617C60.4733 55.9867 66.4162 51.4248 66.4162 51.4248Z" fill="#263238"/>
<path d="M68.1154 52.9411C68.0662 52.8955 68.1467 52.8127 68.2004 52.8582C68.7297 53.2639 69.1752 53.7553 69.515 54.3084C69.9622 55.0294 70.0561 55.8457 70.4362 56.5873C71.4066 58.4809 73.9465 58.1867 75.8023 58.1411C78.2975 58.0873 80.4349 59.3137 80.8374 61.7169C80.8351 61.7223 80.8311 61.7269 80.8259 61.7302C80.8207 61.7334 80.8146 61.7352 80.8083 61.7352C80.8021 61.7352 80.796 61.7334 80.7908 61.7302C80.7856 61.7269 80.7816 61.7223 80.7793 61.7169C80.6476 60.9758 80.2996 60.2822 79.7731 59.7111C79.2466 59.1399 78.5616 58.7131 77.7922 58.4768C76.2852 58.0624 74.662 58.4768 73.1416 58.282C72.0863 58.1411 71.022 57.8262 70.4586 56.9395C70.1878 56.4301 69.9765 55.8953 69.8281 55.3443C69.4874 54.4211 68.8979 53.5939 68.1154 52.9411Z" fill="#263238"/>
<path d="M65.808 51.9178C65.808 51.8971 65.8661 51.9178 65.8483 51.9468C64.5738 53.3597 63.2189 54.7809 63.0087 56.6952C62.7851 58.7669 64.1177 60.6812 65.96 61.7502C68.0215 62.9477 70.0114 62.1107 72.1176 61.5306C73.638 61.1163 75.2031 60.8055 76.7771 61.1619C76.8263 61.1619 76.8084 61.2447 76.7771 61.2406C74.2685 60.9298 72.0952 61.8041 69.7208 62.38C67.7845 62.8482 66.1702 62.351 64.7572 61.0458C61.627 58.1703 62.9685 54.4536 65.808 51.9178Z" fill="#263238"/>
<path d="M72.8241 25.3374C72.1758 24.807 71.2993 25.7518 71.9522 26.2821C72.605 26.8125 73.4815 25.8678 72.8241 25.3374Z" fill="#2D2264"/>
<path d="M73.5441 26.2864C72.8957 25.756 72.0193 26.7007 72.6498 27.2311C73.2803 27.7615 74.1925 26.8167 73.5441 26.2864Z" fill="#2D2264"/>
<path d="M74.4339 27.115C73.7855 26.5846 72.9091 27.5293 73.5396 28.0597C73.6748 28.1696 73.8516 28.2252 74.031 28.2143C74.2105 28.2035 74.378 28.127 74.4965 28.0017C74.6151 27.8764 74.6752 27.7126 74.6634 27.5463C74.6517 27.38 74.5691 27.2249 74.4339 27.115Z" fill="#2D2264"/>
<path d="M75.4088 27.8069C74.7604 27.2765 73.8839 28.2212 74.5145 28.7516C75.145 29.282 76.0617 28.3414 75.4088 27.8069Z" fill="#2D2264"/>
<path d="M76.5223 28.3457C75.8739 27.8153 74.9974 28.76 75.6279 29.2945C76.2584 29.829 77.1751 28.8802 76.5223 28.3457Z" fill="#2D2264"/>
<path d="M77.676 28.6936C77.0276 28.1632 76.1511 29.108 76.804 29.6383C77.4568 30.1687 78.3288 29.2115 77.676 28.6936Z" fill="#2D2264"/>
<path d="M88.2873 22.1598C90.3801 29.966 85.5775 32.0088 83.7664 32.4231C82.1208 32.8002 76.4597 33.8982 73.5083 26.3364C70.557 18.7746 73.8079 15.4018 77.5329 14.3535C81.2578 13.3052 86.1946 14.3576 88.2873 22.1598Z" fill="#EB9481"/>
<path d="M74.5994 26.9949C76.3479 26.5019 75.2568 22.7603 75.2568 22.7603C75.2568 22.7603 78.0605 21.4468 78.7 19.2508C78.7 19.2508 78.387 21.0864 77.4345 22.0642C77.2735 22.23 83.1136 20.0422 82.3534 15.6129C82.3534 15.6129 84.5624 19.5947 87.5808 19.719C87.7239 19.719 86.0917 16.6404 84.6474 15.6419C84.0232 15.1741 83.3558 14.7582 82.653 14.3988C80.4442 13.6392 78.0018 13.7136 75.8515 14.606C72.3099 16.1059 71.0221 20.3571 71.2054 21.9109C71.5676 24.9646 73.7722 27.2311 74.5994 26.9949Z" fill="#263238"/>
<path d="M77.6536 22.1054C80.8956 21.0862 82.8944 18.4385 82.1924 15.2563C82.1924 15.1776 82.3042 15.1444 82.34 15.2149C83.7754 18.2479 80.824 21.5544 77.6447 22.1676C77.5642 22.1842 77.5776 22.1303 77.6536 22.1054Z" fill="#263238"/>
<path d="M74.5547 26.8207C76.0661 25.4948 75.8291 23.7628 75.449 22.0433C75.449 21.9936 75.5295 21.9646 75.5474 22.0184C76.093 23.6758 76.4015 25.7475 74.6799 26.9408C74.6627 26.9562 74.6396 26.9647 74.6157 26.9643C74.5918 26.9639 74.5691 26.9547 74.5525 26.9388C74.5359 26.9228 74.5268 26.9014 74.5272 26.8793C74.5276 26.8572 74.5375 26.8361 74.5547 26.8207Z" fill="#263238"/>
<path d="M82.17 14.9622C82.17 14.9622 82.17 14.9374 82.2013 14.9622C83.1493 16.5947 84.1554 19.52 86.6998 19.3046C86.7109 19.3076 86.7206 19.3139 86.7275 19.3225C86.7344 19.3311 86.7382 19.3415 86.7382 19.3522C86.7382 19.3629 86.7344 19.3733 86.7275 19.3819C86.7206 19.3905 86.7109 19.3968 86.6998 19.3999C84.2896 19.7976 82.4785 16.8351 82.17 14.9622Z" fill="#263238"/>
<path d="M85.7876 21.2354C85.5819 21.2354 85.3941 21.2354 85.1929 21.2354C84.9825 21.2639 84.7677 21.2291 84.5803 21.136C84.529 21.095 84.4935 21.0398 84.479 20.9785C84.4644 20.9172 84.4718 20.8533 84.4998 20.7962C84.575 20.6919 84.6789 20.6081 84.8007 20.5535C84.9226 20.4989 85.058 20.4754 85.1929 20.4854C85.4707 20.4658 85.7464 20.5426 85.9665 20.7009C86.0144 20.74 86.0491 20.7911 86.0664 20.848C86.0837 20.905 86.0828 20.9653 86.0639 21.0218C86.045 21.0783 86.0088 21.1285 85.9598 21.1664C85.9108 21.2043 85.851 21.2283 85.7876 21.2354Z" fill="#263238"/>
<path d="M80.0146 22.4369C80.2004 22.3695 80.3825 22.2934 80.5602 22.2091C80.7613 22.1516 80.9371 22.0353 81.061 21.8776C81.0905 21.8208 81.0987 21.7564 81.0841 21.6948C81.0695 21.6332 81.033 21.5779 80.9805 21.5378C80.8642 21.4736 80.7313 21.4397 80.5959 21.4397C80.4605 21.4397 80.3277 21.4736 80.2114 21.5378C79.9513 21.6279 79.7373 21.8054 79.6122 22.035C79.5887 22.0884 79.5822 22.1468 79.5934 22.2034C79.6046 22.2601 79.6329 22.3126 79.6752 22.3548C79.7175 22.397 79.7719 22.4271 79.832 22.4417C79.8921 22.4562 79.9555 22.4546 80.0146 22.4369Z" fill="#263238"/>
<path d="M81.8123 24.0737C81.8123 24.0737 81.772 24.111 81.781 24.1317C81.9375 24.6538 82.0269 25.2795 81.5574 25.5737C81.5574 25.5737 81.5574 25.611 81.5574 25.6027C82.1789 25.3789 82.0537 24.5502 81.8123 24.0737Z" fill="#263238"/>
<path d="M81.1549 23.6386C80.2203 23.7878 80.6049 25.5073 81.4724 25.3706C82.3399 25.2338 81.9375 23.5184 81.1549 23.6386Z" fill="#263238"/>
<path d="M80.8106 23.8004C80.672 23.9288 80.5512 24.1319 80.3634 24.1857C80.1756 24.2396 79.9163 24.1028 79.7419 23.9578C79.7419 23.9578 79.7106 23.9578 79.715 23.9868C79.7866 24.3142 79.9968 24.6291 80.3903 24.6042C80.7838 24.5793 80.9313 24.2437 80.9448 23.8915C80.9448 23.8294 80.8687 23.7507 80.8106 23.8004Z" fill="#263238"/>
<path d="M84.9782 23.3279C84.9782 23.3279 85.0274 23.3279 85.0319 23.3652C85.1258 23.9038 85.3359 24.5046 85.8949 24.5833C85.8949 24.5833 85.9173 24.6165 85.8949 24.6165C85.242 24.6496 84.9737 23.85 84.9782 23.3279Z" fill="#263238"/>
<path d="M85.3717 22.6774C86.266 22.4412 86.7132 24.1483 85.8815 24.3679C85.0497 24.5875 84.607 22.8929 85.3717 22.6774Z" fill="#263238"/>
<path d="M85.7876 22.7024C85.953 22.7604 86.1408 22.893 86.3197 22.864C86.4986 22.835 86.6238 22.6154 86.7087 22.4082C86.7087 22.4082 86.7356 22.4082 86.74 22.4082C86.8339 22.7355 86.8071 23.1002 86.4852 23.2369C86.1632 23.3736 85.8904 23.1333 85.7205 22.8225C85.6892 22.7811 85.716 22.6817 85.7876 22.7024Z" fill="#263238"/>
<path d="M82.9034 28.3871C83.0643 28.4909 83.2298 28.6444 83.4444 28.6319C83.6586 28.5936 83.8623 28.5161 84.0436 28.4037C84.0436 28.4037 84.0839 28.4037 84.0749 28.4286C84.0124 28.549 83.9156 28.6512 83.7951 28.7243C83.6745 28.7974 83.5347 28.8386 83.3908 28.8435C83.2664 28.8319 83.1486 28.7863 83.0523 28.7124C82.9559 28.6385 82.8854 28.5397 82.8497 28.4286C82.8363 28.3913 82.8721 28.3705 82.9034 28.3871Z" fill="#263238"/>
<path d="M84.9156 27.0695C84.765 27.4238 84.5186 27.7363 84.2001 27.9769C84.0216 28.1013 83.8063 28.1722 83.583 28.18C83.0911 28.18 82.9615 27.8029 82.9436 27.4507C82.9346 27.2631 82.9512 27.0752 82.9928 26.8914C83.5974 27.1372 84.2704 27.1995 84.9156 27.0695Z" fill="#263238"/>
<path d="M84.2136 27.9768C84.035 28.1011 83.8197 28.172 83.5965 28.1798C83.1046 28.1798 82.9749 27.8027 82.957 27.4505C83.1998 27.3947 83.4558 27.4163 83.6838 27.5117C83.9118 27.6072 84.0984 27.771 84.2136 27.9768Z" fill="#FF9CBD"/>
<path d="M84.8486 25.9795C84.8486 25.9795 85.1526 26.7502 85.2421 27.1231C85.2421 27.1563 85.1571 27.1936 85.0185 27.2308C84.685 27.3597 84.3197 27.4012 83.9624 27.3508C83.6052 27.3004 83.2698 27.16 82.9928 26.945C82.9862 26.938 82.9822 26.9292 82.9816 26.92C82.981 26.9108 82.9837 26.9016 82.9894 26.894C82.995 26.8863 83.0033 26.8807 83.0128 26.8779C83.0224 26.8751 83.0326 26.8754 83.042 26.8787C83.6343 27.1012 84.2884 27.1405 84.9067 26.9905C84.9067 26.8787 84.3343 25.6853 84.3969 25.6688C84.7173 25.6275 85.0424 25.6275 85.3628 25.6688C84.7725 24.0487 83.9095 22.528 83.3505 20.9038C83.3472 20.8917 83.3485 20.879 83.3542 20.8677C83.3599 20.8564 83.3697 20.8473 83.3818 20.8419C83.3939 20.8366 83.4077 20.8353 83.4207 20.8382C83.4338 20.8412 83.4453 20.8483 83.4534 20.8582C84.4314 22.4625 85.2343 24.1531 85.8502 25.9049C85.9218 26.1204 85.0229 26.0085 84.8486 25.9795Z" fill="#263238"/>
<path d="M75.1718 26.5723C75.1718 26.5723 72.8778 24.368 71.7733 25.1677C70.6688 25.9674 72.6676 29.3484 74.1925 29.6302C74.3831 29.6784 74.5823 29.6904 74.7781 29.6654C74.9739 29.6405 75.1622 29.5792 75.3318 29.4852C75.5013 29.3911 75.6486 29.2663 75.7648 29.1182C75.881 28.9701 75.9637 28.8018 76.008 28.6233L75.1718 26.5723Z" fill="#EB9481"/>
<path d="M72.377 26.1246C72.3546 26.1246 72.3546 26.1536 72.377 26.1578C73.4368 26.3857 74.1075 27.1688 74.6129 28.0057C74.5392 27.9217 74.4467 27.8534 74.3418 27.8056C74.2369 27.7578 74.1221 27.7316 74.0052 27.7289C73.8883 27.7261 73.7722 27.7468 73.6648 27.7896C73.5575 27.8324 73.4614 27.8962 73.3831 27.9767C73.3563 27.9767 73.3831 28.0347 73.4189 28.0223C73.5852 27.9441 73.7738 27.916 73.9583 27.942C74.1427 27.968 74.3137 28.0468 74.4474 28.1673C74.6707 28.3695 74.87 28.5931 75.0421 28.8344C75.1003 28.909 75.2568 28.8344 75.2076 28.7516C75.0332 27.5458 73.7632 26.0417 72.377 26.1246Z" fill="#263238"/>
<path d="M44.9967 95.2376H44.4601V94.9269H44.9923H46.2443V95.2376H44.9967ZM42.2198 95.1921C41.6117 95.1713 41.0169 95.1423 40.4311 95.1092V94.7984C41.0169 94.8316 41.6117 94.8606 42.2198 94.8813V95.1921ZM48.4802 95.1672V94.8564C49.066 94.8357 49.6607 94.8067 50.2689 94.7694L50.2912 95.0802C49.6786 95.1175 49.0794 95.1465 48.4936 95.1672H48.4802ZM38.1953 94.9393C37.5871 94.8854 36.9879 94.8233 36.4066 94.7528L36.4513 94.4421C37.0237 94.5125 37.6184 94.5747 38.24 94.6327L38.1953 94.9393ZM52.5047 94.9393L52.4779 94.6286C53.0637 94.583 53.6584 94.5291 54.2666 94.4711L54.3023 94.7777C53.6987 94.8274 53.1039 94.8772 52.5137 94.9269L52.5047 94.9393ZM56.5293 94.525L56.4845 94.2142L58.2732 93.9905L58.3224 94.2971C57.7008 94.3841 57.1106 94.4587 56.5248 94.5291L56.5293 94.525ZM34.202 94.4338C33.6028 94.3385 33.0081 94.2308 32.4402 94.1189L32.5073 93.8164C33.0752 93.9283 33.6654 94.0319 34.2557 94.1313L34.202 94.4338ZM60.5135 93.9863L60.4599 93.6797L62.2217 93.3938L62.2799 93.7004L60.5135 93.9863ZM30.258 93.63C29.6633 93.4808 29.0864 93.3192 28.5364 93.1493L28.6392 92.8552C29.1848 93.025 29.7616 93.1825 30.343 93.3316L30.258 93.63ZM64.4799 93.3109L64.4129 93.0043C64.9897 92.8966 65.5755 92.7847 66.1613 92.6646L66.2329 92.9712C65.6381 93.0872 65.0568 93.2032 64.4755 93.3316L64.4799 93.3109ZM68.415 92.5112L68.339 92.2088C68.9159 92.0845 69.4927 91.9519 70.0741 91.8193L70.1545 92.1218C69.5687 92.2543 69.0098 92.3869 68.4106 92.503L68.415 92.5112ZM26.4302 92.4242C25.8578 92.2005 25.3078 91.9643 24.798 91.7157L24.9501 91.4422C25.4554 91.6826 25.9965 91.9146 26.5599 92.1342L26.4302 92.4242ZM72.3233 91.5955L72.2384 91.2931C72.8063 91.1522 73.3831 91.0072 73.96 90.8539L74.0494 91.1522C73.4815 91.3096 72.8912 91.4547 72.3188 91.5997L72.3233 91.5955ZM22.8573 90.6425C22.3587 90.3294 21.8863 89.9817 21.4443 89.6025L21.6723 89.3746C22.1041 89.7462 22.5644 90.0882 23.0496 90.3981L22.8573 90.6425ZM76.1958 90.5763L76.0974 90.2821C76.6653 90.1246 77.2332 89.9589 77.8056 89.7931L77.9085 90.0915L76.1958 90.5763ZM80.037 89.4534L79.9297 89.1592C80.4931 88.9893 81.0566 88.8111 81.6245 88.6288L81.7318 88.923C81.1639 89.1053 80.6004 89.2835 80.037 89.4534ZM83.8424 88.2352L83.7306 87.941L85.4075 87.3692L85.5238 87.6634C84.9648 87.8581 84.4014 88.0487 83.8424 88.2352ZM19.991 87.9783C19.6626 87.4985 19.4167 86.9743 19.2621 86.4245L19.584 86.3458C19.7323 86.8647 19.9629 87.3604 20.2682 87.8167L19.991 87.9783ZM87.6165 86.9217L87.4958 86.6317L89.1548 86.0226L89.28 86.3126L87.6165 86.9217ZM91.3504 85.5212L91.2207 85.2353L92.8663 84.589L93.0005 84.8749L91.3504 85.5212ZM19.4767 84.3528L19.1458 84.3113C19.2295 83.7563 19.3795 83.2115 19.593 82.6871L19.906 82.7948C19.7011 83.2978 19.5572 83.8203 19.4767 84.3528ZM95.0485 84.042L94.9099 83.7561L95.205 83.6318C95.6522 83.4495 96.0994 83.2589 96.5465 83.0683L96.6896 83.3501L95.3481 83.9177L95.0485 84.042ZM98.6974 82.4509L98.5454 82.1692C99.082 81.9261 99.6141 81.6775 100.142 81.4234L100.298 81.6968C99.7662 81.9537 99.2296 82.2023 98.6974 82.4509ZM20.8898 80.9634L20.6036 80.806C20.9122 80.3271 21.248 79.8638 21.6097 79.4179L21.878 79.6044C21.5208 80.0413 21.188 80.4949 20.8808 80.9634H20.8898ZM102.275 80.7231L102.114 80.4496C102.637 80.1886 103.16 79.9193 103.679 79.65L103.84 79.9193C103.326 80.1928 102.802 80.4621 102.279 80.7231H102.275ZM105.781 78.8793L105.611 78.6141C106.125 78.3323 106.635 78.0506 107.144 77.7605L107.319 78.0257C106.814 78.3158 106.299 78.5975 105.785 78.8793H105.781ZM23.2866 78.0009L23.0362 77.7937C23.4163 77.4001 23.8322 76.9899 24.2704 76.5838L24.5119 76.8034C24.0736 77.2178 23.6622 77.6238 23.2866 78.0009ZM109.219 76.9194L109.04 76.6584L110.543 75.7634L110.726 76.0203L109.219 76.9194ZM26.1261 75.3946L25.9026 75.1626C26.3497 74.8021 26.7969 74.4333 27.2441 74.0687L27.4587 74.3049C27.0115 74.6861 26.5554 75.0341 26.1261 75.3946ZM112.587 74.885L112.399 74.6281C112.891 74.3215 113.378 74.0107 113.865 73.6958L114.058 73.9486C113.57 74.2718 113.078 74.5784 112.587 74.885ZM29.2116 73.0039L29.0059 72.7594C29.4531 72.4196 29.9495 72.084 30.4324 71.7484L30.6336 71.997C30.1477 72.3285 29.6737 72.6641 29.2116 73.0039ZM115.891 72.7511L115.694 72.4984C116.177 72.1752 116.66 71.852 117.139 71.5246L117.34 71.7732L115.891 72.7511ZM32.4357 70.783L32.2434 70.5302C32.7323 70.2098 33.2242 69.8949 33.7191 69.5855L33.9069 69.8424C33.415 70.1532 32.9231 70.4639 32.4357 70.783ZM119.129 70.5426L118.923 70.2982C119.401 69.9626 119.871 69.6269 120.34 69.2872L120.546 69.5316C120.077 69.859 119.603 70.1946 119.129 70.5426ZM35.7716 68.7112L35.5927 68.4502C36.0936 68.1477 36.5989 67.8494 37.1087 67.5594L37.2875 67.8204C36.7777 68.1021 36.2769 68.3963 35.7716 68.6988V68.7112ZM122.308 68.2472L122.098 68.0068L123.489 66.9668L123.699 67.2072L122.308 68.2472ZM39.1925 66.739L39.0225 66.4738C39.5383 66.1975 40.0525 65.9213 40.5653 65.6451L40.7352 65.9144C40.221 66.1589 39.7067 66.4406 39.1925 66.7265V66.739ZM125.425 65.8854L125.21 65.6451C125.657 65.2887 126.127 64.9324 126.574 64.5761L126.793 64.8122L125.425 65.8854ZM42.6983 64.8703L42.5328 64.6009C43.0605 64.3275 43.5881 64.0623 44.1069 63.8012L44.2634 64.0747C43.7312 64.3275 43.2081 64.5885 42.6804 64.8578L42.6983 64.8703ZM128.483 63.4408L128.26 63.2087C128.707 62.8441 129.154 62.4753 129.601 62.1107L129.825 62.3427C129.378 62.7074 128.931 63.0844 128.483 63.4408ZM46.2041 63.0844L46.0521 62.811L47.6485 62.0527L47.8005 62.3303C47.2952 62.5789 46.7631 62.8275 46.2041 63.0844ZM49.8083 61.427L49.6652 61.1494C50.2286 60.9008 50.7697 60.6646 51.2929 60.445L51.4315 60.7268C50.9307 60.9423 50.3851 61.1784 49.8262 61.427H49.8083ZM131.475 60.9588L131.247 60.7268C131.694 60.3539 132.141 59.9768 132.566 59.6039L132.794 59.8318L131.475 60.9588ZM53.4974 59.894L53.3678 59.6039C53.882 59.405 54.3605 59.2269 54.8032 59.0736L54.9194 59.3636C54.4857 59.5169 54.0072 59.6951 53.4974 59.894ZM134.435 58.4065L134.203 58.1827L135.495 57.035L135.728 57.2587L134.435 58.4065ZM137.328 55.8085L137.091 55.5889C137.539 55.1953 137.946 54.8058 138.361 54.4163L138.598 54.6359C138.192 55.0254 137.767 55.4149 137.337 55.8085H137.328ZM140.172 53.1608L139.931 52.9412C140.356 52.5269 140.767 52.1457 141.174 51.7521L141.416 51.9675L140.172 53.1608ZM142.958 50.4635L142.717 50.248L143.938 49.0381L144.184 49.2494L142.958 50.4635ZM145.695 47.7163L145.449 47.5092C145.86 47.0948 146.258 46.6805 146.643 46.2661L146.893 46.4733C146.518 46.8835 146.115 47.2937 145.704 47.7163H145.695ZM148.378 44.9237L148.128 44.7206C148.535 44.2856 148.928 43.8671 149.299 43.4776L149.554 43.6765C149.183 44.0701 148.794 44.4886 148.383 44.9237H148.378ZM151.003 42.0812L150.744 41.8824C151.159 41.4224 151.54 40.9957 151.888 40.602L152.148 40.7968C151.803 41.1904 151.423 41.6213 151.007 42.0812H151.003ZM153.556 39.1808L153.292 38.9861C154.017 38.1574 154.397 37.6726 154.397 37.6726L154.665 37.8591C154.665 37.8591 154.29 38.3273 153.561 39.1808H153.556Z" fill="#263238"/>
<path d="M155.466 28.8388L154.182 38.3604L160.139 31.5734L185.556 16.3711L155.466 28.8388Z" fill="#2D2264"/>
<path opacity="0.4" d="M155.466 28.8388L154.182 38.3604L160.139 31.5734L185.556 16.3711L155.466 28.8388Z" fill="white"/>
<path d="M161.574 33.4256L154.182 38.3605L160.139 31.5735L161.574 33.4256Z" fill="#2D2264"/>
<path opacity="0.3" d="M161.574 33.4256L154.182 38.3605L160.139 31.5735L161.574 33.4256Z" fill="white"/>
<path d="M160.139 31.5734L185.556 16.3711L167.901 41.758L160.139 31.5734Z" fill="#2D2264"/>
<path opacity="0.7" d="M160.139 31.5734L185.556 16.3711L167.901 41.758L160.139 31.5734Z" fill="white"/>
<path d="M155.466 28.8388L142.238 24.3928L185.556 16.3711L155.466 28.8388Z" fill="#2D2264"/>
<path opacity="0.7" d="M155.466 28.8388L142.238 24.3928L185.556 16.3711L155.466 28.8388Z" fill="white"/>
<path d="M44.8223 12.3103C44.8219 14.4145 45.4526 16.4774 46.644 18.2687C47.8353 20.0601 49.5406 21.5094 51.5693 22.4549C53.598 23.4004 55.8704 23.8048 58.1329 23.6231C60.3953 23.4414 62.5587 22.6807 64.3816 21.4259L70.3871 22.8471L67.8874 17.6677C68.7661 16.1454 69.2588 14.4574 69.3278 12.7321C69.3968 11.0069 69.0405 9.28972 68.2858 7.71123C67.5311 6.13273 66.398 4.73444 64.9726 3.62263C63.5471 2.51081 61.8669 1.71476 60.0596 1.29496C58.2523 0.875165 56.3655 0.842684 54.5426 1.19998C52.7197 1.55728 51.0088 2.29496 49.5397 3.35694C48.0707 4.41892 46.8823 5.77726 46.0649 7.32869C45.2475 8.88012 44.8225 10.5838 44.8223 12.3103Z" fill="white"/>
<path d="M44.8224 12.3102C45.0147 21.778 56.2342 26.775 64.4219 21.2849L70.4363 22.673L70.2083 22.9216L67.6907 17.7505L67.6505 17.6594C71.4335 11.3489 67.5923 3.15729 60.0486 1.41289C52.469 -0.501386 44.8 5.0467 44.8448 12.3102H44.8224ZM44.8224 12.3102C44.8537 2.6435 57.0212 -2.6477 65.0792 3.50534C69.5286 6.84496 70.8924 13.1182 68.0797 17.763V17.5848L70.5615 22.7724L70.727 23.1205L70.3379 23.0252L64.3414 21.5708C56.6635 26.9573 44.885 21.894 44.8179 12.3102H44.8224Z" fill="#263238"/>
<path d="M55.1207 19.2752L49.625 14.1208L51.4718 12.4344L54.678 15.4425L61.3453 5.75928L63.532 7.05204L55.1207 19.2752Z" fill="#2D2264"/>
</svg>
