<svg width="61" height="60" viewBox="0 0 61 60" fill="none" xmlns="http://www.w3.org/2000/svg">
<rect x="0.5" width="60" height="60" rx="30" fill="#FEE9E7"/>
<path d="M20.0018 40.1281C19.7938 40.1281 19.6098 40.0787 19.4498 39.9801C19.2898 39.8814 19.1654 39.7512 19.0765 39.5894C18.9805 39.4303 18.9272 39.2583 18.9165 39.0734C18.9076 38.8876 18.96 38.7005 19.0738 38.5121L29.5672 20.4107C29.6809 20.2223 29.8178 20.0854 29.9778 20.0001C30.1378 19.9147 30.312 19.8721 30.5005 19.8721C30.6889 19.8721 30.8627 19.9147 31.0218 20.0001C31.1809 20.0854 31.3178 20.2223 31.4325 20.4107L41.9272 38.5121C42.0409 38.7005 42.0929 38.8872 42.0832 39.0721C42.0743 39.2587 42.0209 39.4312 41.9232 39.5894C41.8343 39.7512 41.7098 39.8814 41.5498 39.9801C41.3898 40.0787 41.2063 40.1281 40.9992 40.1281H20.0018ZM20.4338 38.7947H40.5672L30.5005 21.4614L20.4338 38.7947ZM30.5005 36.9494C30.7334 36.9494 30.9285 36.8707 31.0858 36.7134C31.2432 36.5561 31.3214 36.361 31.3205 36.1281C31.3196 35.8952 31.2409 35.7005 31.0845 35.5441C30.928 35.3876 30.7334 35.3085 30.5005 35.3067C30.2676 35.305 30.0729 35.3836 29.9165 35.5427C29.76 35.7018 29.6814 35.897 29.6805 36.1281C29.6796 36.3592 29.7583 36.5543 29.9165 36.7134C30.0747 36.8725 30.2694 36.9512 30.5005 36.9494ZM30.5005 33.9747C30.6907 33.9747 30.8494 33.9107 30.9765 33.7827C31.1036 33.6547 31.1672 33.4965 31.1672 33.3081V27.9747C31.1672 27.7854 31.1032 27.6267 30.9752 27.4987C30.8472 27.3707 30.6885 27.3072 30.4992 27.3081C30.3098 27.309 30.1516 27.3725 30.0245 27.4987C29.8974 27.625 29.8338 27.7836 29.8338 27.9747V33.3081C29.8338 33.4965 29.8978 33.6547 30.0258 33.7827C30.1538 33.9107 30.3125 33.9747 30.5018 33.9747" fill="#900B09"/>
</svg>
