<svg width="25" height="25" viewBox="0 0 25 25" fill="none" xmlns="http://www.w3.org/2000/svg">
<path d="M5.33301 6.33301H3.99967C3.29243 6.33301 2.61415 6.61396 2.11406 7.11406C1.61396 7.61415 1.33301 8.29243 1.33301 8.99967V20.9997C1.33301 21.7069 1.61396 22.3852 2.11406 22.8853C2.61415 23.3854 3.29243 23.6663 3.99967 23.6663H15.9997C16.7069 23.6663 17.3852 23.3854 17.8853 22.8853C18.3854 22.3852 18.6663 21.7069 18.6663 20.9997V19.6663" stroke="#6C50EF" stroke-width="2" stroke-linecap="round" stroke-linejoin="round"/>
<path d="M17.3333 3.66681L21.3333 7.66681M23.18 5.78014C23.7051 5.25501 24.0001 4.54279 24.0001 3.80014C24.0001 3.0575 23.7051 2.34527 23.18 1.82014C22.6549 1.29501 21.9426 1 21.2 1C20.4574 1 19.7451 1.29501 19.22 1.82014L8 13.0001V17.0001H12L23.18 5.78014Z" stroke="#6C50EF" stroke-width="2" stroke-linecap="round" stroke-linejoin="round"/>
</svg>
