<svg width="32" height="32" viewBox="0 0 32 32" fill="none" xmlns="http://www.w3.org/2000/svg">
<path d="M16 29.3671C15.6444 29.3671 15.3053 29.3005 14.9826 29.1671C14.66 29.0338 14.3657 28.8449 14.1 28.6005L3.39997 17.9005C3.15552 17.6338 2.96663 17.3391 2.8333 17.0165C2.69997 16.6938 2.6333 16.3551 2.6333 16.0005C2.6333 15.6458 2.69997 15.3014 2.8333 14.9671C2.96663 14.6329 3.15552 14.344 3.39997 14.1005L14.1 3.40047C14.3666 3.1338 14.6613 2.93913 14.984 2.81647C15.3066 2.6938 15.6453 2.63291 16 2.6338C16.3546 2.63469 16.6991 2.69602 17.0333 2.8178C17.3675 2.93958 17.6564 3.1338 17.9 3.40047L28.6 14.1005C28.8666 14.3449 29.0613 14.6338 29.184 14.9671C29.3066 15.3005 29.3675 15.6449 29.3666 16.0005C29.3657 16.356 29.3049 16.6951 29.184 17.0178C29.0631 17.3405 28.8684 17.6347 28.6 17.9005L17.9 28.6005C17.6555 28.8449 17.3666 29.0338 17.0333 29.1671C16.7 29.3005 16.3555 29.3671 16 29.3671ZM16 17.3338C16.3777 17.3338 16.6946 17.2062 16.9506 16.9511C17.2066 16.696 17.3342 16.3791 17.3333 16.0005V10.6671C17.3333 10.2894 17.2053 9.97291 16.9493 9.7178C16.6933 9.46269 16.3769 9.33469 16 9.3338C15.6231 9.33291 15.3066 9.46091 15.0506 9.7178C14.7946 9.97469 14.6666 10.2911 14.6666 10.6671V16.0005C14.6666 16.3782 14.7946 16.6951 15.0506 16.9511C15.3066 17.2071 15.6231 17.3347 16 17.3338ZM16 21.3338C16.3777 21.3338 16.6946 21.2058 16.9506 20.9498C17.2066 20.6938 17.3342 20.3774 17.3333 20.0005C17.3324 19.6236 17.2044 19.3071 16.9493 19.0511C16.6942 18.7951 16.3777 18.6671 16 18.6671C15.6222 18.6671 15.3057 18.7951 15.0506 19.0511C14.7955 19.3071 14.6675 19.6236 14.6666 20.0005C14.6657 20.3774 14.7937 20.6942 15.0506 20.9511C15.3075 21.208 15.624 21.3356 16 21.3338Z" fill="#610C07"/>
</svg>
