<svg width="22" height="26" viewBox="0 0 22 26" fill="none" xmlns="http://www.w3.org/2000/svg">
<path d="M7.7642 15.8717L10.9999 13.9192L14.2357 15.8717L13.3584 12.1881L16.2285 9.71394L12.471 9.40026L10.9999 5.93639L9.52884 9.40026L5.77143 9.71394L8.64149 12.1881L7.7642 15.8717ZM0.935425 26V2.71071C0.935425 1.93798 1.19431 1.29329 1.71207 0.776645C2.22983 0.26 2.87452 0.00111828 3.64613 0H18.3554C19.127 0 19.7717 0.258881 20.2895 0.776645C20.8073 1.29441 21.0656 1.9391 21.0645 2.71071V26L10.9999 21.6773L0.935425 26ZM2.61284 23.4L10.9999 19.7935L19.387 23.4V2.71071C19.387 2.45239 19.2797 2.21531 19.065 1.99948C18.8503 1.78366 18.6132 1.6763 18.3538 1.67742H3.64613C3.38781 1.67742 3.15074 1.78477 2.93491 1.99948C2.71908 2.21419 2.61173 2.45127 2.61284 2.71071V23.4Z" fill="#2D2264"/>
</svg>
