<svg width="30" height="30" viewBox="0 0 30 30" fill="none" xmlns="http://www.w3.org/2000/svg">
<path d="M2.94001 12.7266C2.64127 13.0251 2.40429 13.3794 2.2426 13.7695C2.08091 14.1596 1.99768 14.5777 1.99768 15C1.99768 15.4222 2.08091 15.8403 2.2426 16.2304C2.40429 16.6205 2.64127 16.9749 2.94001 17.2733L13.06 27.3933C13.3584 27.692 13.7128 27.929 14.1029 28.0907C14.493 28.2524 14.9111 28.3356 15.3333 28.3356C15.7556 28.3356 16.1737 28.2524 16.5638 28.0907C16.9539 27.929 17.3082 27.692 17.6067 27.3933L27.7267 17.2733C28.0254 16.9749 28.2624 16.6205 28.4241 16.2304C28.5858 15.8403 28.669 15.4222 28.669 15C28.669 14.5777 28.5858 14.1596 28.4241 13.7695C28.2624 13.3794 28.0254 13.0251 27.7267 12.7266L17.6067 2.60663C17.3082 2.3079 16.9539 2.07091 16.5638 1.90922C16.1737 1.74753 15.7556 1.66431 15.3333 1.66431C14.9111 1.66431 14.493 1.74753 14.1029 1.90922C13.7128 2.07091 13.3584 2.3079 13.06 2.60663L2.94001 12.7266Z" stroke="#2D2264" stroke-width="2.66667" stroke-linecap="round" stroke-linejoin="round"/>
</svg>
