<svg width="24" height="25" viewBox="0 0 24 25" fill="none" xmlns="http://www.w3.org/2000/svg">
<path d="M19.2803 13.4697L15.5303 9.71975C15.3896 9.57909 15.1989 9.50004 15 9.5H10.5C10.1022 9.5 9.72064 9.65804 9.43934 9.93934C9.15804 10.2206 9 10.6022 9 11V21.5C9 21.8978 9.15804 22.2794 9.43934 22.5607C9.72064 22.842 10.1022 23 10.5 23H18C18.3978 23 18.7794 22.842 19.0607 22.5607C19.342 22.2794 19.5 21.8978 19.5 21.5V14C19.5 13.8011 19.4209 13.6104 19.2803 13.4697ZM17.6895 14H15V11.3105L17.6895 14ZM10.5 21.5V11H13.5V14C13.5 14.3978 13.658 14.7794 13.9393 15.0607C14.2206 15.342 14.6022 15.5 15 15.5H18V21.5H10.5Z" fill="#005E0E"/>
<path d="M6 20.75H3C2.60218 20.75 2.22064 20.592 1.93934 20.3107C1.65804 20.0294 1.5 19.6478 1.5 19.25V4.25C1.5 3.85218 1.65804 3.47064 1.93934 3.18934C2.22064 2.90804 2.60218 2.75 3 2.75H8.6895C9.08729 2.75008 9.46876 2.90818 9.75 3.1895L12.3105 5.75H21C21.3978 5.75 21.7794 5.90804 22.0607 6.18934C22.342 6.47064 22.5 6.85218 22.5 7.25V13.25H21V7.25H11.6895L8.6895 4.25H3V19.25H6V20.75Z" fill="#005E0E"/>
</svg>
