<svg width="37" height="50" viewBox="0 0 37 50" fill="none" xmlns="http://www.w3.org/2000/svg">
<path d="M12.8918 49.537C13.717 49.8664 15.1443 50.4898 15.1443 49.3175C15.1443 48.8252 14.7406 48.7862 14.3581 48.6587C12.9211 48.1375 11.6937 47.1613 10.8624 45.8785C9.36075 43.6614 9.01365 41.4478 9.01365 38.7951C9.01365 32.9229 17.1029 31.8604 17.1029 25.9847C17.1029 23.7357 15.6862 23.0769 15.6862 22.443C15.6862 22.0392 15.8137 22.0392 16.2175 22.0392C17.6802 22.0392 19.7132 24.4759 20.333 25.6659C20.6788 26.2833 20.8318 26.9902 20.7721 27.6953C20.7721 28.9774 20.6446 30.2949 20.6446 31.5912C20.6446 36.5319 26.4814 35.2144 26.4814 32.8343C26.4814 31.7364 25.8226 30.7093 25.8226 29.6468C25.8226 29.5193 25.8226 29.4272 25.9537 29.4272C26.5735 29.4272 27.6714 30.8439 27.983 31.276C29.0456 32.9052 29.5379 35.0833 29.5379 37.0206C29.5379 42.9495 24.1403 45.9883 24.1403 47.2704C24.1403 47.451 24.6716 48.687 26.3539 47.6245C31.7904 44.862 36.0723 38.9119 36.0723 31.191C36.0723 25.0426 34.4785 20.6332 30.1966 16.075C29.4883 15.3241 27.1968 12.9831 26.0812 12.9831C24.5795 12.9831 27.3987 16.3866 27.3987 18.6923C27.4168 18.9927 27.3709 19.2935 27.2641 19.5748C27.1572 19.8561 26.9919 20.1115 26.7789 20.3241C26.566 20.5367 26.3103 20.7017 26.0288 20.8081C25.7474 20.9145 25.4465 20.9599 25.1461 20.9413C23.0211 20.9413 22.4934 16.2946 22.2384 14.8495C21.1759 8.66217 19.8938 4.19961 13.7383 1.28833C11.8364 0.374567 7.05864 -0.872117 7.05864 0.888113C7.05864 1.32729 7.55446 1.63542 7.90154 1.81958C9.58386 2.84314 11.4893 5.73671 11.4893 8.81092C11.4893 17.2473 0.927915 24.9505 0.927915 33.7339C0.892498 41.1078 6.07048 47.0189 12.8776 49.5087L12.8918 49.537Z" fill="url(#paint0_linear_77_402)"/>
<defs>
<linearGradient id="paint0_linear_77_402" x1="8.20768" y1="-7.58895e-09" x2="18.4189" y2="50.0166" gradientUnits="userSpaceOnUse">
<stop stop-color="#610C07"/>
<stop offset="1" stop-color="#EB4941"/>
</linearGradient>
</defs>
</svg>
