<svg width="32" height="32" viewBox="0 0 32 32" fill="none" xmlns="http://www.w3.org/2000/svg">
<path d="M10.8 16C12.1791 16 13.5018 15.4521 14.4769 14.4769C15.4521 13.5017 16 12.1791 16 10.8C16 9.42085 15.4521 8.09821 14.4769 7.12302C13.5018 6.14783 12.1791 5.59998 10.8 5.59998C9.42087 5.59998 8.09823 6.14783 7.12304 7.12302C6.14785 8.09821 5.59999 9.42085 5.59999 10.8C5.59999 12.1791 6.14785 13.5017 7.12304 14.4769C8.09823 15.4521 9.42087 16 10.8 16ZM19.8992 24.232C20.7472 24.5792 21.8256 24.8 23.1984 24.8C29.5984 24.8 29.5984 20 29.5984 20C29.5984 19.3637 29.3458 18.7535 28.896 18.3035C28.4463 17.8534 27.8362 17.6004 27.2 17.6H19.7952C20.424 18.3616 20.8016 19.336 20.8016 20.4V20.9696C20.7982 21.1043 20.7891 21.2388 20.7744 21.3728C20.6654 22.3723 20.3675 23.3423 19.8992 24.232ZM27.2 12C27.2 13.0608 26.7786 14.0783 26.0284 14.8284C25.2783 15.5785 24.2609 16 23.2 16C22.1391 16 21.1217 15.5785 20.3716 14.8284C19.6214 14.0783 19.2 13.0608 19.2 12C19.2 10.9391 19.6214 9.92169 20.3716 9.17155C21.1217 8.4214 22.1391 7.99998 23.2 7.99998C24.2609 7.99998 25.2783 8.4214 26.0284 9.17155C26.7786 9.92169 27.2 10.9391 27.2 12ZM2.39999 20.8C2.39999 19.9513 2.73714 19.1374 3.33725 18.5372C3.93737 17.9371 4.7513 17.6 5.59999 17.6H16C16.8487 17.6 17.6626 17.9371 18.2627 18.5372C18.8629 19.1374 19.2 19.9513 19.2 20.8C19.2 20.8 19.2 27.2 10.8 27.2C2.39999 27.2 2.39999 20.8 2.39999 20.8Z" fill="#005E0E"/>
</svg>
