<svg width="16" height="16" viewBox="0 0 16 16" fill="none" xmlns="http://www.w3.org/2000/svg">
<path fill-rule="evenodd" clip-rule="evenodd" d="M0 13.7143V2.28571C0 1.67951 0.240816 1.09812 0.66947 0.66947C1.09812 0.240816 1.67951 0 2.28571 0H13.7143C14.3205 0 14.9019 0.240816 15.3305 0.66947C15.7592 1.09812 16 1.67951 16 2.28571V13.7143C16 14.3205 15.7592 14.9019 15.3305 15.3305C14.9019 15.7592 14.3205 16 13.7143 16H2.28571C1.67951 16 1.09812 15.7592 0.66947 15.3305C0.240816 14.9019 0 14.3205 0 13.7143Z" stroke="#005E0E" stroke-width="1.14286" stroke-linecap="round" stroke-linejoin="round"/>
<path fill-rule="evenodd" clip-rule="evenodd" d="M2.28571 13.7143V2.28571C2.28571 1.67951 2.52653 1.09812 2.95518 0.66947C3.38384 0.240816 3.96522 0 4.57143 0H2.28571C1.14286 0 0 1.02286 0 2.28571V13.7143C0 14.9771 1.14286 16 2.28571 16H4.57143C3.96522 16 3.38384 15.7592 2.95518 15.3305C2.52653 14.9019 2.28571 14.3205 2.28571 13.7143Z" fill="#005E0E" stroke="#005E0E" stroke-width="1.14286" stroke-linecap="round" stroke-linejoin="round"/>
<path fill-rule="evenodd" clip-rule="evenodd" d="M8 11.4284L4.57143 7.99986L8 4.57129M13.7143 7.99986H4.57143H13.7143Z" fill="#005E0E"/>
<path d="M8 11.4284L4.57143 7.99986M4.57143 7.99986L8 4.57129M4.57143 7.99986H13.7143" stroke="#005E0E" stroke-width="1.14286" stroke-linecap="round" stroke-linejoin="round"/>
</svg>
