<svg width="150" height="131" viewBox="0 0 150 131" fill="none" xmlns="http://www.w3.org/2000/svg">
<path d="M150.001 20.6201V72.6279L149.453 78.1025L148.358 83.5762L146.716 88.6865L144.161 93.7959L140.694 99.2705L136.68 104.562L131.569 109.854L126.277 114.599L119.708 119.525L113.687 123.54L107.481 127.372L102.555 130.292L97.6279 127.737L91.9707 124.452L86.8613 121.351L82.6641 118.613L79.0146 115.876L74.8174 112.409L71.3496 109.307L67.335 105.292L64.2334 101.46L61.1309 97.0801L58.2109 92.3359H70.8027L73.7227 95.9854L76.6416 99.0879L80.292 102.555L84.124 105.657L88.3213 108.759L93.0654 111.861L97.8105 114.599L102.189 116.971L107.117 114.051L112.409 110.767L117.701 106.935L121.716 103.467L125.365 100.183L128.833 96.168L132.117 91.9707L135.037 87.0439L137.044 81.5693L138.321 76.0947L138.687 72.6279V29.9268L102.92 14.2334L71.1104 28.6104L41.9717 101.277H30.1104L0 28.4668H20.4385L39.417 75.9121L57.2988 32.8623V20.6201L103.103 0L150.001 20.6201ZM105.475 28.6494L109.307 29.1973L113.139 30.1094L117.336 31.5693L121.716 33.7588L125.365 36.1318L128.833 38.8682L131.752 41.9707L119.891 52.5547L118.248 50.5479L116.424 48.54L113.687 46.5332L111.132 45.0732L108.212 43.9785L104.562 43.4307H102.555L99.0879 43.7959L95.6201 44.708L92.1533 46.3506L89.2334 48.3574L86.4961 51.46L84.6709 54.7441L83.5762 57.4814L82.6641 60.7666L82.2988 63.6865V67.8828L82.6641 70.6201L83.3936 73.54L84.3066 76.2773L86.1309 79.5625L87.9561 81.9346L89.7812 83.7588L92.1533 85.4014L94.708 86.8613L97.2627 87.7734L100.548 88.3213L103.467 88.5039L106.569 88.3213L109.124 87.7734L111.861 86.8613L114.781 85.4014L117.701 82.8467V73.54H104.015V60.7666H132.848V72.8105L132.482 76.8252L131.935 80.1094L131.022 84.3066L129.015 88.6865L127.008 91.7881L124.453 94.5254L121.168 97.0801L117.701 99.0879L113.321 100.912L110.401 101.825L106.204 102.555L101.643 102.92L97.6279 102.737L93.0654 102.007L89.2334 100.912L84.6709 99.0879L80.4746 96.7148L76.6416 93.7959L73.1748 90.1455L70.4375 86.1318L68.4307 82.4814L66.6055 77.7373L65.3281 72.0801L64.9629 68.0654V63.6865L65.3281 60.2188L66.2402 56.0215L67.335 52.3721L68.9775 48.9053L70.9854 45.2559L73.3574 41.9707L75.7295 39.416L79.0146 36.4961L82.8467 33.7588L87.2266 31.5693L90.876 30.1094L94.5254 29.1973L98.7227 28.6494L102.189 28.4668L105.475 28.6494Z" fill="#F5F4F5"/>
</svg>
