<svg width="28" height="20" viewBox="0 0 28 20" fill="none" xmlns="http://www.w3.org/2000/svg">
<path d="M19.333 2.33366C19.333 2.51047 19.4032 2.68004 19.5283 2.80506C19.6533 2.93009 19.8229 3.00033 19.9997 3.00033C20.1765 3.00033 20.3461 2.93009 20.4711 2.80506C20.5961 2.68004 20.6663 2.51047 20.6663 2.33366V1.33366C20.6663 1.15685 20.5961 0.987279 20.4711 0.862254C20.3461 0.73723 20.1765 0.666992 19.9997 0.666992C19.8229 0.666992 19.6533 0.73723 19.5283 0.862254C19.4032 0.987279 19.333 1.15685 19.333 1.33366V2.33366Z" fill="#E61C11"/>
<path fill-rule="evenodd" clip-rule="evenodd" d="M0.666504 4.66732C0.666504 4.3137 0.80698 3.97456 1.05703 3.72451C1.30708 3.47446 1.64622 3.33398 1.99984 3.33398H16.6665C16.9005 3.33399 17.1305 3.3956 17.3332 3.51263C17.5358 3.62965 17.7041 3.79796 17.8212 4.00065H17.9998V6.66732H18.6665V6.00065H19.3332V5.33398C19.3332 5.15717 19.4034 4.9876 19.5284 4.86258C19.6535 4.73756 19.823 4.66732 19.9998 4.66732C20.1766 4.66732 20.3462 4.73756 20.4712 4.86258C20.5963 4.9876 20.6665 5.15717 20.6665 5.33398V6.00065H21.3332V6.66732H21.8118C22.3147 6.66737 22.7991 6.85683 23.1685 7.19798L26.6898 10.448C26.8927 10.6353 27.0547 10.8626 27.1654 11.1156C27.2761 11.3686 27.3332 11.6418 27.3332 11.918V17.334H23.9158C23.7675 17.9061 23.4335 18.4129 22.966 18.7746C22.4986 19.1363 21.9242 19.3326 21.3332 19.3326C20.7421 19.3326 20.1678 19.1363 19.7003 18.7746C19.2329 18.4129 18.8988 17.9061 18.7505 17.334H8.5825C8.43421 17.9061 8.10012 18.4129 7.63268 18.7746C7.16523 19.1363 6.5909 19.3326 5.99984 19.3326C5.40877 19.3326 4.83444 19.1363 4.367 18.7746C3.89955 18.4129 3.56546 17.9061 3.41717 17.334H0.666504V4.66732ZM25.9998 12.6673H17.9998V16.0007H18.7505C18.8988 15.4285 19.2329 14.9218 19.7003 14.56C20.1678 14.1983 20.7421 14.002 21.3332 14.002C21.9242 14.002 22.4986 14.1983 22.966 14.56C23.4335 14.9218 23.7675 15.4285 23.9158 16.0007H25.9998V12.6673ZM17.9998 11.334H25.6838L22.2638 8.17732C22.1407 8.06373 21.9793 8.00066 21.8118 8.00065H17.9998V11.334ZM5.99984 18.0007C6.35346 18.0007 6.6926 17.8602 6.94265 17.6101C7.19269 17.3601 7.33317 17.0209 7.33317 16.6673C7.33317 16.3137 7.19269 15.9746 6.94265 15.7245C6.6926 15.4745 6.35346 15.334 5.99984 15.334C5.64621 15.334 5.30708 15.4745 5.05703 15.7245C4.80698 15.9746 4.6665 16.3137 4.6665 16.6673C4.6665 17.0209 4.80698 17.3601 5.05703 17.6101C5.30708 17.8602 5.64621 18.0007 5.99984 18.0007ZM22.6665 16.6673C22.6665 17.0209 22.526 17.3601 22.276 17.6101C22.0259 17.8602 21.6868 18.0007 21.3332 18.0007C20.9795 18.0007 20.6404 17.8602 20.3904 17.6101C20.1403 17.3601 19.9998 17.0209 19.9998 16.6673C19.9998 16.3137 20.1403 15.9746 20.3904 15.7245C20.6404 15.4745 20.9795 15.334 21.3332 15.334C21.6868 15.334 22.0259 15.4745 22.276 15.7245C22.526 15.9746 22.6665 16.3137 22.6665 16.6673ZM6.6665 8.66732H8.6665V6.66732H9.99984V8.66732H11.9998V10.0007H9.99984V12.0007H8.6665V10.0007H6.6665V8.66732Z" fill="#E61C11"/>
<path d="M22.3331 5.33404C22.3331 5.15723 22.4034 4.98766 22.5284 4.86264C22.6534 4.73761 22.823 4.66737 22.9998 4.66737H23.9998C24.1766 4.66737 24.3462 4.73761 24.4712 4.86264C24.5962 4.98766 24.6665 5.15723 24.6665 5.33404C24.6665 5.51085 24.5962 5.68042 24.4712 5.80545C24.3462 5.93047 24.1766 6.00071 23.9998 6.00071H22.9998C22.823 6.00071 22.6534 5.93047 22.5284 5.80545C22.4034 5.68042 22.3331 5.51085 22.3331 5.33404ZM21.8858 2.50671C21.8207 2.56543 21.7678 2.63642 21.7301 2.71561C21.6925 2.79481 21.6708 2.88066 21.6664 2.96824C21.662 3.05583 21.6749 3.14342 21.7043 3.22601C21.7338 3.3086 21.7793 3.38456 21.8382 3.44954C21.8971 3.51452 21.9682 3.56725 22.0475 3.60469C22.1268 3.64214 22.2127 3.66358 22.3003 3.66777C22.3879 3.67197 22.4755 3.65884 22.558 3.62915C22.6405 3.59945 22.7163 3.55376 22.7811 3.49471L23.3905 2.94271C23.521 2.82384 23.599 2.65808 23.6074 2.48177C23.6159 2.30546 23.5541 2.133 23.4355 2.0022C23.317 1.87141 23.1514 1.79296 22.9752 1.78405C22.7989 1.77515 22.6262 1.83652 22.4951 1.95471L21.8858 2.50671Z" fill="#E61C11"/>
</svg>
