<svg width="70" height="61" viewBox="0 0 70 61" fill="none" xmlns="http://www.w3.org/2000/svg">
<path d="M69.25 10.084V33.834L69 36.334L68.5 38.834L67.75 41.167L66.583 43.5L65 46L63.166 48.417L60.833 50.834L58.416 53L55.416 55.25L52.666 57.084L49.833 58.834L47.583 60.167L45.333 59L42.75 57.5L40.416 56.084L38.5 54.834L36.833 53.584L34.916 52L33.333 50.584L31.5 48.75L30.083 47L28.666 45L27.333 42.834H33.083L34.416 44.5L35.75 45.917L37.416 47.5L39.166 48.917L41.083 50.334L43.25 51.75L45.416 53L47.416 54.084L49.666 52.75L52.083 51.25L54.5 49.5L56.333 47.917L58 46.417L59.583 44.584L61.083 42.667L62.416 40.417L63.333 37.917L63.916 35.417L64.083 33.834V14.334L47.75 7.16699L33.2227 13.7324L19.917 46.917H14.5L0.75 13.667H10.083L18.75 35.334L26.916 15.6738V10.084L47.833 0.666992L69.25 10.084ZM48.916 13.75L50.666 14L52.416 14.417L54.333 15.084L56.333 16.084L58 17.167L59.583 18.417L60.916 19.834L55.5 24.667L54.75 23.75L53.916 22.834L52.666 21.917L51.5 21.25L50.166 20.75L48.5 20.5H47.583L46 20.667L44.416 21.084L42.833 21.834L41.5 22.75L40.25 24.167L39.416 25.667L38.916 26.917L38.5 28.417L38.333 29.75V31.667L38.5 32.917L38.833 34.25L39.25 35.5L40.083 37L40.916 38.084L41.75 38.917L42.833 39.667L44 40.334L45.166 40.75L46.666 41L48 41.084L49.416 41L50.583 40.75L51.833 40.334L53.166 39.667L54.5 38.5V34.25H48.25V28.417H61.416V33.917L61.25 35.75L61 37.25L60.583 39.167L59.666 41.167L58.75 42.584L57.583 43.834L56.083 45L54.5 45.917L52.5 46.75L51.166 47.167L49.25 47.5L47.166 47.667L45.333 47.584L43.25 47.25L41.5 46.75L39.416 45.917L37.5 44.834L35.75 43.5L34.166 41.834L32.916 40L32 38.334L31.166 36.167L30.583 33.584L30.416 31.75V29.75L30.583 28.167L31 26.25L31.5 24.584L32.25 23L33.166 21.334L34.25 19.834L35.333 18.667L36.833 17.334L38.583 16.084L40.583 15.084L42.25 14.417L43.916 14L45.833 13.75L47.416 13.667L48.916 13.75Z" fill="#005E0E"/>
</svg>
