<svg width="20" height="28" viewBox="0 0 20 28" fill="none" xmlns="http://www.w3.org/2000/svg">
<path d="M9.99996 13.3332C9.1159 13.3332 8.26806 12.982 7.64294 12.3569C7.01782 11.7317 6.66663 10.8839 6.66663 9.99984C6.66663 9.11578 7.01782 8.26794 7.64294 7.64281C8.26806 7.01769 9.1159 6.6665 9.99996 6.6665C10.884 6.6665 11.7319 7.01769 12.357 7.64281C12.9821 8.26794 13.3333 9.11578 13.3333 9.99984C13.3333 10.4376 13.2471 10.871 13.0796 11.2754C12.912 11.6799 12.6665 12.0473 12.357 12.3569C12.0475 12.6664 11.68 12.9119 11.2756 13.0794C10.8712 13.247 10.4377 13.3332 9.99996 13.3332ZM9.99996 0.666504C7.5246 0.666504 5.15064 1.64983 3.4003 3.40017C1.64996 5.15051 0.666626 7.52448 0.666626 9.99984C0.666626 16.9998 9.99996 27.3332 9.99996 27.3332C9.99996 27.3332 19.3333 16.9998 19.3333 9.99984C19.3333 7.52448 18.35 5.15051 16.5996 3.40017C14.8493 1.64983 12.4753 0.666504 9.99996 0.666504Z" fill="white"/>
</svg>
