<svg width="33" height="32" viewBox="0 0 33 32" fill="none" xmlns="http://www.w3.org/2000/svg">
<path d="M16.4998 2.66699C9.1265 2.66699 3.1665 8.62699 3.1665 16.0003C3.1665 23.3737 9.1265 29.3337 16.4998 29.3337C23.8732 29.3337 29.8332 23.3737 29.8332 16.0003C29.8332 8.62699 23.8732 2.66699 16.4998 2.66699ZM22.2332 21.7337C22.1098 21.8573 21.9633 21.9553 21.802 22.0222C21.6407 22.0891 21.4678 22.1236 21.2932 22.1236C21.1185 22.1236 20.9456 22.0891 20.7843 22.0222C20.623 21.9553 20.4765 21.8573 20.3532 21.7337L16.4998 17.8803L12.6465 21.7337C12.3972 21.983 12.0591 22.123 11.7065 22.123C11.3539 22.123 11.0158 21.983 10.7665 21.7337C10.5172 21.4844 10.3771 21.1462 10.3771 20.7937C10.3771 20.6191 10.4115 20.4462 10.4783 20.2849C10.5451 20.1237 10.6431 19.9771 10.7665 19.8537L14.6198 16.0003L10.7665 12.147C10.5172 11.8977 10.3771 11.5596 10.3771 11.207C10.3771 10.8544 10.5172 10.5163 10.7665 10.267C11.0158 10.0177 11.3539 9.87763 11.7065 9.87763C12.0591 9.87763 12.3972 10.0177 12.6465 10.267L16.4998 14.1203L20.3532 10.267C20.4766 10.1435 20.6232 10.0456 20.7844 9.97882C20.9457 9.91202 21.1186 9.87763 21.2932 9.87763C21.4677 9.87763 21.6406 9.91202 21.8019 9.97882C21.9632 10.0456 22.1097 10.1435 22.2332 10.267C22.3566 10.3904 22.4545 10.537 22.5213 10.6983C22.5881 10.8596 22.6225 11.0324 22.6225 11.207C22.6225 11.3816 22.5881 11.5544 22.5213 11.7157C22.4545 11.877 22.3566 12.0235 22.2332 12.147L18.3798 16.0003L22.2332 19.8537C22.7398 20.3603 22.7398 21.2137 22.2332 21.7337Z" fill="#E61C11"/>
</svg>
