<svg width="20" height="17" viewBox="0 0 20 17" fill="none" xmlns="http://www.w3.org/2000/svg">
<path d="M9.40039 0.599609H4.00039C3.04561 0.599609 2.12994 0.978894 1.45481 1.65403C0.779675 2.32916 0.400391 3.24483 0.400391 4.19961V12.5996C0.400391 13.5544 0.779675 14.4701 1.45481 15.1452C2.12994 15.8203 3.04561 16.1996 4.00039 16.1996H9.40039V0.599609ZM4.77559 5.57481C4.83133 5.51893 4.89754 5.4746 4.97043 5.44435C5.04332 5.41411 5.12147 5.39854 5.20039 5.39854C5.27931 5.39854 5.35746 5.41411 5.43035 5.44435C5.50325 5.4746 5.56946 5.51893 5.62519 5.57481L7.42519 7.37481C7.48098 7.43059 7.52523 7.49682 7.55542 7.56971C7.58561 7.6426 7.60115 7.72072 7.60115 7.79961C7.60115 7.8785 7.58561 7.95662 7.55542 8.02951C7.52523 8.1024 7.48098 8.16862 7.42519 8.22441C7.36941 8.2802 7.30318 8.32445 7.23029 8.35464C7.1574 8.38483 7.07928 8.40037 7.00039 8.40037C6.9215 8.40037 6.84338 8.38483 6.77049 8.35464C6.6976 8.32445 6.63138 8.2802 6.57559 8.22441L5.80039 7.44801V10.7996C5.80039 10.9587 5.73718 11.1114 5.62465 11.2239C5.51213 11.3364 5.35952 11.3996 5.20039 11.3996C5.04126 11.3996 4.88865 11.3364 4.77613 11.2239C4.66361 11.1114 4.60039 10.9587 4.60039 10.7996V7.44801L3.82519 8.22441C3.76941 8.2802 3.70318 8.32445 3.63029 8.35464C3.5574 8.38483 3.47928 8.40037 3.40039 8.40037C3.3215 8.40037 3.24338 8.38483 3.17049 8.35464C3.0976 8.32445 3.03138 8.2802 2.97559 8.22441C2.91981 8.16862 2.87555 8.1024 2.84536 8.02951C2.81517 7.95662 2.79963 7.8785 2.79963 7.79961C2.79963 7.72072 2.81517 7.6426 2.84536 7.56971C2.87555 7.49682 2.91981 7.43059 2.97559 7.37481L4.77559 5.57481ZM10.6004 16.1996H16.0004C16.9552 16.1996 17.8708 15.8203 18.546 15.1452C19.2211 14.4701 19.6004 13.5544 19.6004 12.5996V4.19961C19.6004 3.24483 19.2211 2.32916 18.546 1.65403C17.8708 0.978894 16.9552 0.599609 16.0004 0.599609H10.6004V16.1996ZM15.2252 11.2244C15.1695 11.2803 15.1032 11.3246 15.0304 11.3549C14.9575 11.3851 14.8793 11.4007 14.8004 11.4007C14.7215 11.4007 14.6433 11.3851 14.5704 11.3549C14.4975 11.3246 14.4313 11.2803 14.3756 11.2244L12.5756 9.42441C12.4629 9.31175 12.3996 9.15894 12.3996 8.99961C12.3996 8.84028 12.4629 8.68747 12.5756 8.57481C12.6883 8.46215 12.8411 8.39885 13.0004 8.39885C13.1597 8.39885 13.3125 8.46215 13.4252 8.57481L14.2004 9.35121V5.99961C14.2004 5.84048 14.2636 5.68787 14.3761 5.57535C14.4886 5.46282 14.6413 5.39961 14.8004 5.39961C14.9595 5.39961 15.1121 5.46282 15.2247 5.57535C15.3372 5.68787 15.4004 5.84048 15.4004 5.99961V9.35121L16.1756 8.57481C16.2883 8.46215 16.4411 8.39885 16.6004 8.39885C16.7597 8.39885 16.9125 8.46215 17.0252 8.57481C17.1379 8.68747 17.2011 8.84028 17.2011 8.99961C17.2011 9.15894 17.1379 9.31175 17.0252 9.42441L15.2252 11.2244Z" fill="#005E0E"/>
</svg>
