<svg width="100" height="80" viewBox="0 0 100 80" fill="none" xmlns="http://www.w3.org/2000/svg">
<mask id="mask0_88_172" style="mask-type:luminance" maskUnits="userSpaceOnUse" x="27" y="20" width="45" height="18">
<path d="M27.8501 20.9561H71.7133V37.2073H27.8501V20.9561Z" fill="white"/>
</mask>
<g mask="url(#mask0_88_172)">
<path d="M48.7388 36.4146C38.1289 35.0598 29.5381 31.3159 27.8516 27.5845C30.2375 30.661 37.5017 33.5858 46.2888 34.7068C57.3009 36.1126 66.5325 34.1556 66.9102 30.3343C67.2728 26.6601 59.3174 22.6035 48.9161 21.0459C49.3551 21.0923 49.7954 21.145 50.2385 21.2007C62.3482 22.746 71.8279 27.4049 71.4135 31.607C70.999 35.8076 60.8471 37.9598 48.7388 36.4146Z" fill="white"/>
</g>
<path d="M54.5122 8.51758V34.4102C55.6629 34.3792 56.7591 34.3034 57.7898 34.1872V10.6713L54.5122 8.51758Z" fill="white"/>
<path d="M41.4883 28.8378V33.1421C42.5531 33.3744 43.6493 33.5772 44.7659 33.7522V8.51758L41.4883 10.6713V28.8378Z" fill="white"/>
<path d="M54.5122 37.623V49.1581L57.7898 47.0043V37.6339C57.3194 37.6478 56.8409 37.654 56.3542 37.654C55.7474 37.654 55.1326 37.6432 54.5122 37.623Z" fill="white"/>
<path d="M41.4883 47.0037L44.7659 49.1574V36.5262C43.6479 36.3125 42.5531 36.071 41.4883 35.8047V47.0037Z" fill="white"/>
<mask id="mask1_88_172" style="mask-type:luminance" maskUnits="userSpaceOnUse" x="47" y="0" width="3" height="35">
<path d="M47.9795 0H49.7246V34.4347H47.9795V0Z" fill="white"/>
</mask>
<g mask="url(#mask1_88_172)">
<path d="M48 1.08487V34.1617C48.5494 34.2175 49.0962 34.2624 49.6388 34.2995V0.00878906L48 1.08487Z" fill="white"/>
</g>
<mask id="mask2_88_172" style="mask-type:luminance" maskUnits="userSpaceOnUse" x="49" y="0" width="3" height="35">
<path d="M49.3755 0H51.4697V34.4347H49.3755V0Z" fill="white"/>
</mask>
<g mask="url(#mask2_88_172)">
<path d="M49.6382 0.00878906V34.2995C50.189 34.3382 50.7357 34.3677 51.2784 34.3893V1.08487L49.6382 0.00878906Z" fill="white"/>
</g>
<mask id="mask3_88_172" style="mask-type:luminance" maskUnits="userSpaceOnUse" x="49" y="37" width="3" height="21">
<path d="M49.3755 37.209H51.4697V57.6716H49.3755V37.209Z" fill="white"/>
</mask>
<g mask="url(#mask3_88_172)">
<path d="M51.2784 56.5879V37.4258C50.7344 37.3794 50.1876 37.3237 49.6382 37.2617V57.664L51.2784 56.5879Z" fill="white"/>
</g>
<mask id="mask4_88_172" style="mask-type:luminance" maskUnits="userSpaceOnUse" x="47" y="36" width="3" height="22">
<path d="M47.9795 36.8125H49.7246V57.6715H47.9795V36.8125Z" fill="white"/>
</mask>
<g mask="url(#mask4_88_172)">
<path d="M48 37.0596V56.5901L49.6388 57.6662V37.2639C49.3157 37.2283 48.9912 37.1896 48.6667 37.1494C48.4445 37.12 48.2222 37.0905 48 37.0596Z" fill="white"/>
</g>
<path d="M11.987 61.7334H14.4302V61.7891C14.2448 61.8511 14.0757 61.9362 13.923 62.0431C13.773 62.1468 13.6299 62.314 13.4922 62.5447C13.3572 62.777 13.2141 63.113 13.0613 63.5542L10.2364 71.7603L8.90026 72.8194L8.93844 72.4974L6.95878 66.719L5.20818 71.7603L3.87205 72.8194L3.91022 72.4974L0.583534 62.7553C0.520818 62.554 0.432197 62.3574 0.316308 62.1669C0.199056 61.978 0.0940744 61.8325 0 61.7334H3.63209V61.7891C3.3226 61.8232 3.06628 61.8882 2.86314 61.9873C2.65863 62.0864 2.53183 62.2583 2.48138 62.5014C2.43366 62.7414 2.48684 63.0866 2.63954 63.5356L5.1591 71.1162L6.81699 66.2793L5.60629 62.7553C5.54358 62.554 5.45495 62.3574 5.33907 62.1669C5.2259 61.978 5.12092 61.8325 5.02276 61.7334H8.6603V61.7891C8.35081 61.8232 8.09449 61.8882 7.89135 61.9873C7.68684 62.0864 7.56004 62.2583 7.50959 62.5014C7.46188 62.7414 7.51232 63.0866 7.6623 63.5356L10.1819 71.1162L12.7723 63.5356C12.9209 63.0944 12.9755 62.7615 12.9359 62.5385C12.895 62.3125 12.7887 62.1468 12.6142 62.0431C12.4424 61.9362 12.2338 61.8511 11.987 61.7891V61.7334Z" fill="white"/>
<path d="M23.592 69.1406L23.6411 69.1715L22.9539 72.2744L22.8721 72.6088L22.4249 72.2744H15.4443V72.2001C15.7197 72.0886 15.957 71.9492 16.1533 71.7789C16.3524 71.6055 16.4533 71.3857 16.4533 71.1162V62.5881C16.4533 62.3202 16.3524 62.1329 16.1533 62.0245C15.957 61.9176 15.7197 61.8449 15.4443 61.8077V61.7334H22.6867L23.1666 64.3036L23.1121 64.3346C22.7849 63.7942 22.4863 63.3498 22.2177 63.003C21.9477 62.6562 21.6423 62.3992 21.3015 62.2289C20.9634 62.0601 20.5189 61.9749 19.9708 61.9749H18.1384V66.88H19.4636C19.994 66.88 20.418 66.8289 20.7343 66.7252C21.0534 66.6184 21.3042 66.4403 21.4869 66.1926C21.6682 65.9417 21.8114 65.598 21.9177 65.1645V68.8247C21.8114 68.3912 21.6682 68.0537 21.4869 67.809C21.3042 67.5613 21.0534 67.3863 20.7343 67.2826C20.418 67.1758 19.994 67.1216 19.4636 67.1216H18.1384V72.0329H20.1017C20.6498 72.0329 21.1161 71.9276 21.4978 71.717C21.8823 71.5064 22.2395 71.1875 22.5667 70.757C22.8939 70.3235 23.2348 69.7847 23.592 69.1406Z" fill="white"/>
<path d="M29.0274 66.053C29.6818 66.2233 30.2108 66.4339 30.6144 66.6847C31.0207 66.9371 31.3342 67.2096 31.5524 67.5023C31.7705 67.7918 31.9205 68.0891 32.005 68.3941C32.0882 68.7007 32.1305 68.9886 32.1305 69.2612C32.1305 69.8526 31.9859 70.393 31.6996 70.8838C31.412 71.3762 30.9961 71.7663 30.4508 72.0543C29.9081 72.3392 29.2482 72.4817 28.4711 72.4817C27.6817 72.4817 26.9836 72.3423 26.3769 72.0667C25.7729 71.7911 25.2889 71.4567 24.9263 71.0634L26.137 68.8957C26.0892 69.4082 26.1397 69.8712 26.2897 70.283C26.4424 70.6965 26.6605 71.0495 26.9441 71.3421C27.2277 71.6316 27.5494 71.853 27.9094 72.0048C28.272 72.1534 28.6456 72.2277 29.0274 72.2277C29.54 72.2277 29.9299 72.1132 30.1999 71.8809C30.4685 71.6502 30.6539 71.3715 30.7562 71.0448C30.857 70.7197 30.9089 70.4162 30.9089 70.1344C30.9089 69.6606 30.808 69.2906 30.6089 69.0258C30.4126 68.7579 30.1263 68.5458 29.7527 68.3879C29.3819 68.2269 28.9306 68.0767 28.4002 67.9358C27.5522 67.7051 26.8964 67.4016 26.4315 67.0254C25.9693 66.646 25.6434 66.2326 25.4553 65.7867C25.2698 65.3408 25.1771 64.9073 25.1771 64.4861C25.1771 63.8714 25.3203 63.3435 25.608 62.9006C25.8984 62.4594 26.3033 62.1187 26.8241 61.8787C27.3477 61.6403 27.9585 61.5195 28.6565 61.5195C29.4228 61.5195 30.0772 61.6527 30.6198 61.9159C31.1652 62.1807 31.6151 62.5043 31.9723 62.8883L30.7343 65.0745C30.8134 64.3808 30.7289 63.7894 30.478 63.297C30.2272 62.8015 29.8809 62.4222 29.4418 62.1574C29.0056 61.8896 28.5393 61.7549 28.0457 61.7549C27.6272 61.7549 27.2986 61.8462 27.0586 62.0274C26.8214 62.2101 26.6551 62.4408 26.5569 62.721C26.4615 63.0028 26.4151 63.2939 26.4151 63.5943C26.4151 64.1362 26.5351 64.5635 26.775 64.8763C27.0177 65.186 27.3381 65.4306 27.7349 65.6071C28.1343 65.7805 28.5652 65.9292 29.0274 66.053Z" fill="white"/>
<path d="M42.4051 61.7334L41.5598 64.8362H41.5053C41.5925 63.8128 41.4248 63.0773 41.0035 62.6314C40.585 62.1824 40.0137 61.9564 39.2911 61.9564H38.653V71.2649C38.653 71.6086 38.7635 71.8393 38.9857 71.9585C39.2066 72.0793 39.5215 72.1598 39.9292 72.2001V72.2744H35.6972V72.2001C36.1035 72.1598 36.4171 72.0793 36.6352 71.9585C36.8561 71.8393 36.9679 71.6086 36.9679 71.2649V61.9564H36.9188C36.2453 61.9564 35.6972 62.0554 35.2718 62.2536C34.8464 62.4487 34.4919 62.7553 34.2083 63.1764C33.9275 63.5976 33.6589 64.1519 33.4012 64.8362H33.3467L33.7884 61.7334H42.4051Z" fill="white"/>
<path d="M52.3795 66.174C53.2193 66.2731 53.8969 66.5363 54.4136 66.9605C54.929 67.3817 55.1881 68.0041 55.1881 68.8247C55.1881 69.5184 55.004 70.1238 54.6372 70.6394C54.2732 71.1565 53.7701 71.5591 53.1266 71.8471C52.4858 72.1319 51.7496 72.2744 50.9179 72.2744H46.5005V72.2001C46.7759 72.0886 47.0131 71.9492 47.2095 71.7789C47.4085 71.6055 47.5094 71.3857 47.5094 71.1162V62.5881C47.5094 62.3202 47.4085 62.1329 47.2095 62.0245C47.0131 61.9176 46.7759 61.8449 46.5005 61.8077V61.7334H50.3889C51.1047 61.7334 51.7605 61.7922 52.3576 61.9068C52.9535 62.0229 53.4279 62.232 53.781 62.5323C54.1369 62.8296 54.3155 63.2616 54.3155 63.8267C54.3155 64.3888 54.1301 64.8842 53.7592 65.3131C53.3884 65.7389 52.9275 66.0254 52.3795 66.174ZM50.3616 61.9749H49.1946V66.1306H51.3433C51.5832 66.1306 51.8041 66.0935 52.0086 66.0192C52.2118 65.9417 52.3713 65.7869 52.4885 65.5547C52.6085 65.324 52.6685 64.9787 52.6685 64.5204C52.6685 64.0373 52.5894 63.6069 52.434 63.226C52.2813 62.842 52.0359 62.5385 51.6978 62.3156C51.3624 62.0895 50.9179 61.9749 50.3616 61.9749ZM51.1033 72.0205C51.6773 72.0205 52.1409 71.9554 52.494 71.8223C52.8498 71.6907 53.1102 71.4367 53.2738 71.0605C53.4375 70.6858 53.5193 70.13 53.5193 69.3945C53.5193 69.0353 53.4879 68.6792 53.4265 68.3231C53.3638 67.9639 53.237 67.6403 53.0448 67.3507C52.8553 67.0581 52.5758 66.8243 52.2049 66.6509C51.8341 66.4744 51.3337 66.3846 50.7052 66.3846H49.1946V71.686C49.8599 71.909 50.4952 72.0205 51.1033 72.0205Z" fill="white"/>
<path d="M64.0636 70.2863C64.3281 70.6874 64.5653 71.0079 64.7725 71.2463C64.9798 71.4816 65.1843 71.6721 65.3888 71.8161C65.5919 71.9616 65.8087 72.0994 66.0378 72.231V72.2744H63.3055V72.0205L60.7969 68.0134H59.1662V71.4135C59.1662 71.686 59.2658 71.8765 59.4662 71.9833C59.6652 72.087 59.9025 72.1598 60.1752 72.2001V72.2744H56.4722V72.2001C56.7476 72.1598 56.9848 72.087 57.1811 71.9833C57.3802 71.8765 57.4811 71.686 57.4811 71.4135V62.5881C57.4811 62.3202 57.3802 62.1329 57.1811 62.0245C56.9848 61.9176 56.7476 61.8449 56.4722 61.8077V61.7334H61.3804C62.5284 61.7334 63.4269 61.9656 64.0745 62.427C64.7207 62.8854 65.0452 63.5976 65.0452 64.5637C65.0452 65.3286 64.8134 65.9928 64.3526 66.558C63.8945 67.1247 63.2619 67.5288 62.4548 67.7719L64.0636 70.2863ZM59.1662 61.9997V67.4065C59.8752 67.6387 60.5733 67.7533 61.2604 67.7533C61.7403 67.7533 62.1357 67.6821 62.4493 67.5365C62.7615 67.3925 62.996 67.1324 63.1528 66.7562C63.3082 66.3768 63.3873 65.8427 63.3873 65.1521C63.3873 64.7604 63.3519 64.3764 63.2837 64.0001C63.2183 63.6208 63.0887 63.2848 62.8965 62.9906C62.707 62.6934 62.4343 62.4549 62.0785 62.2722C61.7212 62.0911 61.2509 61.9997 60.666 61.9997H59.1662Z" fill="white"/>
<path d="M72.1374 61.5195C72.8532 61.5195 73.5186 61.6465 74.1334 61.8973C74.747 62.1451 75.2842 62.5089 75.7423 62.9873C76.2031 63.4627 76.563 64.0402 76.8221 64.7215C77.0838 65.3996 77.2147 66.1583 77.2147 67.0006C77.2147 67.8429 77.0838 68.6031 76.8221 69.2797C76.563 69.9579 76.2031 70.5354 75.7423 71.0139C75.2842 71.4892 74.747 71.853 74.1334 72.1039C73.5186 72.3547 72.8532 72.4817 72.1374 72.4817C71.4203 72.4817 70.7549 72.3547 70.1414 72.1039C69.5265 71.853 68.988 71.4892 68.5272 71.0139C68.0691 70.5354 67.7091 69.9579 67.4473 69.2797C67.1856 68.6031 67.0547 67.8429 67.0547 67.0006C67.0547 66.1583 67.1856 65.3996 67.4473 64.7215C67.7091 64.0402 68.0691 63.4627 68.5272 62.9873C68.988 62.5089 69.5265 62.1451 70.1414 61.8973C70.7549 61.6465 71.4203 61.5195 72.1374 61.5195ZM72.6937 72.2092C73.25 72.2092 73.7312 72.0327 74.1389 71.6765C74.5452 71.322 74.8615 70.8219 75.0878 70.1778C75.3128 69.5337 75.4259 68.7951 75.4259 67.9606C75.4259 67.2096 75.3332 66.468 75.1478 65.7372C74.9624 65.0033 74.6965 64.3406 74.3516 63.7491C74.0053 63.1546 73.599 62.6808 73.13 62.3247C72.661 61.9654 72.1442 61.7858 71.5812 61.7858C71.0317 61.7858 70.5477 61.9654 70.1305 62.3247C69.716 62.6808 69.3956 63.1731 69.1707 63.8049C68.9444 64.4366 68.8326 65.1767 68.8326 66.0221C68.8326 66.7745 68.9266 67.5193 69.1161 68.2578C69.3084 68.9979 69.577 69.6637 69.9233 70.2583C70.2682 70.8497 70.6731 71.322 71.1394 71.6765C71.6084 72.0327 72.1265 72.2092 72.6937 72.2092Z" fill="white"/>
<path d="M84.0456 61.5195C84.7614 61.5195 85.4268 61.6465 86.0416 61.8973C86.6552 62.1451 87.1924 62.5089 87.6505 62.9873C88.1113 63.4627 88.4712 64.0402 88.7303 64.7215C88.992 65.3996 89.1229 66.1583 89.1229 67.0006C89.1229 67.8429 88.992 68.6031 88.7303 69.2797C88.4712 69.9579 88.1113 70.5354 87.6505 71.0139C87.1924 71.4892 86.6552 71.853 86.0416 72.1039C85.4268 72.3547 84.7614 72.4817 84.0456 72.4817C83.3285 72.4817 82.6632 72.3547 82.0496 72.1039C81.4347 71.853 80.8962 71.4892 80.4354 71.0139C79.9773 70.5354 79.6173 69.9579 79.3555 69.2797C79.0938 68.6031 78.9629 67.8429 78.9629 67.0006C78.9629 66.1583 79.0938 65.3996 79.3555 64.7215C79.6173 64.0402 79.9773 63.4627 80.4354 62.9873C80.8962 62.5089 81.4347 62.1451 82.0496 61.8973C82.6632 61.6465 83.3285 61.5195 84.0456 61.5195ZM84.6019 72.2092C85.1582 72.2092 85.6394 72.0327 86.0471 71.6765C86.4534 71.322 86.7697 70.8219 86.996 70.1778C87.221 69.5337 87.3342 68.7951 87.3342 67.9606C87.3342 67.2096 87.2414 66.468 87.056 65.7372C86.8706 65.0033 86.6047 64.3406 86.2598 63.7491C85.9135 63.1546 85.5072 62.6808 85.0382 62.3247C84.5692 61.9654 84.0525 61.7858 83.4894 61.7858C82.9399 61.7858 82.4559 61.9654 82.0387 62.3247C81.6242 62.6808 81.3038 63.1731 81.0789 63.8049C80.8526 64.4366 80.7408 65.1767 80.7408 66.0221C80.7408 66.7745 80.8348 67.5193 81.0243 68.2578C81.2166 68.9979 81.4852 69.6637 81.8315 70.2583C82.1764 70.8497 82.5813 71.322 83.0476 71.6765C83.5166 72.0327 84.0347 72.2092 84.6019 72.2092Z" fill="white"/>
<path d="M93.1667 71.4135C93.1667 71.686 93.2663 71.8765 93.4667 71.9833C93.6657 72.087 93.903 72.1598 94.1756 72.2001V72.2744H90.4727V72.2001C90.7481 72.1598 90.9853 72.087 91.1816 71.9833C91.3807 71.8765 91.4816 71.686 91.4816 71.4135V62.5881C91.4816 62.3202 91.3807 62.1329 91.1816 62.0245C90.9853 61.9176 90.7481 61.8449 90.4727 61.8077V61.7334H94.1756V61.8077C93.903 61.8449 93.6657 61.9176 93.4667 62.0245C93.2663 62.1329 93.1667 62.3202 93.1667 62.5881V71.4135ZM100 72.2744H97.2787V72.0205L93.963 67.3817H93.2049L97.6114 62.5447C97.6987 62.4549 97.7546 62.362 97.7805 62.266C97.8091 62.1716 97.7641 62.0849 97.6441 62.0059C97.5241 61.9238 97.2869 61.8619 96.9352 61.8201L96.9624 61.7334H99.6401L99.6129 61.8201C99.2857 61.8619 98.9203 61.9997 98.5167 62.2351C98.1159 62.4704 97.6237 62.9101 97.0388 63.5542L94.8792 65.9325L98.0204 70.2863C98.3286 70.6997 98.5876 71.0295 98.7948 71.2773C99.0048 71.5219 99.1998 71.7154 99.3784 71.8594C99.5597 72.005 99.7669 72.1428 100 72.2744Z" fill="white"/>
<path d="M34.0286 79.2892H32.8997V79.1901L33.0087 79.1777C33.0701 79.1746 33.1137 79.1638 33.1396 79.1467C33.1642 79.1266 33.1778 79.0941 33.1778 79.0477C33.1778 78.9702 33.1233 78.7906 33.0142 78.5088H32.2289L32.1798 78.6699C32.1103 78.8603 32.0762 78.9795 32.0762 79.0291C32.0762 79.0786 32.098 79.1158 32.1416 79.1406C32.188 79.1653 32.263 79.1824 32.3652 79.1901V79.2892H31.6562V79.1901C31.7394 79.1746 31.8008 79.139 31.8417 79.0848C31.8812 79.0322 31.9317 78.9114 31.9944 78.7256L32.7742 76.5518H32.8669L33.6468 78.6389C33.7409 78.8866 33.8077 79.0415 33.8486 79.1034C33.8922 79.1622 33.9522 79.1901 34.0286 79.1901V79.2892ZM32.9651 78.354L32.6106 77.3879L32.2834 78.354H32.9651Z" fill="white"/>
<path d="M37.5836 77.333C37.5836 77.4863 37.5454 77.621 37.4691 77.7356C37.3927 77.8517 37.285 77.94 37.1473 78.0019C37.071 78.036 36.9864 78.0576 36.8964 78.07C36.8051 78.0793 36.6415 78.0855 36.4056 78.0886V78.8256C36.4056 78.9711 36.422 79.064 36.4547 79.1043C36.4874 79.1415 36.5719 79.1709 36.711 79.191V79.2901H35.5439V79.191C35.5944 79.1786 35.623 79.1724 35.6312 79.1724C35.7103 79.1647 35.7648 79.1353 35.7948 79.0857C35.8234 79.0362 35.8384 78.9495 35.8384 78.8256V77.0729C35.8384 76.9335 35.8194 76.8406 35.7839 76.7942C35.7471 76.7493 35.6667 76.7199 35.5439 76.7075V76.6084H36.6674C36.9578 76.6084 37.1827 76.6734 37.3436 76.8004C37.5031 76.9243 37.5836 77.1023 37.5836 77.333ZM36.9837 77.3516C36.9837 77.1379 36.951 76.9846 36.8855 76.8933C36.8228 76.7988 36.7219 76.7508 36.5801 76.7508C36.4629 76.7508 36.4056 76.7973 36.4056 76.8871V77.9523C36.6265 77.9523 36.7765 77.9152 36.8528 77.8409C36.9401 77.7542 36.9837 77.5916 36.9837 77.3516Z" fill="white"/>
<path d="M41.3738 79.2892H40.2449V79.1901L40.354 79.1777C40.4153 79.1746 40.4589 79.1638 40.4848 79.1467C40.5094 79.1266 40.523 79.0941 40.523 79.0477C40.523 78.9702 40.4685 78.7906 40.3594 78.5088H39.5741L39.525 78.6699C39.4555 78.8603 39.4214 78.9795 39.4214 79.0291C39.4214 79.0786 39.4432 79.1158 39.4868 79.1406C39.5332 79.1653 39.6082 79.1824 39.7104 79.1901V79.2892H39.0015V79.1901C39.0846 79.1746 39.146 79.139 39.1869 79.0848C39.2264 79.0322 39.2769 78.9114 39.3396 78.7256L40.1195 76.5518H40.2122L40.992 78.6389C41.0861 78.8866 41.1529 79.0415 41.1938 79.1034C41.2374 79.1622 41.2974 79.1901 41.3738 79.1901V79.2892ZM40.3103 78.354L39.9558 77.3879L39.6286 78.354H40.3103Z" fill="white"/>
<path d="M45.3333 79.2901H44.6134L43.8935 78.0514H43.8008V78.8256C43.8008 78.9665 43.8172 79.0594 43.8499 79.1043C43.8853 79.1461 43.9712 79.1755 44.1062 79.191V79.2901H42.9282V79.191C43.0618 79.1755 43.1464 79.1461 43.1791 79.1043C43.2145 79.064 43.2336 78.9711 43.2336 78.8256V77.0729C43.2336 76.9335 43.2132 76.8406 43.1736 76.7942C43.1368 76.7493 43.055 76.7199 42.9282 76.7075V76.6084H44.0517C44.368 76.6084 44.6093 76.6703 44.777 76.7942C44.9474 76.915 45.0333 77.0884 45.0333 77.3144C45.0333 77.5002 44.9801 77.6489 44.8752 77.7604C44.7906 77.8471 44.6625 77.9214 44.4879 77.9833L45.186 79.1167C45.2215 79.1662 45.2705 79.191 45.3333 79.191V79.2901ZM44.4389 77.333C44.4389 77.1224 44.4021 76.9723 44.3298 76.8809C44.2603 76.7911 44.1457 76.7447 43.9862 76.7447C43.899 76.7447 43.8444 76.7663 43.8226 76.8066C43.8076 76.8437 43.8008 76.8794 43.8008 76.9119V77.9214C44.0326 77.9214 44.1907 77.8889 44.2753 77.8223C44.3843 77.7402 44.4389 77.5776 44.4389 77.333Z" fill="white"/>
<path d="M48.9206 77.4073H48.817C48.787 77.172 48.7215 77.0048 48.6207 76.9057C48.5184 76.8035 48.3616 76.7477 48.1516 76.7385V78.8256C48.1516 78.9789 48.1694 79.0764 48.2062 79.1167C48.2457 79.1538 48.3398 79.1786 48.4898 79.191V79.2901H47.2463V79.191C47.395 79.1786 47.4877 79.1523 47.5245 79.1105C47.564 79.0702 47.5845 78.9742 47.5845 78.8256V76.7385C47.3663 76.7477 47.2054 76.8035 47.1046 76.9057C47.0064 77.0048 46.9409 77.172 46.9082 77.4073H46.8101L46.821 76.6084H48.9151L48.9206 77.4073Z" fill="white"/>
<path d="M53.5879 79.2901H52.4317V79.191C52.5626 79.1786 52.6458 79.1538 52.6826 79.1167C52.7221 79.0795 52.7426 79.0052 52.7426 78.8937V76.8747L51.8646 79.2901H51.7664L50.8884 76.9366V78.8008C50.8884 78.9464 50.9115 79.0455 50.9593 79.0981C51.0056 79.1477 51.1011 79.1786 51.2428 79.191V79.2901H50.4248V79.191C50.5584 79.1755 50.6443 79.1477 50.6811 79.1105C50.7207 79.0733 50.7411 78.9959 50.7411 78.8751V76.9924C50.7411 76.8902 50.7207 76.819 50.6811 76.7818C50.6402 76.7447 50.5571 76.7199 50.4303 76.7075V76.6084H51.3137L52.0118 78.4788L52.7099 76.6084H53.5879V76.7075C53.4597 76.7199 53.3766 76.7493 53.337 76.7942C53.3002 76.8406 53.2825 76.9335 53.2825 77.0729V78.8256C53.2825 78.9665 53.2988 79.0594 53.3316 79.1043C53.367 79.1461 53.4529 79.1755 53.5879 79.191V79.2901Z" fill="white"/>
<path d="M57.2527 78.4664L57.1164 79.2901H55.0713V79.191C55.2022 79.1755 55.2853 79.1507 55.3222 79.1167C55.3617 79.0842 55.3821 79.016 55.3821 78.9123V76.9924C55.3821 76.8902 55.3603 76.819 55.3167 76.7818C55.2758 76.7416 55.194 76.7168 55.0713 76.7075V76.6084H57.0891V77.4073H57.0019C56.9541 77.1441 56.8737 76.9676 56.7619 76.8809C56.6528 76.7911 56.4565 76.7447 56.1729 76.7447C56.0816 76.7447 56.0202 76.757 55.9875 76.7818C55.9575 76.8066 55.9439 76.8561 55.9439 76.9304V77.8533C56.132 77.8533 56.267 77.813 56.3474 77.7294C56.4306 77.6427 56.4851 77.4863 56.511 77.2587H56.6037V78.6026H56.511C56.4892 78.3719 56.4361 78.2109 56.3529 78.1196C56.2724 78.0298 56.1361 77.9833 55.9439 77.9833V78.9433C55.9439 79.03 55.963 79.0904 56.0039 79.1229C56.0475 79.1523 56.1238 79.1662 56.2329 79.1662C56.4947 79.1662 56.7046 79.095 56.8655 78.9495C56.9705 78.8473 57.0673 78.6863 57.1546 78.4664H57.2527Z" fill="white"/>
<path d="M61.1392 76.7075C61.022 76.7292 60.9484 76.7601 60.9156 76.8004C60.8829 76.8376 60.8666 76.915 60.8666 77.0295V79.3644H60.7684L59.2087 77.203V78.8008C59.2087 78.9417 59.2278 79.0393 59.2687 79.0919C59.3123 79.1415 59.4023 79.1755 59.5413 79.191V79.2901H58.7451V79.191C58.8719 79.1755 58.9551 79.1461 58.996 79.1043C59.0355 79.064 59.056 78.9866 59.056 78.8751V76.9924C58.9714 76.8809 58.9101 76.8066 58.8705 76.7694C58.8296 76.7292 58.7915 76.7075 58.756 76.7075V76.6084H59.4923L60.7139 78.3116V77.1039C60.7139 76.9645 60.6893 76.867 60.643 76.8128C60.5993 76.7601 60.5134 76.7245 60.3866 76.7075V76.6084H61.1392V76.7075Z" fill="white"/>
<path d="M64.777 77.4073H64.6734C64.6434 77.172 64.578 77.0048 64.4771 76.9057C64.3748 76.8035 64.2181 76.7477 64.0081 76.7385V78.8256C64.0081 78.9789 64.0258 79.0764 64.0626 79.1167C64.1022 79.1538 64.1962 79.1786 64.3462 79.191V79.2901H63.1028V79.191C63.2514 79.1786 63.3441 79.1523 63.3809 79.1105C63.4205 79.0702 63.4409 78.9742 63.4409 78.8256V76.7385C63.2228 76.7477 63.0619 76.8035 62.961 76.9057C62.8628 77.0048 62.7974 77.172 62.7647 77.4073H62.6665L62.6774 76.6084H64.7716L64.777 77.4073Z" fill="white"/>
<path d="M68.0204 78.5268C68.0204 78.7745 67.9399 78.9773 67.7804 79.1337C67.6236 79.287 67.4164 79.3629 67.1587 79.3629C67.0169 79.3629 66.8642 79.3319 66.7006 79.27C66.6311 79.2421 66.5833 79.2266 66.5588 79.2266C66.5288 79.2266 66.507 79.2375 66.4934 79.2576C66.4784 79.2793 66.4661 79.3133 66.4552 79.3629H66.3516V78.3843H66.4552C66.4838 78.5299 66.5124 78.6414 66.5424 78.7188C66.5711 78.7977 66.6106 78.8736 66.6624 78.9479C66.796 79.1384 66.9651 79.2328 67.1696 79.2328C67.3032 79.2328 67.4096 79.1941 67.4859 79.1151C67.565 79.0331 67.6059 78.9231 67.6059 78.7869C67.6059 78.6801 67.5786 78.5934 67.5241 78.5268C67.4723 78.4617 67.3687 78.3874 67.2132 78.3038L66.9842 78.18C66.6815 78.0158 66.4947 77.83 66.4225 77.6226C66.3966 77.5405 66.3843 77.4522 66.3843 77.3562C66.3843 77.1085 66.4511 76.9134 66.5861 76.7679C66.7238 76.6239 66.9106 76.5511 67.1478 76.5511C67.2787 76.5511 67.415 76.5805 67.5568 76.6378C67.625 76.6672 67.6741 76.6812 67.7041 76.6812C67.7368 76.6812 67.76 76.6734 67.7749 76.6564C67.7886 76.6363 67.8036 76.5991 67.8186 76.5449H67.9222V77.4058H67.824C67.7872 77.2788 67.7531 77.1797 67.7204 77.1085C67.6877 77.0342 67.64 76.963 67.5786 76.8917C67.4505 76.7478 67.3073 76.675 67.1478 76.675C67.0305 76.675 66.9378 76.7106 66.8697 76.7803C66.8001 76.8515 66.766 76.9475 66.766 77.0714C66.766 77.1673 66.7892 77.2448 66.8369 77.3067C66.8874 77.3686 66.9842 77.4399 67.126 77.5173L67.6386 77.8084C67.7504 77.8703 67.8418 77.9694 67.9113 78.1056C67.9835 78.2388 68.0204 78.3781 68.0204 78.5268Z" fill="white"/>
</svg>
