<svg width="18" height="16" viewBox="0 0 18 16" fill="none" xmlns="http://www.w3.org/2000/svg">
<path d="M3.077 14L1.373 15.704C1.12033 15.9567 0.828333 16.0147 0.497 15.878C0.165667 15.7413 0 15.493 0 15.133V1.616C0 1.15533 0.154333 0.771 0.463 0.463C0.771667 0.155 1.156 0.000666667 1.616 0H16.385C16.845 0 17.2293 0.154333 17.538 0.463C17.8467 0.771667 18.0007 1.156 18 1.616V12.385C18 12.845 17.846 13.2293 17.538 13.538C17.23 13.8467 16.8457 14.0007 16.385 14H3.077ZM5 7.77C5.20667 7.77 5.38667 7.69333 5.54 7.54C5.69333 7.38667 5.77 7.20667 5.77 7C5.77 6.79333 5.69333 6.61333 5.54 6.46C5.38667 6.30667 5.20667 6.23 5 6.23C4.79333 6.23 4.61333 6.30667 4.46 6.46C4.30667 6.61333 4.23 6.79333 4.23 7C4.23 7.20667 4.30667 7.38667 4.46 7.54C4.61333 7.69333 4.79333 7.77 5 7.77ZM9 7.77C9.20667 7.77 9.38667 7.69333 9.54 7.54C9.69333 7.38667 9.77 7.20667 9.77 7C9.77 6.79333 9.69333 6.61333 9.54 6.46C9.38667 6.30667 9.20667 6.23 9 6.23C8.79333 6.23 8.61333 6.30667 8.46 6.46C8.30667 6.61333 8.23 6.79333 8.23 7C8.23 7.20667 8.30667 7.38667 8.46 7.54C8.61333 7.69333 8.79333 7.77 9 7.77ZM13 7.77C13.2067 7.77 13.3867 7.69333 13.54 7.54C13.6933 7.38667 13.77 7.20667 13.77 7C13.77 6.79333 13.6933 6.61333 13.54 6.46C13.3867 6.30667 13.2067 6.23 13 6.23C12.7933 6.23 12.6133 6.30667 12.46 6.46C12.3067 6.61333 12.23 6.79333 12.23 7C12.23 7.20667 12.3067 7.38667 12.46 7.54C12.6133 7.69333 12.7933 7.77 13 7.77Z" fill="#005E0E"/>
</svg>
