<svg width="28" height="23" viewBox="0 0 28 23" fill="none" xmlns="http://www.w3.org/2000/svg">
<path d="M8.80039 11.0001C10.1795 11.0001 11.5022 10.4522 12.4773 9.47705C13.4525 8.50186 14.0004 7.17922 14.0004 5.8001C14.0004 4.42097 13.4525 3.09833 12.4773 2.12314C11.5022 1.14795 10.1795 0.600098 8.80039 0.600098C7.42126 0.600098 6.09862 1.14795 5.12344 2.12314C4.14825 3.09833 3.60039 4.42097 3.60039 5.8001C3.60039 7.17922 4.14825 8.50186 5.12344 9.47705C6.09862 10.4522 7.42126 11.0001 8.80039 11.0001ZM17.8996 19.2321C18.7476 19.5793 19.826 19.8001 21.1988 19.8001C27.5988 19.8001 27.5988 15.0001 27.5988 15.0001C27.5988 14.3639 27.3462 13.7536 26.8964 13.3036C26.4467 12.8536 25.8366 12.6005 25.2004 12.6001H17.7956C18.4244 13.3617 18.802 14.3361 18.802 15.4001V15.9697C18.7986 16.1044 18.7895 16.2389 18.7748 16.3729C18.6658 17.3724 18.3679 18.3424 17.8996 19.2321ZM25.2004 7.0001C25.2004 8.06096 24.779 9.07838 24.0288 9.82853C23.2787 10.5787 22.2613 11.0001 21.2004 11.0001C20.1395 11.0001 19.1221 10.5787 18.372 9.82853C17.6218 9.07838 17.2004 8.06096 17.2004 7.0001C17.2004 5.93923 17.6218 4.92182 18.372 4.17167C19.1221 3.42153 20.1395 3.0001 21.2004 3.0001C22.2613 3.0001 23.2787 3.42153 24.0288 4.17167C24.779 4.92182 25.2004 5.93923 25.2004 7.0001ZM0.400391 15.8001C0.400391 14.9514 0.737532 14.1375 1.33765 13.5374C1.93777 12.9372 2.7517 12.6001 3.60039 12.6001H14.0004C14.8491 12.6001 15.663 12.9372 16.2631 13.5374C16.8632 14.1375 17.2004 14.9514 17.2004 15.8001C17.2004 15.8001 17.2004 22.2001 8.80039 22.2001C0.400391 22.2001 0.400391 15.8001 0.400391 15.8001Z" fill="#005E0E"/>
</svg>
