<svg width="15" height="19" viewBox="0 0 15 19" fill="none" xmlns="http://www.w3.org/2000/svg">
<path d="M13.6596 8.7C13.4296 8.4 13.1496 8.14 12.8896 7.88C12.2196 7.28 11.4596 6.85 10.8196 6.22C9.32956 4.76 8.99956 2.35 9.94956 0.5C8.99956 0.73 8.16956 1.25 7.45956 1.82C4.86956 3.9 3.84956 7.57 5.06956 10.72C5.10956 10.82 5.14956 10.92 5.14956 11.05C5.14956 11.27 4.99956 11.47 4.79956 11.55C4.56956 11.65 4.32956 11.59 4.13956 11.43C4.08281 11.3825 4.03534 11.3248 3.99956 11.26C2.86956 9.83 2.68956 7.78 3.44956 6.14C1.77956 7.5 0.869561 9.8 0.999561 11.97C1.05956 12.47 1.11956 12.97 1.28956 13.47C1.42956 14.07 1.69956 14.67 1.99956 15.2C3.07956 16.93 4.94956 18.17 6.95956 18.42C9.09956 18.69 11.3896 18.3 13.0296 16.82C14.8596 15.16 15.4996 12.5 14.5596 10.22L14.4296 9.96C14.2196 9.5 13.6596 8.7 13.6596 8.7ZM10.4996 15C10.2196 15.24 9.75956 15.5 9.39956 15.6C8.27956 16 7.15956 15.44 6.49956 14.78C7.68956 14.5 8.39956 13.62 8.60956 12.73C8.77956 11.93 8.45956 11.27 8.32956 10.5C8.20956 9.76 8.22956 9.13 8.49956 8.44C8.68956 8.82 8.88956 9.2 9.12956 9.5C9.89956 10.5 11.1096 10.94 11.3696 12.3C11.4096 12.44 11.4296 12.58 11.4296 12.73C11.4596 13.55 11.0996 14.45 10.4996 15Z" fill="#005E0E"/>
</svg>
