<svg width="24" height="25" viewBox="0 0 24 25" fill="none" xmlns="http://www.w3.org/2000/svg">
<path d="M14 5.5C14.2589 5.49999 14.5076 5.60036 14.694 5.78L14.781 5.875L18.48 10.5H19C19.7652 10.5 20.5015 10.7923 21.0583 11.3173C21.615 11.8422 21.9501 12.5601 21.995 13.324L22 13.5V17.5C22 17.7652 21.8946 18.0196 21.7071 18.2071C21.5196 18.3946 21.2652 18.5 21 18.5H19.829C19.622 19.0848 19.2388 19.5912 18.7322 19.9492C18.2256 20.3073 17.6204 20.4996 17 20.4996C16.3796 20.4996 15.7744 20.3073 15.2678 19.9492C14.7612 19.5912 14.378 19.0848 14.171 18.5H9.829C9.62198 19.0848 9.2388 19.5912 8.73217 19.9492C8.22555 20.3073 7.6204 20.4996 7 20.4996C6.3796 20.4996 5.77445 20.3073 5.26782 19.9492C4.7612 19.5912 4.37802 19.0848 4.171 18.5H3C2.73478 18.5 2.48043 18.3946 2.29289 18.2071C2.10536 18.0196 2 17.7652 2 17.5V11.5L2.007 11.383L2.015 11.327L2.032 11.249L2.044 11.213L2.058 11.163L4.072 6.129C4.14613 5.94344 4.27416 5.78434 4.43957 5.67223C4.60498 5.56011 4.80018 5.50013 5 5.5H14ZM7 16.5C6.73478 16.5 6.48043 16.6054 6.29289 16.7929C6.10536 16.9804 6 17.2348 6 17.5C6 17.7652 6.10536 18.0196 6.29289 18.2071C6.48043 18.3946 6.73478 18.5 7 18.5C7.26522 18.5 7.51957 18.3946 7.70711 18.2071C7.89464 18.0196 8 17.7652 8 17.5C8 17.2348 7.89464 16.9804 7.70711 16.7929C7.51957 16.6054 7.26522 16.5 7 16.5ZM17 16.5C16.7348 16.5 16.4804 16.6054 16.2929 16.7929C16.1054 16.9804 16 17.2348 16 17.5C16 17.7652 16.1054 18.0196 16.2929 18.2071C16.4804 18.3946 16.7348 18.5 17 18.5C17.2652 18.5 17.5196 18.3946 17.7071 18.2071C17.8946 18.0196 18 17.7652 18 17.5C18 17.2348 17.8946 16.9804 17.7071 16.7929C17.5196 16.6054 17.2652 16.5 17 16.5ZM11 7.5H5.676L4.476 10.5H11V7.5ZM13.52 7.5H13V10.5H15.92L13.52 7.5Z" fill="#005E0E"/>
</svg>
