<svg width="96" height="113" viewBox="0 0 96 113" fill="none" xmlns="http://www.w3.org/2000/svg">
<path d="M40.3606 40.9321C34.4816 40.5451 30.1612 34.8604 30.7108 28.235C31.2604 21.6095 36.4719 16.5523 42.351 16.9394C48.23 17.3264 52.5504 23.0111 52.0008 29.6365C51.4511 36.262 46.2397 41.3192 40.3606 40.9321Z" fill="url(#paint0_linear_6225_3221)"/>
<path d="M40.404 41.9521H41.2121V70.3713H40.404V41.9521Z" fill="#2F2E41"/>
<path d="M40.4562 39.9673L40.3944 41.5865L39.573 43.0855L43.0001 42.9298L41.5595 41.639L41.7224 40.1677L40.4562 39.9673Z" fill="url(#paint1_linear_6225_3221)"/>
<path d="M48.8369 81.3574H74.5877C77.5079 81.3574 79.8752 83.4574 79.8752 86.0479V108.199C79.8752 110.789 77.5079 112.889 74.5878 112.889H48.8369C45.9168 112.889 43.5495 110.789 43.5495 108.199V86.0479C43.5495 83.4574 45.9168 81.3574 48.8369 81.3574Z" fill="white"/>
<path d="M51.3181 113H88.2394C92.5186 113 96 109.898 96 106.086V74.1931C96 70.3811 92.5186 67.2798 88.2394 67.2798H51.3181C47.0389 67.2798 43.5575 70.3811 43.5575 74.1931V106.086C43.5575 109.898 47.0389 113 51.3181 113ZM88.2394 67.5996C92.3207 67.5996 95.641 70.5575 95.641 74.1931V106.086C95.641 109.722 92.3207 112.68 88.2394 112.68H51.3181C47.2368 112.68 43.9165 109.722 43.9165 106.086V74.1931C43.9165 70.5575 47.2368 67.5996 51.3181 67.5996H88.2394Z" fill="#3F3D56"/>
<path d="M55.2136 70.5781C54.7408 70.5781 54.3575 70.2366 54.3575 69.8154C54.3575 69.3942 54.7408 69.0527 55.2136 69.0527C55.6865 69.0527 56.0698 69.3942 56.0698 69.8154C56.0698 70.2366 55.6865 70.5781 55.2136 70.5781Z" fill="#3F3D56"/>
<path d="M52.8594 70.5781C52.3865 70.5781 52.0032 70.2366 52.0032 69.8154C52.0032 69.3942 52.3865 69.0527 52.8594 69.0527C53.3322 69.0527 53.7155 69.3942 53.7155 69.8154C53.7155 70.2366 53.3322 70.5781 52.8594 70.5781Z" fill="#3F3D56"/>
<path d="M50.5051 70.5781C50.0323 70.5781 49.649 70.2366 49.649 69.8154C49.649 69.3942 50.0323 69.0527 50.5051 69.0527C50.9779 69.0527 51.3612 69.3942 51.3612 69.8154C51.3612 70.2366 50.9779 70.5781 50.5051 70.5781Z" fill="#3F3D56"/>
<path d="M89.4497 101.674C89.7156 101.674 89.932 101.867 89.932 102.104C89.932 102.22 89.8819 102.326 89.791 102.405C89.6993 102.489 89.5792 102.534 89.4497 102.534H50.8355C50.5696 102.534 50.3532 102.341 50.3532 102.104C50.3532 101.988 50.4033 101.882 50.4942 101.803C50.5859 101.719 50.706 101.674 50.8355 101.674H89.4497Z" fill="#E6E6E6"/>
<path d="M68.8024 101.531V102.677H89.4496C89.6265 102.677 89.7873 102.614 89.903 102.508C90.022 102.405 90.0927 102.262 90.0927 102.104C90.0927 101.789 89.8033 101.531 89.4496 101.531L68.8024 101.531Z" fill="url(#paint2_linear_6225_3221)"/>
<path d="M51.6394 99.383H58.0707C58.78 99.383 59.357 98.8691 59.357 98.2372C59.357 97.6052 58.78 97.0913 58.0707 97.0913H51.6394C50.9301 97.0913 50.3531 97.6052 50.3531 98.2372C50.3531 98.8691 50.9301 99.383 51.6394 99.383Z" fill="#E6E6E6"/>
<path d="M75.8011 100.202L80.2969 86.7451L80.6411 86.8363L76.161 100.246" fill="#2F2E41"/>
<path d="M75.6455 69.5762C71.5421 69.3061 68.5267 65.3384 68.9103 60.7141C69.2939 56.0898 72.9313 52.5601 77.0347 52.8302C81.138 53.1004 84.1534 57.0681 83.7698 61.6923C83.3862 66.3166 79.7488 69.8463 75.6455 69.5762Z" fill="url(#paint3_linear_6225_3221)"/>
<path d="M75.8015 69.5762H76.1606V101.47H75.8015V69.5762Z" fill="#2F2E41"/>
<path d="M80.095 86.355L79.6919 87.4273L78.8075 88.2844L81.1349 88.7879L80.4596 87.6689L80.8972 86.7136L80.095 86.355Z" fill="url(#paint4_linear_6225_3221)"/>
<path d="M75.7123 68.9033L75.6692 70.0335L75.0959 71.0797L77.4879 70.971L76.4824 70.0701L76.5961 69.0432L75.7123 68.9033Z" fill="url(#paint5_linear_6225_3221)"/>
<path d="M79.974 86.6363C76.1311 85.3267 74.5234 80.7542 76.3831 76.4234C78.2428 72.0926 82.8658 69.6434 86.7087 70.953C90.5517 72.2626 92.1594 76.835 90.2996 81.1659C88.4399 85.4967 83.817 87.9459 79.974 86.6363Z" fill="url(#paint6_linear_6225_3221)"/>
<path d="M56.9132 87.4579C52.2377 87.4579 48.4475 84.0789 48.4475 79.9108C48.4475 75.7427 52.2377 72.3638 56.9132 72.3638C61.5886 72.3638 65.3788 75.7427 65.3788 79.9108C65.3788 84.0789 61.5886 87.4579 56.9132 87.4579Z" fill="url(#paint7_linear_6225_3221)"/>
<path d="M56.6724 82.7257C56.4819 82.726 56.2965 82.6711 56.1441 82.5692L56.1347 82.5629L54.1452 81.2061C54.053 81.1432 53.9757 81.0646 53.9176 80.975C53.8595 80.8854 53.8218 80.7864 53.8066 80.6838C53.7914 80.5812 53.799 80.4769 53.829 80.3769C53.859 80.2769 53.9108 80.1832 53.9814 80.101C54.0521 80.0189 54.1402 79.95 54.2407 79.8982C54.3412 79.8464 54.4522 79.8127 54.5673 79.7992C54.6824 79.7856 54.7994 79.7924 54.9116 79.8192C55.0237 79.8459 55.1289 79.8921 55.221 79.9551L56.5097 80.8361L59.5549 77.2944C59.6255 77.2122 59.7135 77.1433 59.814 77.0916C59.9145 77.0398 60.0254 77.0062 60.1405 76.9926C60.2556 76.9791 60.3725 76.9859 60.4846 77.0126C60.5967 77.0393 60.7018 77.0855 60.7939 77.1484L60.7942 77.1486L60.7753 77.172L60.7947 77.1486C60.9805 77.2759 61.1021 77.4638 61.1327 77.6709C61.1634 77.878 61.1006 78.0876 60.9582 78.2535L57.3764 82.4174C57.2935 82.5134 57.187 82.591 57.065 82.6443C56.9431 82.6976 56.809 82.7252 56.6731 82.7248L56.6724 82.7257Z" fill="white"/>
<path d="M39.1539 71.1942C39.5292 71.1937 39.8901 71.0661 40.1638 70.8372C40.4375 70.6084 40.6034 70.2954 40.6279 69.9616L40.8474 66.9733C40.8731 66.6243 40.7421 66.2805 40.4834 66.0175C40.2247 65.7545 39.8594 65.5939 39.4679 65.5711L13.2067 64.0379C12.7927 64.0135 12.3773 64.0621 11.9843 64.1809C11.5913 64.2997 11.2284 64.4864 10.9163 64.7302C10.6043 64.9741 10.3492 65.2704 10.1656 65.6022C9.98206 65.934 9.87362 66.2948 9.84651 66.6639C9.81939 67.0331 9.87412 67.4034 10.0076 67.7537C10.141 68.104 10.3506 68.4274 10.6243 68.7055C10.898 68.9835 11.2305 69.2108 11.6028 69.3743C11.975 69.5377 12.3798 69.6342 12.7939 69.6582L39.055 71.1913C39.0881 71.1932 39.1211 71.1942 39.1539 71.1942Z" fill="url(#paint8_linear_6225_3221)"/>
<path d="M33.9756 71.5793C34.3582 71.5788 34.7256 71.4463 35.0011 71.2096C35.2765 70.9729 35.4386 70.6504 35.4533 70.3097L35.6404 65.8463C35.6477 65.6733 35.6166 65.5006 35.549 65.3382C35.4815 65.1759 35.3787 65.027 35.2465 64.9C35.1144 64.7731 34.9554 64.6706 34.7789 64.5984C34.6023 64.5262 34.4115 64.4857 34.2173 64.4793L12.622 63.7597C12.23 63.7467 11.8481 63.873 11.5605 64.1109C11.2729 64.3488 11.1031 64.6789 11.0885 65.0284L10.9013 69.4917C10.8941 69.6648 10.9251 69.8374 10.9927 69.9998C11.0603 70.1622 11.1631 70.3111 11.2953 70.438C11.4274 70.565 11.5863 70.6675 11.7629 70.7397C11.9395 70.8119 12.1303 70.8523 12.3244 70.8588L33.9197 71.5783C33.9384 71.579 33.9571 71.5793 33.9756 71.5793Z" fill="#2F2E41"/>
<path d="M8.6694 112.723H12.0286C12.4208 112.722 12.7968 112.583 13.0742 112.336C13.3515 112.089 13.5075 111.754 13.5079 111.404V86.4448C13.5075 86.0952 13.3515 85.7599 13.0742 85.5127C12.7968 85.2654 12.4208 85.1264 12.0286 85.126H8.6694C8.27719 85.1264 7.90117 85.2654 7.62384 85.5127C7.3465 85.7599 7.1905 86.0952 7.19006 86.4448V111.404C7.1905 111.754 7.3465 112.089 7.62384 112.336C7.90117 112.583 8.27719 112.722 8.6694 112.723Z" fill="#2F2E41"/>
<path d="M23.5795 99.5296L26.4522 97.9774C26.7873 97.7958 27.028 97.5031 27.1214 97.1635C27.2149 96.8239 27.1533 96.4652 26.9504 96.1659L12.4382 74.8217C12.2345 74.5229 11.9062 74.3083 11.5253 74.225C11.1444 74.1417 10.742 74.1966 10.4063 74.3775L7.53368 75.9297C7.19851 76.1113 6.95782 76.404 6.86441 76.7436C6.771 77.0832 6.8325 77.442 7.03542 77.7412L21.5476 99.0854C21.7513 99.3842 22.0796 99.5988 22.4605 99.6821C22.8415 99.7654 23.2439 99.7105 23.5795 99.5296Z" fill="#2F2E41"/>
<path d="M13.7713 59.0787C7.3608 59.0787 2.1641 54.4459 2.1641 48.731C2.1641 43.0161 7.3608 38.3833 13.7713 38.3833C20.1817 38.3833 25.3784 43.0161 25.3784 48.731C25.3784 54.4459 20.1817 59.0787 13.7713 59.0787Z" fill="url(#paint9_linear_6225_3221)"/>
<path d="M20.0543 52.264C20.4276 52.1546 20.7704 51.9752 21.0595 51.7379C21.2511 51.5685 21.3988 51.3638 21.4922 51.1381C21.5857 50.9124 21.6227 50.6712 21.6006 50.4315C21.5885 50.2607 21.5322 50.0946 21.4361 49.9464C21.3401 49.7982 21.2069 49.6718 21.047 49.5771C20.6319 49.3397 20.0767 49.339 19.5115 49.5611L19.5329 45.5215L19.0777 45.5195L19.0526 50.2685L19.4033 50.0718C19.81 49.8442 20.3908 49.6839 20.8012 49.9186C20.9026 49.9807 20.9866 50.0627 21.0466 50.1584C21.1067 50.2541 21.1412 50.3608 21.1475 50.4703C21.1628 50.6489 21.1348 50.8283 21.0654 50.9964C20.996 51.1645 20.8867 51.3173 20.7451 51.4444C20.2425 51.8724 19.5092 52.0063 18.673 52.1259L18.7451 52.5265C19.1894 52.474 19.6276 52.3862 20.0543 52.264Z" fill="white"/>
<path d="M24.225 45.3175L24.2845 45.7197L21.8541 46.0059L21.7945 45.6036L24.225 45.3175Z" fill="#2F2E41"/>
<path d="M16.5534 46.2203L16.613 46.6226L14.1826 46.9087L14.123 46.5065L16.5534 46.2203Z" fill="white"/>
<path d="M4.07929 93.1413H23.6521C24.165 93.1408 24.6568 92.9589 25.0194 92.6356C25.3821 92.3123 25.5861 91.8739 25.5867 91.4167L21.4891 63.4039C21.4858 62.9488 21.2806 62.5133 20.9183 62.1926C20.556 61.8719 20.0661 61.6921 19.5555 61.6924H12.6094C9.83497 61.6952 7.17506 62.679 5.21323 64.4279C3.25141 66.1769 2.14789 68.5482 2.14476 71.0216V91.4167C2.14533 91.8739 2.34933 92.3123 2.712 92.6356C3.07467 92.9589 3.56639 93.1408 4.07929 93.1413Z" fill="#2F2E41"/>
<path d="M9.00794 91.6479C9.12696 91.8794 9.31848 92.0753 9.55944 92.2119C9.8004 92.3486 10.0805 92.4203 10.3661 92.4184L13.7252 92.3924C13.9195 92.3909 14.1115 92.3553 14.2903 92.2876C14.4691 92.22 14.6313 92.1216 14.7674 91.998C14.9036 91.8745 15.0112 91.7283 15.0839 91.5677C15.1567 91.4071 15.1933 91.2353 15.1916 91.0622L14.9634 67.6012C14.9598 67.2314 14.8745 66.8659 14.7125 66.5255C14.5504 66.185 14.3147 65.8764 14.0189 65.6172C13.723 65.358 13.3728 65.1532 12.9882 65.0147C12.6036 64.8761 12.1921 64.8065 11.7773 64.8097C11.3625 64.8129 10.9525 64.8889 10.5706 65.0334C10.1887 65.1779 9.84253 65.388 9.55176 65.6517C9.26099 65.9155 9.03135 66.2277 8.87593 66.5706C8.72052 66.9135 8.64237 67.2803 8.64597 67.6501L8.87402 91.111C8.87558 91.2964 8.92122 91.4794 9.00794 91.6479Z" fill="url(#paint10_linear_6225_3221)"/>
<path d="M7.52399 85.3854C7.64301 85.6168 7.83452 85.8127 8.07548 85.9493C8.31644 86.086 8.59658 86.1577 8.88217 86.1558L14.6196 86.1114C15.0118 86.1079 15.3864 85.966 15.6613 85.7166C15.9362 85.4672 16.089 85.1308 16.086 84.7812L15.8986 65.5164C15.8969 65.3432 15.857 65.172 15.7811 65.0126C15.7052 64.8531 15.5949 64.7086 15.4563 64.5872C15.3178 64.4658 15.1537 64.3699 14.9736 64.305C14.7935 64.2401 14.6008 64.2075 14.4065 64.209L8.66916 64.2534C8.4749 64.2549 8.28288 64.2905 8.10404 64.3581C7.92521 64.4258 7.76307 64.5242 7.6269 64.6477C7.49073 64.7712 7.38319 64.9175 7.31041 65.078C7.23764 65.2386 7.20107 65.4104 7.20277 65.5836L7.39007 84.8484C7.39169 85.0338 7.43733 85.2168 7.52399 85.3854Z" fill="#2F2E41"/>
<path d="M13.5544 42.5938C15.106 41.4491 17.1802 42.5318 18.9349 42.3781C20.6137 42.2311 21.9649 40.914 22.3331 39.4967C22.7626 37.8432 21.8315 36.1636 20.4288 35.1043C18.8926 33.9442 16.83 33.5837 14.8644 33.7602C12.6117 33.9625 10.5362 34.8618 8.66761 35.9603C6.86472 36.9868 5.20112 38.1959 3.71 39.5634C2.37388 40.8298 1.23237 42.3468 0.841366 44.0747C0.486017 45.645 0.694496 47.3952 1.71092 48.7478C2.2504 49.4413 2.98128 49.9992 3.83303 50.3677C4.72064 50.7751 5.67039 51.0716 6.52896 51.5298C7.82713 52.2226 9.07308 53.6345 8.63113 55.0743C8.53626 55.3889 8.35609 55.6778 8.10649 55.9157C7.80661 56.2014 7.28506 55.8084 7.58573 55.5219C8.11382 55.0189 8.10798 54.3359 7.84539 53.7202C7.53233 53.026 6.96411 52.4473 6.23381 52.0787C5.33507 51.6002 4.33802 51.2973 3.41576 50.8597C2.5326 50.4593 1.77105 49.8745 1.19592 49.1553C0.110754 47.7555 -0.184343 45.9528 0.103865 44.2946C0.415751 42.5002 1.48744 40.8829 2.81639 39.535C4.26267 38.068 6.02707 36.8355 7.82625 35.7318C9.75678 34.5475 11.8829 33.5547 14.2193 33.2221C16.2446 32.9338 18.4282 33.1694 20.1723 34.1799C21.8003 35.1231 23.0301 36.7191 23.1183 38.4806C23.1463 39.2819 22.9344 40.0753 22.5042 40.7793C22.0741 41.4833 21.4413 42.0724 20.6709 42.486C19.8809 42.8895 18.9688 43.0617 18.0631 42.9783C17.0946 42.9065 16.1296 42.6254 15.1521 42.6823C14.71 42.6987 14.2859 42.8432 13.9441 43.0938C13.6051 43.3439 13.2181 42.8419 13.5544 42.5938Z" fill="#2F2E41"/>
<path d="M27.2027 96.5267C27.1986 96.5038 27.1937 96.481 27.1881 96.4581C27.1477 96.2887 27.0699 96.1281 26.9593 95.9856C26.8487 95.8431 26.7075 95.7216 26.5439 95.6281L23.7211 94.0049C23.3912 93.8157 22.9907 93.7509 22.6073 93.8246C22.2239 93.8984 21.889 94.1047 21.676 94.3983L12.9681 106.434C12.7555 106.728 12.6826 107.085 12.7653 107.427C12.8481 107.769 13.0798 108.068 13.4094 108.257L16.2323 109.88C16.5622 110.07 16.9627 110.134 17.3461 110.061C17.7295 109.987 18.0644 109.781 18.2774 109.487L26.9853 97.4512C27.1843 97.1779 27.2618 96.8483 27.2027 96.5267Z" fill="#2F2E41"/>
<defs>
<linearGradient id="paint0_linear_6225_3221" x1="-9.85698" y1="16.2291" x2="-9.86757" y2="16.8799" gradientUnits="userSpaceOnUse">
<stop offset="0.0385425" stop-color="#00D21E"/>
<stop offset="0.378329" stop-color="#2D2264"/>
</linearGradient>
<linearGradient id="paint1_linear_6225_3221" x1="32.9187" y1="40.3197" x2="32.9221" y2="40.4041" gradientUnits="userSpaceOnUse">
<stop offset="0.0385425" stop-color="#00D21E"/>
<stop offset="0.378329" stop-color="#2D2264"/>
</linearGradient>
<linearGradient id="paint2_linear_6225_3221" x1="27.4637" y1="101.661" x2="27.4638" y2="101.692" gradientUnits="userSpaceOnUse">
<stop offset="0.0385425" stop-color="#00D21E"/>
<stop offset="0.378329" stop-color="#2D2264"/>
</linearGradient>
<linearGradient id="paint3_linear_6225_3221" x1="40.5957" y1="52.3345" x2="40.5883" y2="52.7887" gradientUnits="userSpaceOnUse">
<stop offset="0.0385425" stop-color="#00D21E"/>
<stop offset="0.378329" stop-color="#2D2264"/>
</linearGradient>
<linearGradient id="paint4_linear_6225_3221" x1="74.2884" y1="86.63" x2="74.2914" y2="86.6958" gradientUnits="userSpaceOnUse">
<stop offset="0.0385425" stop-color="#00D21E"/>
<stop offset="0.378329" stop-color="#2D2264"/>
</linearGradient>
<linearGradient id="paint5_linear_6225_3221" x1="70.4515" y1="69.1493" x2="70.4539" y2="69.2082" gradientUnits="userSpaceOnUse">
<stop offset="0.0385425" stop-color="#00D21E"/>
<stop offset="0.378329" stop-color="#2D2264"/>
</linearGradient>
<linearGradient id="paint6_linear_6225_3221" x1="51.968" y1="61.1462" x2="51.8421" y2="61.5873" gradientUnits="userSpaceOnUse">
<stop offset="0.0385425" stop-color="#00D21E"/>
<stop offset="0.378329" stop-color="#2D2264"/>
</linearGradient>
<linearGradient id="paint7_linear_6225_3221" x1="15.5727" y1="74.0699" x2="15.5886" y2="74.4782" gradientUnits="userSpaceOnUse">
<stop offset="0.0385425" stop-color="#00D21E"/>
<stop offset="0.378329" stop-color="#2D2264"/>
</linearGradient>
<linearGradient id="paint8_linear_6225_3221" x1="-50.373" y1="64.8413" x2="-50.371" y2="65.0354" gradientUnits="userSpaceOnUse">
<stop offset="0.0385425" stop-color="#00D21E"/>
<stop offset="0.378329" stop-color="#2D2264"/>
</linearGradient>
<linearGradient id="paint9_linear_6225_3221" x1="-42.9104" y1="40.7225" x2="-42.8885" y2="41.2824" gradientUnits="userSpaceOnUse">
<stop offset="0.0385425" stop-color="#00D21E"/>
<stop offset="0.378329" stop-color="#2D2264"/>
</linearGradient>
<linearGradient id="paint10_linear_6225_3221" x1="-4.0639" y1="67.9302" x2="-3.92995" y2="68.6535" gradientUnits="userSpaceOnUse">
<stop offset="0.0385425" stop-color="#00D21E"/>
<stop offset="0.378329" stop-color="#2D2264"/>
</linearGradient>
</defs>
</svg>
