<svg width="21" height="21" viewBox="0 0 21 21" fill="none" xmlns="http://www.w3.org/2000/svg">
<path fill-rule="evenodd" clip-rule="evenodd" d="M9.58105 2.34082C9.18709 2.34082 8.79698 2.41842 8.433 2.56918C8.06903 2.71995 7.73831 2.94092 7.45973 3.2195C7.18116 3.49808 6.96018 3.82879 6.80942 4.19277C6.65865 4.55675 6.58105 4.94685 6.58105 5.34082C6.58105 5.73479 6.65865 6.12489 6.80942 6.48887C6.96018 6.85285 7.18116 7.18357 7.45973 7.46214C7.73831 7.74072 8.06903 7.9617 8.433 8.11246C8.79698 8.26322 9.18709 8.34082 9.58105 8.34082C10.3767 8.34082 11.1398 8.02475 11.7024 7.46214C12.265 6.89953 12.5811 6.13647 12.5811 5.34082C12.5811 4.54517 12.265 3.78211 11.7024 3.2195C11.1398 2.65689 10.3767 2.34082 9.58105 2.34082ZM4.58105 5.34082C4.58105 4.01474 5.10784 2.74297 6.04552 1.80529C6.9832 0.867604 8.25497 0.34082 9.58105 0.34082C10.9071 0.34082 12.1789 0.867604 13.1166 1.80529C14.0543 2.74297 14.5811 4.01474 14.5811 5.34082C14.5811 6.6669 14.0543 7.93867 13.1166 8.87635C12.1789 9.81404 10.9071 10.3408 9.58105 10.3408C8.25497 10.3408 6.9832 9.81404 6.04552 8.87635C5.10784 7.93867 4.58105 6.6669 4.58105 5.34082ZM2.99405 15.9418C2.67105 16.3518 2.58105 16.6618 2.58105 16.8408C2.58105 16.9628 2.61805 17.0918 2.83605 17.2668C3.08505 17.4668 3.51805 17.6738 4.18005 17.8488C5.49805 18.1988 7.39205 18.3408 9.58105 18.3408C9.80305 18.3408 10.0224 18.3392 10.2391 18.3358C10.5043 18.3322 10.76 18.4342 10.9501 18.6192C11.1402 18.8042 11.249 19.0571 11.2526 19.3223C11.2561 19.5875 11.1542 19.8433 10.9692 20.0334C10.7842 20.2234 10.5313 20.3322 10.2661 20.3358C10.0394 20.3392 9.81105 20.3408 9.58105 20.3408C7.35205 20.3408 5.24605 20.2008 3.66805 19.7828C2.88305 19.5748 2.14405 19.2768 1.58405 18.8268C0.991055 18.3508 0.581055 17.6858 0.581055 16.8408C0.581055 16.0538 0.939055 15.3178 1.42505 14.7018C1.91905 14.0768 2.60205 13.5018 3.40305 13.0118C5.00605 12.0358 7.18605 11.3408 9.58105 11.3408C10.0284 11.3408 10.4671 11.3642 10.8971 11.4108C11.1608 11.4388 11.4027 11.5704 11.5694 11.7767C11.7361 11.983 11.814 12.2471 11.7861 12.5108C11.7581 12.7746 11.6265 13.0164 11.4202 13.1831C11.2139 13.3499 10.9498 13.4278 10.6861 13.3998C10.3254 13.3605 9.95706 13.3408 9.58105 13.3408C7.55805 13.3408 5.73805 13.9308 4.44505 14.7198C3.79805 15.1138 3.30905 15.5418 2.99405 15.9418ZM16.8971 12.3918C16.6919 12.3235 16.4702 12.3235 16.2651 12.3918L13.2651 13.3918C13.0658 13.4582 12.8926 13.5855 12.7698 13.7559C12.647 13.9262 12.581 14.1309 12.5811 14.3408V16.0118C12.5809 17.0814 12.9752 18.1135 13.6885 18.9106C14.4018 19.7077 15.384 20.2137 16.4471 20.3318C16.5371 20.3418 16.6264 20.3418 16.7151 20.3318C17.7781 20.2137 18.7603 19.7077 19.4736 18.9106C20.1869 18.1135 20.5812 17.0814 20.5811 16.0118V14.3408C20.5811 14.1309 20.5151 13.9262 20.3923 13.7559C20.2695 13.5855 20.0963 13.4582 19.8971 13.3918L16.8971 12.3918ZM14.5811 16.0118V15.0618L16.5811 14.3948L18.5811 15.0618V16.0118C18.5811 17.1788 17.7261 18.1618 16.5811 18.3328C16.025 18.2499 15.5172 17.9701 15.1502 17.5443C14.7831 17.1185 14.5811 16.575 14.5811 16.0128V16.0118Z" fill="#005E0E"/>
</svg>
