<svg width="32" height="32" viewBox="0 0 32 32" fill="none" xmlns="http://www.w3.org/2000/svg">
<path d="M23.6092 18.2764L27.1398 21.807C27.2531 21.9198 27.343 22.0538 27.4043 22.2014C27.4657 22.3489 27.4972 22.5072 27.4972 22.667C27.4972 22.8268 27.4657 22.9851 27.4043 23.1327C27.343 23.2803 27.2531 23.4143 27.1398 23.527C25.8983 24.7688 24.2505 25.521 22.4989 25.6454C20.7474 25.7698 19.0097 25.2582 17.6052 24.2044L15.5052 22.6284C13.1804 20.8848 11.1153 18.8197 9.37182 16.495L7.79582 14.395C6.74202 12.9904 6.23034 11.2528 6.35477 9.50126C6.4792 7.74972 7.23137 6.10187 8.47315 4.86036C8.58589 4.74707 8.71991 4.65718 8.86749 4.59584C9.01508 4.53451 9.17333 4.50293 9.33315 4.50293C9.49297 4.50293 9.65122 4.53451 9.79881 4.59584C9.94639 4.65718 10.0804 4.74707 10.1932 4.86036L13.7238 8.39102C13.9738 8.64106 14.1142 8.98014 14.1142 9.33369C14.1142 9.68724 13.9738 10.0263 13.7238 10.2764L12.3625 11.6377C12.2562 11.7429 12.1861 11.8791 12.1621 12.0267C12.1382 12.1742 12.1616 12.3256 12.2292 12.459C13.811 15.6234 16.3768 18.1891 19.5412 19.771C19.6746 19.8385 19.8259 19.862 19.9735 19.8381C20.1211 19.8141 20.2573 19.7439 20.3625 19.6377L21.7225 18.2777C21.8463 18.1537 21.9934 18.0554 22.1552 17.9883C22.3171 17.9212 22.4906 17.8866 22.6658 17.8866C22.841 17.8866 23.0145 17.9212 23.1764 17.9883C23.3383 18.0554 23.4853 18.1537 23.6092 18.2777V18.2764Z" stroke="#002706" stroke-width="1.33333"/>
</svg>
