<svg width="32" height="32" viewBox="0 0 32 32" fill="none" xmlns="http://www.w3.org/2000/svg">
<path d="M15 0C16.375 0 17.7031 0.177083 18.9844 0.53125C20.2656 0.885417 21.4583 1.39062 22.5625 2.04688C23.6667 2.70312 24.6771 3.48438 25.5938 4.39062C26.5104 5.29688 27.2917 6.30729 27.9375 7.42188C28.5833 8.53646 29.0885 9.73438 29.4531 11.0156C29.8177 12.2969 30 13.625 30 15C30 16.3854 29.8229 17.7135 29.4688 18.9844C29.1146 20.2552 28.6094 21.4479 27.9531 22.5625C27.2969 23.6771 26.5156 24.6875 25.6094 25.5938C24.7031 26.5 23.6927 27.2812 22.5781 27.9375C21.4635 28.5938 20.2656 29.099 18.9844 29.4531C17.7031 29.8073 16.375 29.9896 15 30C13.6146 30 12.2865 29.8229 11.0156 29.4688C9.74479 29.1146 8.55208 28.6094 7.4375 27.9531C6.32292 27.2969 5.3125 26.5156 4.40625 25.6094C3.5 24.7031 2.71875 23.6927 2.0625 22.5781C1.40625 21.4635 0.901042 20.2656 0.546875 18.9844C0.192708 17.7031 0.0104167 16.375 0 15C0 13.625 0.177083 12.2969 0.53125 11.0156C0.885417 9.73438 1.39062 8.54167 2.04688 7.4375C2.70312 6.33333 3.48438 5.32292 4.39062 4.40625C5.29688 3.48958 6.30729 2.70833 7.42188 2.0625C8.53646 1.41667 9.73438 0.911458 11.0156 0.546875C12.2969 0.182292 13.625 0 15 0ZM24 16V14H6V16H24Z" fill="#005E0E"/>
</svg>
