<svg width="18" height="23" viewBox="0 0 18 23" fill="none" xmlns="http://www.w3.org/2000/svg">
<path d="M8.99969 0.5C7.14317 0.5 5.36269 1.2375 4.04994 2.55025C2.73718 3.86301 1.99969 5.64348 1.99969 7.5V11.028C1.99983 11.1831 1.96388 11.3362 1.89469 11.475L0.177686 14.908C0.0938127 15.0757 0.0542083 15.2621 0.0626347 15.4494C0.0710612 15.6368 0.127239 15.8188 0.225831 15.9783C0.324424 16.1379 0.462159 16.2695 0.625953 16.3608C0.789748 16.4521 0.974164 16.5 1.16169 16.5H16.8377C17.0252 16.5 17.2096 16.4521 17.3734 16.3608C17.5372 16.2695 17.675 16.1379 17.7735 15.9783C17.8721 15.8188 17.9283 15.6368 17.9367 15.4494C17.9452 15.2621 17.9056 15.0757 17.8217 14.908L16.1057 11.475C16.0361 11.3362 15.9999 11.1832 15.9997 11.028V7.5C15.9997 5.64348 15.2622 3.86301 13.9494 2.55025C12.6367 1.2375 10.8562 0.5 8.99969 0.5ZM8.99969 19.5C8.37903 19.5003 7.77356 19.3081 7.26671 18.9499C6.75985 18.5917 6.37657 18.0852 6.16969 17.5H11.8297C11.6228 18.0852 11.2395 18.5917 10.7327 18.9499C10.2258 19.3081 9.62034 19.5003 8.99969 19.5Z" fill="#005E0E"/>
</svg>
