<svg width="17" height="23" viewBox="0 0 17 23" fill="none" xmlns="http://www.w3.org/2000/svg">
<path d="M11.0807 4.72168C12.1707 4.72168 13.0807 3.80168 13.0807 2.72168C13.0807 2.19125 12.87 1.68254 12.4949 1.30747C12.1198 0.932393 11.6111 0.72168 11.0807 0.72168C9.9707 0.72168 9.0807 1.60168 9.0807 2.72168C9.0807 3.80168 9.9707 4.72168 11.0807 4.72168ZM7.4707 18.6017L8.4707 14.2217L10.5807 16.2217V22.2217H12.5807V14.7217L10.4707 12.7217L11.0807 9.72168C11.7659 10.5068 12.6113 11.1361 13.5599 11.5674C14.5086 11.9986 15.5386 12.2217 16.5807 12.2217V10.2217C14.6707 10.2217 13.0807 9.22168 12.2707 7.80168L11.2707 6.22168C10.8707 5.60168 10.2707 5.22168 9.5807 5.22168C9.2707 5.22168 9.0807 5.30168 8.7707 5.30168L3.5807 7.50168V12.2217H5.5807V8.80168L7.3707 8.10168L5.7707 16.2217L0.870703 15.2217L0.470703 17.2217L7.4707 18.6017Z" fill="#005E0E"/>
</svg>
