<svg width="32" height="32" viewBox="0 0 32 32" fill="none" xmlns="http://www.w3.org/2000/svg">
<path d="M16.0002 29.3337C12.9113 28.5559 10.3611 26.7834 8.3495 24.0163C6.33794 21.2492 5.33261 18.1772 5.3335 14.8003V6.66699L16.0002 2.66699L26.6668 6.66699V14.8003C26.6668 18.1781 25.6615 21.2505 23.6508 24.0177C21.6402 26.7848 19.0899 28.5568 16.0002 29.3337ZM16.0002 26.5337C18.1557 25.867 19.9557 24.5501 21.4002 22.583C22.8446 20.6159 23.6891 18.4217 23.9335 16.0003H16.0002V5.50033L8.00016 8.50033V15.4003C8.00016 15.5559 8.02239 15.7559 8.06683 16.0003H16.0002V26.5337Z" fill="#E61C11"/>
</svg>
