<svg width="32" height="33" viewBox="0 0 32 33" fill="none" xmlns="http://www.w3.org/2000/svg">
<path d="M22.6665 4.95352C24.6775 6.11466 26.3504 7.78088 27.5196 9.78725C28.6888 11.7936 29.3136 14.0705 29.3324 16.3926C29.3512 18.7147 28.7631 21.0015 27.6265 23.0264C26.4899 25.0514 24.8442 26.7445 22.8522 27.9379C20.8602 29.1314 18.591 29.7839 16.2693 29.8309C13.9476 29.8779 11.6539 29.3177 9.61524 28.2058C7.57658 27.0939 5.86366 25.4689 4.64606 23.4915C3.42845 21.5142 2.74838 19.2531 2.67317 16.9322L2.6665 16.5002L2.67317 16.0682C2.74784 13.7655 3.4179 11.5215 4.61802 9.55484C5.81815 7.58822 7.50738 5.96612 9.52103 4.84669C11.5347 3.72727 13.804 3.14871 16.1078 3.16743C18.4117 3.18615 20.6713 3.80151 22.6665 4.95352ZM15.9998 8.50018C15.6733 8.50023 15.3581 8.62012 15.114 8.83714C14.87 9.05415 14.714 9.35318 14.6758 9.67752L14.6665 9.83352V16.5002L14.6785 16.6748C14.7089 16.9062 14.7995 17.1255 14.9412 17.3108L15.0572 17.4442L19.0572 21.4442L19.1825 21.5535C19.4163 21.7349 19.7039 21.8334 19.9998 21.8334C20.2958 21.8334 20.5833 21.7349 20.8172 21.5535L20.9425 21.4428L21.0532 21.3175C21.2346 21.0837 21.3331 20.7961 21.3331 20.5002C21.3331 20.2042 21.2346 19.9167 21.0532 19.6828L20.9425 19.5575L17.3332 15.9468V9.83352L17.3238 9.67752C17.2856 9.35318 17.1297 9.05415 16.8857 8.83714C16.6416 8.62012 16.3264 8.50023 15.9998 8.50018Z" fill="#FFE100"/>
</svg>
