<svg width="17" height="13" viewBox="0 0 17 13" fill="none" xmlns="http://www.w3.org/2000/svg">
<path fill-rule="evenodd" clip-rule="evenodd" d="M16.55 0.78488C17.015 1.19588 17.0585 1.90688 16.6475 2.37488L8.02254 12.1249C7.92293 12.2375 7.80176 12.329 7.66618 12.394C7.5306 12.459 7.38337 12.4962 7.23319 12.5033C7.08301 12.5104 6.93292 12.4874 6.79179 12.4355C6.65067 12.3837 6.52137 12.3041 6.41154 12.2014L0.786537 6.95138C0.570143 6.74745 0.443284 6.46614 0.433692 6.16895C0.424099 5.87176 0.532552 5.58286 0.735345 5.3654C0.938137 5.14793 1.21877 5.0196 1.51591 5.00845C1.81305 4.9973 2.10251 5.10423 2.32104 5.30588L7.10604 9.76088L14.966 0.88088C15.064 0.770021 15.1829 0.679582 15.3159 0.614743C15.4489 0.549904 15.5934 0.511939 15.7411 0.503022C15.8888 0.494104 16.0368 0.51441 16.1767 0.562775C16.3165 0.611141 16.4454 0.686616 16.556 0.78488H16.55Z" fill="black"/>
</svg>
