<svg width="18" height="18" viewBox="0 0 18 18" fill="none" xmlns="http://www.w3.org/2000/svg">
<path fill-rule="evenodd" clip-rule="evenodd" d="M9.49935 8.58616L12.7418 11.8287L12.0352 12.5362L8.49935 9.00033V4.00033H9.49935V8.58616ZM8.99935 17.3337C4.39685 17.3337 0.666016 13.6028 0.666016 9.00033C0.666016 4.39783 4.39685 0.666992 8.99935 0.666992C13.6018 0.666992 17.3327 4.39783 17.3327 9.00033C17.3327 13.6028 13.6018 17.3337 8.99935 17.3337ZM8.99935 16.3337C10.9443 16.3337 12.8095 15.561 14.1848 14.1858C15.5601 12.8105 16.3327 10.9452 16.3327 9.00033C16.3327 7.0554 15.5601 5.19014 14.1848 3.81488C12.8095 2.43961 10.9443 1.66699 8.99935 1.66699C7.05443 1.66699 5.18917 2.43961 3.8139 3.81488C2.43863 5.19014 1.66602 7.0554 1.66602 9.00033C1.66602 10.9452 2.43863 12.8105 3.8139 14.1858C5.18917 15.561 7.05443 16.3337 8.99935 16.3337Z" fill="#666666"/>
</svg>
