<svg width="21" height="21" viewBox="0 0 21 21" fill="none" xmlns="http://www.w3.org/2000/svg">
<path d="M10.5811 3.92457V1.55957M10.5811 3.92457C11.966 3.97827 13.2758 4.56833 14.2336 5.57004C15.1915 6.57174 15.7224 7.90663 15.7141 9.29257V11.0926C15.7141 13.4786 17.5811 14.0746 17.5811 15.2676C17.5811 15.8606 17.5811 16.4606 17.0431 16.4606H4.11905C3.58105 16.4606 3.58105 15.8606 3.58105 15.2676C3.58105 14.0746 5.44805 13.4786 5.44805 11.0926V9.29257C5.43975 7.90663 5.97062 6.57174 6.92847 5.57004C7.88633 4.56833 9.19613 3.97827 10.5811 3.92457ZM4.58105 3.46057L3.58105 2.46057M2.58105 7.46057H1.58105M16.5811 3.46057L17.5811 2.46057M18.5811 7.46057H19.5811M7.12105 16.4606C7.21296 17.3141 7.61709 18.1035 8.25577 18.6771C8.89445 19.2507 9.72261 19.568 10.5811 19.568C11.4395 19.568 12.2677 19.2507 12.9063 18.6771C13.545 18.1035 13.9492 17.3141 14.0411 16.4606H7.12105Z" stroke="#005E0E" stroke-width="2.29054" stroke-linecap="round" stroke-linejoin="round"/>
</svg>
