<svg width="22" height="17" viewBox="0 0 22 17" fill="none" xmlns="http://www.w3.org/2000/svg">
<path d="M7.14244 0.286133C6.63591 0.286133 6.13434 0.385901 5.66637 0.57974C5.1984 0.77358 4.7732 1.05769 4.41503 1.41586C4.05686 1.77403 3.77274 2.19924 3.5789 2.66721C3.38506 3.13518 3.2853 3.63675 3.2853 4.14328C3.2853 4.6498 3.38506 5.15137 3.5789 5.61934C3.77274 6.08731 4.05686 6.51252 4.41503 6.87069C4.7732 7.22886 5.1984 7.51297 5.66637 7.70681C6.13434 7.90065 6.63591 8.00042 7.14244 8.00042C8.16542 8.00042 9.1465 7.59404 9.86985 6.87069C10.5932 6.14733 10.9996 5.16625 10.9996 4.14328C10.9996 3.1203 10.5932 2.13922 9.86985 1.41586C9.1465 0.692509 8.16542 0.286133 7.14244 0.286133ZM4.57101 4.14328C4.57101 3.80559 4.63752 3.47121 4.76675 3.15923C4.89598 2.84725 5.08538 2.56378 5.32416 2.325C5.56294 2.08622 5.84642 1.89681 6.1584 1.76759C6.47038 1.63836 6.80475 1.57185 7.14244 1.57185C7.48012 1.57185 7.8145 1.63836 8.12648 1.76759C8.43846 1.89681 8.72193 2.08622 8.96071 2.325C9.19949 2.56378 9.3889 2.84725 9.51813 3.15923C9.64736 3.47121 9.71387 3.80559 9.71387 4.14328C9.71387 4.82526 9.44295 5.47931 8.96071 5.96155C8.47848 6.44379 7.82442 6.7147 7.14244 6.7147C6.46045 6.7147 5.8064 6.44379 5.32416 5.96155C4.84193 5.47931 4.57101 4.82526 4.57101 4.14328ZM16.1424 2.00042C15.3468 2.00042 14.5837 2.31649 14.0211 2.8791C13.4585 3.44171 13.1424 4.20477 13.1424 5.00042C13.1424 5.79607 13.4585 6.55913 14.0211 7.12174C14.5837 7.68435 15.3468 8.00042 16.1424 8.00042C16.9381 8.00042 17.7012 7.68435 18.2638 7.12174C18.8264 6.55913 19.1424 5.79607 19.1424 5.00042C19.1424 4.20477 18.8264 3.44171 18.2638 2.8791C17.7012 2.31649 16.9381 2.00042 16.1424 2.00042ZM14.4282 5.00042C14.4282 4.54576 14.6088 4.10973 14.9303 3.78824C15.2517 3.46675 15.6878 3.28613 16.1424 3.28613C16.5971 3.28613 17.0331 3.46675 17.3546 3.78824C17.6761 4.10973 17.8567 4.54576 17.8567 5.00042C17.8567 5.45508 17.6761 5.89111 17.3546 6.2126C17.0331 6.53409 16.5971 6.7147 16.1424 6.7147C15.6878 6.7147 15.2517 6.53409 14.9303 6.2126C14.6088 5.89111 14.4282 5.45508 14.4282 5.00042ZM0.713867 11.6433C0.713867 11.1318 0.917055 10.6412 1.27873 10.2796C1.64041 9.91789 2.13095 9.7147 2.64244 9.7147H11.6424C12.1539 9.7147 12.6445 9.91789 13.0061 10.2796C13.3678 10.6412 13.571 11.1318 13.571 11.6433V12.0984C13.5704 12.1678 13.5655 12.2371 13.5564 12.3058C13.5371 12.4827 13.5056 12.6579 13.4622 12.8304C13.3202 13.3932 13.0675 13.922 12.719 14.3861C11.8499 15.5458 10.1922 16.5718 7.14244 16.5718C4.09272 16.5718 2.43501 15.5458 1.56587 14.3861C1.21764 13.922 0.965304 13.3931 0.823581 12.8304C0.767486 12.6064 0.731628 12.3777 0.716439 12.1473L0.713867 12.0984V11.6433ZM1.99958 12.0676V12.083L2.0073 12.1687C2.01587 12.2493 2.03301 12.3701 2.07072 12.5184C2.17066 12.9149 2.34839 13.2875 2.59358 13.6147C3.1713 14.3836 4.40644 15.2861 7.14244 15.2861C9.87844 15.2861 11.1136 14.3836 11.6904 13.6147C11.9904 13.2153 12.1396 12.8158 12.2133 12.5184C12.2494 12.3756 12.2732 12.2299 12.2844 12.083L12.2853 12.0676V11.6433C12.2853 11.4728 12.2176 11.3093 12.097 11.1887C11.9764 11.0681 11.8129 11.0004 11.6424 11.0004H2.64244C2.47194 11.0004 2.30843 11.0681 2.18787 11.1887C2.06731 11.3093 1.99958 11.4728 1.99958 11.6433V12.0676ZM13.6567 14.5318C14.3193 14.735 15.137 14.8576 16.1407 14.8576C18.515 14.8576 19.8419 14.1753 20.5627 13.3524C20.8505 13.0265 21.064 12.6419 21.1884 12.2253C21.2371 12.0569 21.2684 11.884 21.2819 11.7093L21.2836 11.669V11.6433C21.2836 11.1318 21.0804 10.6412 20.7187 10.2796C20.357 9.91789 19.8665 9.7147 19.355 9.7147H13.6516C13.9893 10.067 14.2362 10.5084 14.3527 11.0004H19.3559C19.5249 11.0004 19.6871 11.067 19.8074 11.1857C19.9277 11.3044 19.9965 11.4657 19.9987 11.6347L19.9944 11.6741C19.9859 11.7388 19.9724 11.8027 19.9542 11.8653C19.8818 12.1022 19.759 12.3207 19.5942 12.5056C19.1904 12.9684 18.2682 13.5718 16.1407 13.5718C15.3342 13.5718 14.7007 13.4853 14.2027 13.3516C14.0714 13.7665 13.8879 14.1631 13.6567 14.5318Z" fill="#005E0E"/>
</svg>
