<svg width="22" height="17" viewBox="0 0 22 17" fill="none" xmlns="http://www.w3.org/2000/svg">
<path d="M5 17C4.71667 17 4.47934 16.904 4.288 16.712C4.09667 16.52 4.00067 16.2827 4 16C3.99934 15.7173 4.09534 15.48 4.288 15.288C4.48067 15.096 4.718 15 5 15H5.6L7.575 8.425C7.70834 7.99167 7.95434 7.646 8.313 7.388C8.67167 7.13 9.06734 7.00067 9.5 7H12.5C12.9333 7 13.3293 7.12934 13.688 7.388C14.0467 7.64667 14.2923 7.99234 14.425 8.425L16.4 15H17C17.2833 15 17.521 15.096 17.713 15.288C17.905 15.48 18.0007 15.7173 18 16C17.9993 16.2827 17.9033 16.5203 17.712 16.713C17.5207 16.9057 17.2833 17.0013 17 17H5ZM10 4V1C10 0.71667 10.096 0.479337 10.288 0.288004C10.48 0.0966702 10.7173 0.000670115 11 3.44827e-06C11.2827 -0.000663218 11.5203 0.0953369 11.713 0.288004C11.9057 0.48067 12.0013 0.718003 12 1V4C12 4.28334 11.904 4.521 11.712 4.713C11.52 4.905 11.2827 5.00067 11 5C10.7173 4.99934 10.48 4.90334 10.288 4.712C10.096 4.52067 10 4.28334 10 4ZM15.25 5.35L17.375 3.225C17.5583 3.04167 17.7877 2.94567 18.063 2.937C18.3383 2.92834 18.5757 3.02434 18.775 3.225C18.9583 3.40834 19.05 3.64167 19.05 3.925C19.05 4.20834 18.9583 4.44167 18.775 4.625L16.65 6.775C16.45 6.975 16.2167 7.075 15.95 7.075C15.6833 7.075 15.45 6.975 15.25 6.775C15.05 6.575 14.95 6.33767 14.95 6.063C14.95 5.78834 15.05 5.55067 15.25 5.35ZM18 10H21C21.2833 10 21.521 10.096 21.713 10.288C21.905 10.48 22.0007 10.7173 22 11C21.9993 11.2827 21.9033 11.5203 21.712 11.713C21.5207 11.9057 21.2833 12.0013 21 12H18C17.7167 12 17.4793 11.904 17.288 11.712C17.0967 11.52 17.0007 11.2827 17 11C16.9993 10.7173 17.0953 10.48 17.288 10.288C17.4807 10.096 17.718 10 18 10ZM5.35 6.75L3.225 4.625C3.04167 4.44167 2.946 4.21267 2.938 3.938C2.93 3.66334 3.02567 3.42567 3.225 3.225C3.40834 3.04167 3.64167 2.95 3.925 2.95C4.20834 2.95 4.44167 3.04167 4.625 3.225L6.775 5.35C6.975 5.55 7.075 5.78334 7.075 6.05C7.075 6.31667 6.975 6.55 6.775 6.75C6.575 6.95 6.33767 7.05 6.063 7.05C5.78834 7.05 5.55067 6.95 5.35 6.75ZM1 12C0.71667 12 0.479337 11.904 0.288003 11.712C0.0966701 11.52 0.000670115 11.2827 3.44828e-06 11C-0.000663218 10.7173 0.0953368 10.48 0.288003 10.288C0.48067 10.096 0.718003 10 1 10H4C4.28334 10 4.521 10.096 4.713 10.288C4.905 10.48 5.00067 10.7173 5 11C4.99934 11.2827 4.90334 11.5203 4.712 11.713C4.52067 11.9057 4.28334 12.0013 4 12H1Z" fill="white"/>
</svg>
