<svg width="29" height="20" viewBox="0 0 29 20" fill="none" xmlns="http://www.w3.org/2000/svg">
<g clip-path="url(#clip0_937_1025)">
<path d="M3.47222 6.50043C3.47222 5.3659 3.92292 4.27783 4.72515 3.47559C5.52739 2.67335 6.61546 2.22266 7.75 2.22266C8.88454 2.22266 9.97261 2.67335 10.7748 3.47559C11.5771 4.27783 12.0278 5.3659 12.0278 6.50043C12.0278 7.63497 11.5771 8.72304 10.7748 9.52528C9.97261 10.3275 8.88454 10.7782 7.75 10.7782C6.61546 10.7782 5.52739 10.3275 4.72515 9.52528C3.92292 8.72304 3.47222 7.63497 3.47222 6.50043ZM0.75 15.4449C0.75 14.4135 1.15972 13.4243 1.88903 12.695C2.61834 11.9657 3.60749 11.556 4.63889 11.556H10.8611C11.8925 11.556 12.8817 11.9657 13.611 12.695C14.3403 13.4243 14.75 14.4135 14.75 15.4449V17.7782H0.75V15.4449Z" fill="#005E0E"/>
</g>
<g clip-path="url(#clip1_937_1025)">
<path d="M24.0833 3.77832H16.3055V14.6672C16.3055 15.0798 16.4694 15.4754 16.7612 15.7672C17.0529 16.0589 17.4485 16.2228 17.8611 16.2228H24.0833M24.8611 12.3339L27.1944 10.0005M27.1944 10.0005L24.8611 7.66721M27.1944 10.0005H19.4167" stroke="#005E0E" stroke-width="1.94444" stroke-linecap="round" stroke-linejoin="round"/>
</g>
<defs>
<clipPath id="clip0_937_1025">
<rect width="14" height="18.6667" fill="white" transform="translate(0.75 0.666992)"/>
</clipPath>
<clipPath id="clip1_937_1025">
<rect width="14" height="18.6667" fill="white" transform="translate(14.75 0.666992)"/>
</clipPath>
</defs>
</svg>
