<?xml version="1.0" standalone="no"?>
<!DOCTYPE svg PUBLIC "-//W3C//DTD SVG 20010904//EN"
 "http://www.w3.org/TR/2001/REC-SVG-20010904/DTD/svg10.dtd">
<svg version="1.0" xmlns="http://www.w3.org/2000/svg"
 width="165.000000pt" height="110.000000pt" viewBox="0 0 165.000000 110.000000"
 preserveAspectRatio="xMidYMid meet">

<g transform="translate(0.000000,110.000000) scale(0.100000,-0.100000)"
fill="#000000" stroke="none">
<path d="M332 991 c-264 -93 -199 -482 80 -481 143 1 247 103 248 243 0 174
-167 296 -328 238z"/>
<path d="M877 952 c-15 -17 -17 -57 -17 -363 0 -384 1 -391 69 -436 33 -22 42
-23 252 -23 184 0 220 2 233 16 21 21 20 57 -2 77 -16 15 -46 17 -218 17 -142
0 -203 3 -212 12 -9 9 -12 92 -12 310 l0 298 213 0 c195 0 215 2 230 18 21 23
22 56 1 76 -13 14 -52 16 -268 16 -232 0 -254 -1 -269 -18z"/>
<path d="M1382 728 c-18 -18 -14 -62 9 -92 l20 -26 -161 0 c-158 0 -161 -1
-185 -25 -14 -13 -25 -29 -25 -35 0 -6 11 -22 25 -35 24 -24 27 -25 185 -25
l161 0 -20 -26 c-38 -49 -23 -104 29 -104 36 0 190 155 190 190 0 36 -155 190
-191 190 -14 0 -30 -5 -37 -12z"/>
<path d="M163 446 c-60 -19 -99 -51 -130 -104 -24 -41 -28 -59 -31 -149 l-4
-103 411 0 411 0 0 95 c0 137 -31 198 -125 248 -37 20 -56 22 -265 24 -166 2
-236 -1 -267 -11z"/>
</g>
</svg>
