<?xml version="1.0" standalone="no"?>
<!DOCTYPE svg PUBLIC "-//W3C//DTD SVG 20010904//EN"
 "http://www.w3.org/TR/2001/REC-SVG-20010904/DTD/svg10.dtd">
<svg version="1.0" xmlns="http://www.w3.org/2000/svg"
 width="165.000000pt" height="165.000000pt" viewBox="0 0 165.000000 165.000000"
 preserveAspectRatio="xMidYMid meet">

<g transform="translate(0.000000,165.000000) scale(0.100000,-0.100000)"
fill="#000000" stroke="none">
<path d="M723 1496 c-118 -38 -208 -139 -233 -262 -8 -35 -10 -184 -8 -441 4
-444 5 -445 90 -538 55 -61 129 -102 201 -111 l47 -7 0 136 0 135 -35 12 c-18
6 -48 27 -65 46 -56 64 -33 171 44 208 19 9 38 16 43 16 5 0 19 23 30 50 31
73 72 89 221 90 l114 0 -4 208 c-5 242 -13 273 -90 357 -68 75 -138 107 -237
112 -46 2 -93 -3 -118 -11z m163 -272 c98 -47 98 -201 0 -248 -95 -45 -196 20
-196 125 0 105 101 168 196 123z"/>
<path d="M1193 679 c-97 -28 -122 -172 -40 -233 64 -47 134 -40 186 20 60 68
33 173 -56 210 -36 16 -45 16 -90 3z"/>
<path d="M792 608 c-44 -22 -41 -96 4 -117 21 -9 34 -9 56 0 49 20 51 95 3
117 -30 14 -33 14 -63 0z"/>
<path d="M1103 326 c-93 -30 -143 -87 -143 -161 l0 -25 275 0 275 0 0 38 c0
57 -32 99 -98 130 -48 22 -73 27 -162 29 -68 2 -120 -2 -147 -11z"/>
</g>
</svg>
