<svg width="24" height="24" viewBox="0 0 24 24" fill="none" xmlns="http://www.w3.org/2000/svg">
<path d="M11.4004 3.59961H6.00039C5.04561 3.59961 4.12994 3.97889 3.45481 4.65403C2.77968 5.32916 2.40039 6.24483 2.40039 7.19961V15.5996C2.40039 16.5544 2.77968 17.4701 3.45481 18.1452C4.12994 18.8203 5.04561 19.1996 6.00039 19.1996H11.4004V3.59961ZM6.77559 8.57481C6.83133 8.51893 6.89754 8.4746 6.97043 8.44435C7.04332 8.41411 7.12147 8.39854 7.20039 8.39854C7.27931 8.39854 7.35746 8.41411 7.43035 8.44435C7.50325 8.4746 7.56946 8.51893 7.62519 8.57481L9.42519 10.3748C9.48098 10.4306 9.52523 10.4968 9.55542 10.5697C9.58561 10.6426 9.60115 10.7207 9.60115 10.7996C9.60115 10.8785 9.58561 10.9566 9.55542 11.0295C9.52523 11.1024 9.48098 11.1686 9.42519 11.2244C9.36941 11.2802 9.30318 11.3244 9.23029 11.3546C9.1574 11.3848 9.07928 11.4004 9.00039 11.4004C8.9215 11.4004 8.84338 11.3848 8.77049 11.3546C8.6976 11.3244 8.63138 11.2802 8.57559 11.2244L7.80039 10.448V13.7996C7.80039 13.9587 7.73718 14.1114 7.62465 14.2239C7.51213 14.3364 7.35952 14.3996 7.20039 14.3996C7.04126 14.3996 6.88865 14.3364 6.77613 14.2239C6.66361 14.1114 6.60039 13.9587 6.60039 13.7996V10.448L5.82519 11.2244C5.76941 11.2802 5.70318 11.3244 5.63029 11.3546C5.5574 11.3848 5.47928 11.4004 5.40039 11.4004C5.3215 11.4004 5.24338 11.3848 5.17049 11.3546C5.0976 11.3244 5.03138 11.2802 4.97559 11.2244C4.91981 11.1686 4.87555 11.1024 4.84536 11.0295C4.81517 10.9566 4.79963 10.8785 4.79963 10.7996C4.79963 10.7207 4.81517 10.6426 4.84536 10.5697C4.87555 10.4968 4.91981 10.4306 4.97559 10.3748L6.77559 8.57481ZM12.6004 19.1996H18.0004C18.9552 19.1996 19.8708 18.8203 20.546 18.1452C21.2211 17.4701 21.6004 16.5544 21.6004 15.5996V7.19961C21.6004 6.24483 21.2211 5.32916 20.546 4.65403C19.8708 3.97889 18.9552 3.59961 18.0004 3.59961H12.6004V19.1996ZM17.2252 14.2244C17.1695 14.2803 17.1032 14.3246 17.0304 14.3549C16.9575 14.3851 16.8793 14.4007 16.8004 14.4007C16.7215 14.4007 16.6433 14.3851 16.5704 14.3549C16.4975 14.3246 16.4313 14.2803 16.3756 14.2244L14.5756 12.4244C14.4629 12.3117 14.3996 12.1589 14.3996 11.9996C14.3996 11.8403 14.4629 11.6875 14.5756 11.5748C14.6883 11.4621 14.8411 11.3989 15.0004 11.3989C15.1597 11.3989 15.3125 11.4621 15.4252 11.5748L16.2004 12.3512V8.99961C16.2004 8.84048 16.2636 8.68787 16.3761 8.57535C16.4886 8.46282 16.6413 8.39961 16.8004 8.39961C16.9595 8.39961 17.1121 8.46282 17.2247 8.57535C17.3372 8.68787 17.4004 8.84048 17.4004 8.99961V12.3512L18.1756 11.5748C18.2883 11.4621 18.4411 11.3989 18.6004 11.3989C18.7597 11.3989 18.9125 11.4621 19.0252 11.5748C19.1379 11.6875 19.2011 11.8403 19.2011 11.9996C19.2011 12.1589 19.1379 12.3117 19.0252 12.4244L17.2252 14.2244Z" fill="#005E0E"/>
</svg>
