<svg width="23" height="23" viewBox="0 0 23 23" fill="none" xmlns="http://www.w3.org/2000/svg">
<path d="M20.6667 0.666687H2.33332C1.41285 0.666687 0.666656 1.41288 0.666656 2.33335V20.6667C0.666656 21.5872 1.41285 22.3334 2.33332 22.3334H20.6667C21.5871 22.3334 22.3333 21.5872 22.3333 20.6667V2.33335C22.3333 1.41288 21.5871 0.666687 20.6667 0.666687Z" stroke="black" stroke-width="1.66667"/>
<path d="M7.33335 8.99996C8.25383 8.99996 9.00002 8.25377 9.00002 7.33329C9.00002 6.41282 8.25383 5.66663 7.33335 5.66663C6.41288 5.66663 5.66669 6.41282 5.66669 7.33329C5.66669 8.25377 6.41288 8.99996 7.33335 8.99996Z" stroke="black" stroke-width="1.66667"/>
<path d="M4.83337 18.1666L7.33337 13.9999L9.83337 18.1666L14 11.4999L18.1667 18.1666" stroke="black" stroke-width="1.66667" stroke-linecap="round" stroke-linejoin="round"/>
</svg>
