<svg width="32" height="32" viewBox="0 0 32 32" fill="none" xmlns="http://www.w3.org/2000/svg">
<path d="M10.8004 16.0001C12.1795 16.0001 13.5022 15.4522 14.4773 14.4771C15.4525 13.5019 16.0004 12.1792 16.0004 10.8001C16.0004 9.42097 15.4525 8.09833 14.4773 7.12314C13.5022 6.14795 12.1795 5.6001 10.8004 5.6001C9.42126 5.6001 8.09862 6.14795 7.12344 7.12314C6.14825 8.09833 5.60039 9.42097 5.60039 10.8001C5.60039 12.1792 6.14825 13.5019 7.12344 14.4771C8.09862 15.4522 9.42126 16.0001 10.8004 16.0001ZM19.8996 24.2321C20.7476 24.5793 21.826 24.8001 23.1988 24.8001C29.5988 24.8001 29.5988 20.0001 29.5988 20.0001C29.5988 19.3639 29.3462 18.7536 28.8964 18.3036C28.4467 17.8536 27.8366 17.6005 27.2004 17.6001H19.7956C20.4244 18.3617 20.802 19.3361 20.802 20.4001V20.9697C20.7986 21.1044 20.7895 21.2389 20.7748 21.3729C20.6658 22.3724 20.3679 23.3424 19.8996 24.2321ZM27.2004 12.0001C27.2004 13.061 26.779 14.0784 26.0288 14.8285C25.2787 15.5787 24.2613 16.0001 23.2004 16.0001C22.1395 16.0001 21.1221 15.5787 20.372 14.8285C19.6218 14.0784 19.2004 13.061 19.2004 12.0001C19.2004 10.9392 19.6218 9.92182 20.372 9.17167C21.1221 8.42153 22.1395 8.0001 23.2004 8.0001C24.2613 8.0001 25.2787 8.42153 26.0288 9.17167C26.779 9.92182 27.2004 10.9392 27.2004 12.0001ZM2.40039 20.8001C2.40039 19.9514 2.73753 19.1375 3.33765 18.5374C3.93777 17.9372 4.7517 17.6001 5.60039 17.6001H16.0004C16.8491 17.6001 17.663 17.9372 18.2631 18.5374C18.8632 19.1375 19.2004 19.9514 19.2004 20.8001C19.2004 20.8001 19.2004 27.2001 10.8004 27.2001C2.40039 27.2001 2.40039 20.8001 2.40039 20.8001Z" fill="#005E0E"/>
</svg>
