<svg width="22" height="28" viewBox="0 0 22 28" fill="none" xmlns="http://www.w3.org/2000/svg">
<path d="M11.0007 27.3337C7.91176 26.5559 5.36154 24.7834 3.34999 22.0163C1.33843 19.2492 0.333096 16.1772 0.333985 12.8003V4.66699L11.0007 0.666992L21.6673 4.66699V12.8003C21.6673 16.1781 20.662 19.2505 18.6513 22.0177C16.6407 24.7848 14.0904 26.5568 11.0007 27.3337ZM11.0007 24.5337C13.1562 23.867 14.9562 22.5501 16.4007 20.583C17.8451 18.6159 18.6895 16.4217 18.934 14.0003H11.0007V3.50033L3.00065 6.50033V13.4003C3.00065 13.5559 3.02287 13.7559 3.06732 14.0003H11.0007V24.5337Z" fill="#E61C11"/>
</svg>
