<svg width="34" height="26" viewBox="0 0 34 26" fill="none" xmlns="http://www.w3.org/2000/svg">
<path d="M24.0698 2.83105L18.4078 4.27011L26.8875 8.18851L32.5497 6.74946L24.0698 2.83105ZM17.3765 4.9324V7.47988L26.3286 11.6166V9.06901L17.3765 4.9324ZM33.5809 7.55604L27.3484 9.14001V12.8263C26.1397 13.1333 24.931 13.4407 23.7223 13.7479V17.4342C22.5135 17.7412 21.3048 18.0486 20.0961 18.3558V22.0421C18.8873 22.3491 17.6787 22.6565 16.4699 22.9637V25.5814L33.5809 21.2326V7.55604ZM16.8175 8.3605L14.7816 8.87799L23.2614 12.7964L25.2974 12.2789L16.8175 8.3605ZM13.7504 9.54028V12.0878L22.7024 16.2244V13.6769L13.7504 9.54028ZM13.1914 12.9684L11.1554 13.4859L19.6352 17.4043L21.6713 16.8868L13.1914 12.9684ZM10.1242 14.1482V16.6956L19.0763 20.8323V18.2848L10.1242 14.1482ZM9.56521 17.5763L7.52933 18.0938L16.0091 22.0122L18.0451 21.4947L9.56521 17.5763ZM6.49805 18.756V21.3035L15.4501 25.4401V22.8927L6.49805 18.756Z" fill="#005E0E"/>
<path d="M1.58105 6.57979L5.88358 10.9537L14.4886 1.58105" stroke="#005E0E" stroke-width="1.71791" stroke-linecap="round" stroke-linejoin="round"/>
</svg>
