<?xml version="1.0" standalone="no"?>
<!DOCTYPE svg PUBLIC "-//W3C//DTD SVG 20010904//EN"
 "http://www.w3.org/TR/2001/REC-SVG-20010904/DTD/svg10.dtd">
<svg version="1.0" xmlns="http://www.w3.org/2000/svg"
 width="165.000000pt" height="165.000000pt" viewBox="0 0 165.000000 165.000000"
 preserveAspectRatio="xMidYMid meet">

<g transform="translate(0.000000,165.000000) scale(0.100000,-0.100000)"
fill="#000000" stroke="none">
<path d="M678 1635 c-513 -97 -806 -626 -618 -1113 102 -263 344 -458 631
-508 199 -34 418 11 586 123 271 179 414 507 359 821 -58 330 -291 583 -615
667 -90 23 -249 28 -343 10z m590 -511 c46 -32 33 -48 -245 -326 -148 -146
-277 -270 -288 -276 -11 -5 -27 -7 -36 -3 -29 11 -339 318 -339 336 0 33 20
55 51 55 25 0 52 -22 167 -135 l138 -134 230 230 c200 201 274 269 294 269 3
0 16 -7 28 -16z"/>
</g>
</svg>
